Pfont-SemiBold.ufo
<glyph name="exclam" format="1">
  <advance width="564"/>
  <unicode hex="0021"/>
  <outline>
    <contour>
      <point x="338" y="449" type="line"/>
      <point x="334" y="1352" type="line"/>
      <point x="120" y="1301" type="line"/>
      <point x="170" y="382" type="line"/>
    </contour>
    <component base="period" xOffset="38" yOffset="-25" xScale="0.803" yScale="0.803"/>
  </outline>
</glyph>
<glyph name="numbersign" format="1">
  <advance width="1233"/>
  <unicode hex="0023"/>
  <outline>
    <contour>
      <point x="515" y="628" type="line"/>
      <point x="720" y="628" type="line"/>
      <point x="679" y="335" type="line"/>
      <point x="472" y="335" type="line"/>
    </contour>
    <contour>
      <point x="782" y="-72" type="line"/>
      <point x="819" y="185" type="line"/>
      <point x="1010" y="185" type="line"/>
      <point x="1036" y="335" type="line"/>
      <point x="842" y="335" type="line"/>
      <point x="884" y="628" type="line"/>
      <point x="1087" y="628" type="line"/>
      <point x="1113" y="778" type="line"/>
      <point x="906" y="778" type="line"/>
      <point x="950" y="1084" type="line"/>
      <point x="786" y="1080" type="line"/>
      <point x="742" y="778" type="line"/>
      <point x="536" y="778" type="line"/>
      <point x="579" y="1076" type="line"/>
      <point x="415" y="1073" type="line"/>
      <point x="373" y="778" type="line"/>
      <point x="191" y="778" type="line"/>
      <point x="173" y="628" type="line"/>
      <point x="351" y="628" type="line"/>
      <point x="309" y="335" type="line"/>
      <point x="138" y="335" type="line"/>
      <point x="120" y="185" type="line"/>
      <point x="286" y="185" type="line"/>
      <point x="249" y="-70" type="line"/>
      <point x="413" y="-70" type="line"/>
      <point x="450" y="185" type="line"/>
      <point x="657" y="185" type="line"/>
      <point x="619" y="-71" type="line"/>
    </contour>
  </outline>
</glyph>
<glyph name="quotesingle" format="1">
  <advance width="426"/>
  <unicode hex="0027"/>
  <outline>
    <contour>
      <point x="274" y="1113" type="line"/>
      <point x="306" y="1586" type="line"/>
      <point x="122" y="1590" type="line"/>
      <point x="120" y="1118" type="line"/>
    </contour>
  </outline>
</glyph>
<glyph name="asterisk" format="1">
  <advance width="1063"/>
  <unicode hex="002A"/>
  <outline>
    <contour>
      <point x="620" y="168" type="line"/>
      <point x="614" y="293" type="line"/>
      <point x="697" y="202" type="line"/>
      <point x="821" y="321" type="line"/>
      <point x="822" y="320" type="line"/>
      <point x="723" y="410" type="line"/>
      <point x="853" y="405" type="line"/>
      <point x="852" y="573" type="line"/>
      <point x="723" y="567" type="line"/>
      <point x="822" y="657" type="line"/>
      <point x="697" y="776" type="line"/>
      <point x="618" y="689" type="line"/>
      <point x="624" y="810" type="line"/>
      <point x="449" y="809" type="line"/>
      <point x="453" y="686" type="line"/>
      <point x="368" y="778" type="line"/>
      <point x="244" y="660" type="line"/>
      <point x="346" y="567" type="line"/>
      <point x="202" y="567" type="line"/>
      <point x="203" y="410" type="line"/>
      <point x="341" y="410" type="line"/>
      <point x="242" y="320" type="line"/>
      <point x="366" y="202" type="line"/>
      <point x="449" y="293" type="line"/>
      <point x="444" y="167" type="line"/>
    </contour>
    <contour>
      <point x="481" y="388"/>
      <point x="436" y="436"/>
      <point x="436" y="491" type="curve" smooth="yes"/>
      <point x="436" y="545"/>
      <point x="481" y="593"/>
      <point x="532" y="593" type="curve" smooth="yes"/>
      <point x="584" y="593"/>
      <point x="629" y="546"/>
      <point x="629" y="491" type="curve" smooth="yes"/>
      <point x="629" y="438"/>
      <point x="582" y="388"/>
      <point x="532" y="388" type="curve" smooth="yes"/>
    </contour>
  </outline>
</glyph>
<glyph name="hyphen" format="1">
  <advance width="792"/>
  <unicode hex="002D"/>
  <outline>
    <contour>
      <point x="672" y="406" type="line"/>
      <point x="672" y="572" type="line"/>
      <point x="120" y="572" type="line"/>
      <point x="120" y="406" type="line"/>
    </contour>
  </outline>
</glyph>
<glyph name="period" format="1">
  <advance width="643"/>
  <unicode hex="002E"/>
  <outline>
    <contour>
      <point x="371" y="-84" type="line"/>
      <point x="532" y="156" type="line"/>
      <point x="292" y="319" type="line"/>
      <point x="130" y="78" type="line"/>
    </contour>
  </outline>
</glyph>
<glyph name="slash" format="1">
  <advance width="1054"/>
  <unicode hex="002F"/>
  <outline>
    <contour>
      <point x="281" y="-367" type="line"/>
      <point x="934" y="1324" type="line"/>
      <point x="772" y="1344" type="line"/>
      <point x="120" y="-346" type="line"/>
    </contour>
  </outline>
</glyph>
<glyph name="semicolon" format="1">
  <advance width="561"/>
  <unicode hex="003B"/>
  <outline>
    <contour>
      <point x="154" y="341" type="line"/>
      <point x="206" y="311"/>
      <point x="255" y="266"/>
      <point x="255" y="228" type="curve" smooth="yes"/>
      <point x="255" y="198"/>
      <point x="242" y="160"/>
      <point x="216" y="115" type="curve" smooth="yes"/>
      <point x="154" y="5" type="line"/>
      <point x="277" y="-55" type="line"/>
      <point x="328" y="43" type="line" smooth="yes"/>
      <point x="371" y="126"/>
      <point x="426" y="227"/>
      <point x="426" y="323" type="curve" smooth="yes"/>
      <point x="426" y="405"/>
      <point x="356" y="489"/>
      <point x="275" y="538" type="curve"/>
    </contour>
    <component base="period" xOffset="25" yOffset="837" xScale="0.795" yScale="0.795"/>
  </outline>
</glyph>
<glyph name="at" format="1">
  <advance width="1389"/>
  <unicode hex="0040"/>
  <outline>
    <contour>
      <point x="866" y="-105"/>
      <point x="966" y="-84"/>
      <point x="1050" y="-41" type="curve"/>
      <point x="1004" y="84" type="line"/>
      <point x="931" y="48"/>
      <point x="846" y="30"/>
      <point x="747" y="30" type="curve" smooth="yes"/>
      <point x="438" y="30"/>
      <point x="262" y="188"/>
      <point x="262" y="463" type="curve" smooth="yes"/>
      <point x="262" y="745"/>
      <point x="459" y="949"/>
      <point x="730" y="949" type="curve" smooth="yes"/>
      <point x="958" y="949"/>
      <point x="1126" y="801"/>
      <point x="1126" y="598" type="curve" smooth="yes"/>
      <point x="1126" y="465"/>
      <point x="1013" y="294"/>
      <point x="925" y="294" type="curve" smooth="yes"/>
      <point x="909" y="294"/>
      <point x="908" y="306"/>
      <point x="929" y="397" type="curve" smooth="yes"/>
      <point x="1020" y="818" type="line"/>
      <point x="862" y="844" type="line"/>
      <point x="846" y="769" type="line"/>
      <point x="801" y="815"/>
      <point x="743" y="841"/>
      <point x="681" y="841" type="curve" smooth="yes"/>
      <point x="504" y="841"/>
      <point x="350" y="651"/>
      <point x="350" y="437" type="curve" smooth="yes"/>
      <point x="350" y="265"/>
      <point x="448" y="148"/>
      <point x="593" y="148" type="curve" smooth="yes"/>
      <point x="653" y="148"/>
      <point x="715" y="174"/>
      <point x="769" y="221" type="curve"/>
      <point x="791" y="178"/>
      <point x="837" y="147"/>
      <point x="885" y="147" type="curve" smooth="yes"/>
      <point x="1083" y="147"/>
      <point x="1269" y="365"/>
      <point x="1269" y="597" type="curve" smooth="yes"/>
      <point x="1269" y="880"/>
      <point x="1045" y="1083"/>
      <point x="735" y="1083" type="curve" smooth="yes"/>
      <point x="375" y="1083"/>
      <point x="120" y="822"/>
      <point x="120" y="453" type="curve" smooth="yes"/>
      <point x="120" y="107"/>
      <point x="359" y="-105"/>
      <point x="748" y="-105" type="curve" smooth="yes"/>
    </contour>
    <contour>
      <point x="501" y="563"/>
      <point x="595" y="706"/>
      <point x="688" y="706" type="curve" smooth="yes"/>
      <point x="756" y="706"/>
      <point x="810" y="642"/>
      <point x="810" y="560" type="curve" smooth="yes"/>
      <point x="810" y="403"/>
      <point x="723" y="280"/>
      <point x="615" y="280" type="curve" smooth="yes"/>
      <point x="546" y="280"/>
      <point x="501" y="336"/>
      <point x="501" y="423" type="curve" smooth="yes"/>
    </contour>
  </outline>
</glyph>
<glyph name="bracketright" format="1">
  <advance width="588"/>
  <unicode hex="005D"/>
  <outline>
    <contour>
      <point x="423" y="-535" type="line" smooth="yes"/>
      <point x="448" y="-535"/>
      <point x="468" y="-517"/>
      <point x="468" y="-495" type="curve" smooth="yes"/>
      <point x="468" y="1474" type="line" smooth="yes"/>
      <point x="468" y="1496"/>
      <point x="447" y="1514"/>
      <point x="423" y="1514" type="curve" smooth="yes"/>
      <point x="120" y="1514" type="line"/>
      <point x="120" y="1379" type="line"/>
      <point x="291" y="1379" type="line"/>
      <point x="291" y="-401" type="line"/>
      <point x="120" y="-401" type="line"/>
      <point x="120" y="-535" type="line"/>
    </contour>
  </outline>
</glyph>
<glyph name="bar" format="1">
  <advance width="416"/>
  <unicode hex="007C"/>
  <outline>
    <contour>
      <point x="296" y="-535" type="line"/>
      <point x="296" y="1514" type="line"/>
      <point x="120" y="1514" type="line"/>
      <point x="120" y="-535" type="line"/>
    </contour>
  </outline>
</glyph>
<glyph name="guillemetleft" format="1">
  <advance width="962"/>
  <unicode hex="00AB"/>
  <outline>
    <contour>
      <point x="120" y="89"/>
      <point x="260" y="-53"/>
      <point x="435" y="-123" type="curve"/>
      <point x="532" y="9" type="line"/>
      <point x="581" y="-40"/>
      <point x="705" y="-114"/>
      <point x="750" y="-124" type="curve"/>
      <point x="842" y="111" type="line"/>
      <point x="694" y="169"/>
      <point x="633" y="231"/>
      <point x="633" y="323" type="curve" smooth="yes"/>
      <point x="633" y="442"/>
      <point x="743" y="616"/>
      <point x="795" y="716" type="curve"/>
      <point x="650" y="786" type="line"/>
      <point x="546" y="607"/>
      <point x="434" y="416"/>
      <point x="434" y="247" type="curve" smooth="yes"/>
      <point x="434" y="212"/>
      <point x="439" y="180"/>
      <point x="448" y="147" type="curve"/>
      <point x="359" y="195"/>
      <point x="320" y="248"/>
      <point x="320" y="322" type="curve" smooth="yes"/>
      <point x="320" y="450"/>
      <point x="446" y="642"/>
      <point x="492" y="736" type="curve"/>
      <point x="345" y="803" type="line"/>
      <point x="239" y="619"/>
      <point x="120" y="422"/>
      <point x="120" y="247" type="curve" smooth="yes"/>
    </contour>
  </outline>
</glyph>
<glyph name="degree" format="1">
  <advance width="848"/>
  <unicode hex="00B0"/>
  <outline>
    <contour>
      <point x="592" y="1013"/>
      <point x="728" y="1147"/>
      <point x="728" y="1313" type="curve" smooth="yes"/>
      <point x="728" y="1479"/>
      <point x="593" y="1613"/>
      <point x="424" y="1613" type="curve" smooth="yes"/>
      <point x="255" y="1613"/>
      <point x="120" y="1480"/>
      <point x="120" y="1313" type="curve" smooth="yes"/>
      <point x="120" y="1147"/>
      <point x="255" y="1013"/>
      <point x="424" y="1013" type="curve" smooth="yes"/>
    </contour>
    <contour>
      <point x="332" y="1143"/>
      <point x="257" y="1220"/>
      <point x="257" y="1313" type="curve" smooth="yes"/>
      <point x="257" y="1407"/>
      <point x="332" y="1483"/>
      <point x="424" y="1483" type="curve" smooth="yes"/>
      <point x="516" y="1483"/>
      <point x="590" y="1407"/>
      <point x="590" y="1313" type="curve" smooth="yes"/>
      <point x="590" y="1219"/>
      <point x="516" y="1143"/>
      <point x="424" y="1143" type="curve" smooth="yes"/>
    </contour>
  </outline>
</glyph>
<glyph name="multiply" format="1">
  <advance width="1280"/>
  <unicode hex="00D7"/>
  <outline>
    <contour>
      <point x="642" y="371" type="line"/>
      <point x="1019" y="-55" type="line"/>
      <point x="1160" y="54" type="line"/>
      <point x="759" y="502" type="line"/>
      <point x="1130" y="919" type="line"/>
      <point x="998" y="1032" type="line"/>
      <point x="641" y="634" type="line"/>
      <point x="285" y="1032" type="line"/>
      <point x="153" y="919" type="line"/>
      <point x="524" y="502" type="line"/>
      <point x="120" y="51" type="line"/>
      <point x="264" y="-53" type="line"/>
    </contour>
  </outline>
</glyph>
<glyph name="divide" format="1">
  <advance width="1225"/>
  <unicode hex="00F7"/>
  <outline>
    <contour>
      <point x="1105" y="360" type="line"/>
      <point x="1105" y="556" type="line"/>
      <point x="120" y="556" type="line"/>
      <point x="120" y="360" type="line"/>
    </contour>
    <contour>
      <point x="690" y="-81"/>
      <point x="746" y="-28"/>
      <point x="746" y="36" type="curve" smooth="yes"/>
      <point x="746" y="102"/>
      <point x="691" y="156"/>
      <point x="623" y="156" type="curve" smooth="yes"/>
      <point x="556" y="156"/>
      <point x="501" y="102"/>
      <point x="501" y="36" type="curve" smooth="yes"/>
      <point x="501" y="-27"/>
      <point x="557" y="-81"/>
      <point x="623" y="-81" type="curve" smooth="yes"/>
    </contour>
    <contour>
      <point x="691" y="821"/>
      <point x="746" y="875"/>
      <point x="746" y="941" type="curve" smooth="yes"/>
      <point x="746" y="1005"/>
      <point x="691" y="1058"/>
      <point x="623" y="1058" type="curve" smooth="yes"/>
      <point x="556" y="1058"/>
      <point x="501" y="1005"/>
      <point x="501" y="941" type="curve" smooth="yes"/>
      <point x="501" y="875"/>
      <point x="556" y="821"/>
      <point x="623" y="821" type="curve" smooth="yes"/>
    </contour>
  </outline>
</glyph>
<glyph name="caron" format="1">
  <advance width="684"/>
  <unicode hex="02C7"/>
  <outline>
    <contour>
      <point x="452" y="1425" type="line"/>
      <point x="377" y="1229" type="line"/>
      <point x="261" y="1436" type="line"/>
      <point x="120" y="1364" type="line"/>
      <point x="304" y="974" type="line"/>
      <point x="433" y="1011" type="line"/>
      <point x="564" y="1360" type="line"/>
    </contour>
  </outline>
</glyph>
<glyph name="lowringmod" format="1">
  <advance width="799"/>
  <unicode hex="02F3"/>
  <outline>
    <contour>
      <point x="554" y="-476"/>
      <point x="679" y="-353"/>
      <point x="679" y="-199" type="curve" smooth="yes"/>
      <point x="679" y="-47"/>
      <point x="553" y="76"/>
      <point x="399" y="76" type="curve" smooth="yes"/>
      <point x="246" y="76"/>
      <point x="120" y="-48"/>
      <point x="120" y="-199" type="curve" smooth="yes"/>
      <point x="120" y="-352"/>
      <point x="244" y="-476"/>
      <point x="399" y="-476" type="curve" smooth="yes"/>
    </contour>
    <contour>
      <point x="317" y="-352"/>
      <point x="251" y="-284"/>
      <point x="251" y="-198" type="curve" smooth="yes"/>
      <point x="251" y="-114"/>
      <point x="317" y="-46"/>
      <point x="399" y="-46" type="curve" smooth="yes"/>
      <point x="481" y="-46"/>
      <point x="548" y="-115"/>
      <point x="548" y="-198" type="curve" smooth="yes"/>
      <point x="548" y="-283"/>
      <point x="482" y="-352"/>
      <point x="399" y="-352" type="curve" smooth="yes"/>
    </contour>
  </outline>
</glyph>
<glyph name="comma-ar" format="1">
  <advance width="523"/>
  <unicode hex="060C"/>
  <outline>
    <contour>
      <point x="376" y="175" type="line"/>
      <point x="321" y="196"/>
      <point x="299" y="220"/>
      <point x="299" y="259" type="curve" smooth="yes"/>
      <point x="299" y="305"/>
      <point x="316" y="338"/>
      <point x="403" y="502" type="curve"/>
      <point x="274" y="555" type="line"/>
      <point x="153" y="335"/>
      <point x="120" y="264"/>
      <point x="120" y="162" type="curve" smooth="yes"/>
      <point x="120" y="69"/>
      <point x="168" y="1"/>
      <point x="262" y="-37" type="curve"/>
    </contour>
  </outline>
</glyph>
<glyph name="tahabove-ar" format="1">
  <advance width="0"/>
  <unicode hex="0615"/>
  <outline>
    <contour>
      <point x="323" y="927"/>
      <point x="253" y="914"/>
      <point x="173" y="911" type="curve"/>
      <point x="241" y="978"/>
      <point x="269" y="995"/>
      <point x="304" y="995" type="curve" smooth="yes"/>
      <point x="335" y="995"/>
      <point x="363" y="979"/>
      <point x="381" y="951" type="curve"/>
    </contour>
    <contour>
      <point x="18" y="794" type="line"/>
      <point x="137" y="789" type="line"/>
      <point x="346" y="789"/>
      <point x="489" y="854"/>
      <point x="489" y="958" type="curve" smooth="yes"/>
      <point x="489" y="1040"/>
      <point x="412" y="1117"/>
      <point x="327" y="1117" type="curve" smooth="yes"/>
      <point x="286" y="1118"/>
      <point x="241" y="1100"/>
      <point x="194" y="1064" type="curve"/>
      <point x="189" y="1242" type="line"/>
      <point x="64" y="1213" type="line"/>
      <point x="71" y="921" type="line"/>
      <point x="0" y="924" type="line"/>
    </contour>
    <contour>
      <point x="244" y="1444" type="move" name="top"/>
    </contour>
    <contour>
      <point x="244" y="789" type="move" name="_top"/>
    </contour>
  </outline>
</glyph>
<glyph name="alefLamYehabove-ar" format="1">
  <advance width="0"/>
  <unicode hex="0616"/>
  <outline>
    <contour>
      <point x="317" y="1159" type="line"/>
      <point x="345" y="733" type="line"/>
      <point x="242" y="707"/>
      <point x="133" y="678"/>
      <point x="63" y="598" type="curve" smooth="yes"/>
      <point x="27" y="557"/>
      <point x="0" y="497"/>
      <point x="0" y="457" type="curve" smooth="yes"/>
      <point x="0" y="363"/>
      <point x="109" y="355"/>
      <point x="232" y="355" type="curve" smooth="yes"/>
      <point x="323" y="355"/>
      <point x="570" y="367"/>
      <point x="815" y="382" type="curve"/>
      <point x="833" y="494" type="line"/>
      <point x="834" y="494" type="line"/>
      <point x="663" y="481"/>
      <point x="444" y="469"/>
      <point x="280" y="469" type="curve" smooth="yes"/>
      <point x="203" y="469"/>
      <point x="125" y="474"/>
      <point x="77" y="484" type="curve"/>
      <point x="116" y="574"/>
      <point x="256" y="601"/>
      <point x="364" y="626" type="curve"/>
      <point x="365" y="626" type="line"/>
      <point x="456" y="653"/>
      <point x="432" y="836"/>
      <point x="431" y="1131" type="curve"/>
      <point x="452" y="1099"/>
      <point x="465" y="1066"/>
      <point x="465" y="1010" type="curve"/>
      <point x="468" y="562" type="line"/>
      <point x="569" y="606" type="line"/>
      <point x="571" y="1029" type="line"/>
      <point x="571" y="1137"/>
      <point x="537" y="1188"/>
      <point x="488" y="1254" type="curve"/>
    </contour>
    <contour>
      <point x="417" y="1442" type="move" name="top"/>
    </contour>
    <contour>
      <point x="417" y="355" type="move" name="_top"/>
    </contour>
  </outline>
</glyph>
<glyph name="question-ar" format="1">
  <advance width="867"/>
  <unicode hex="061F"/>
  <outline>
    <contour>
      <point x="609" y="365" type="line"/>
      <point x="612" y="476" type="line" smooth="yes"/>
      <point x="618" y="714"/>
      <point x="529" y="721"/>
      <point x="259" y="956" type="curve"/>
      <point x="341" y="1110"/>
      <point x="477" y="1138"/>
      <point x="661" y="1052" type="curve"/>
      <point x="702" y="1230" type="line"/>
      <point x="639" y="1278"/>
      <point x="560" y="1305"/>
      <point x="481" y="1305" type="curve" smooth="yes"/>
      <point x="276" y="1305"/>
      <point x="120" y="1142"/>
      <point x="120" y="924" type="curve" smooth="yes"/>
      <point x="120" y="757"/>
      <point x="240" y="711"/>
      <point x="353" y="604" type="curve" smooth="yes"/>
      <point x="424" y="537"/>
      <point x="451" y="514"/>
      <point x="449" y="428" type="curve" smooth="yes"/>
      <point x="447" y="335" type="line"/>
    </contour>
    <component base="period" xOffset="259" yOffset="-70" xScale="0.876" yScale="0.876"/>
  </outline>
</glyph>
<glyph name="hamza-ar" format="1">
  <advance width="974"/>
  <unicode hex="0621"/>
  <outline>
    <contour>
      <point x="263" y="-22" type="line"/>
      <point x="834" y="301" type="line"/>
      <point x="809" y="472" type="line"/>
      <point x="494" y="285" type="line" smooth="yes"/>
      <point x="489" y="282"/>
      <point x="484" y="283"/>
      <point x="481" y="286" type="curve" smooth="yes"/>
      <point x="290" y="462" type="line" smooth="yes"/>
      <point x="285" y="467"/>
      <point x="285" y="468"/>
      <point x="289" y="471" type="curve" smooth="yes"/>
      <point x="395" y="551"/>
      <point x="488" y="597"/>
      <point x="612" y="597" type="curve" smooth="yes"/>
      <point x="621" y="597"/>
      <point x="629" y="597"/>
      <point x="637" y="597" type="curve"/>
      <point x="607" y="743" type="line"/>
      <point x="581" y="748"/>
      <point x="556" y="750"/>
      <point x="531" y="750" type="curve" smooth="yes"/>
      <point x="344" y="750"/>
      <point x="180" y="620"/>
      <point x="180" y="445" type="curve" smooth="yes"/>
      <point x="180" y="349"/>
      <point x="282" y="247"/>
      <point x="350" y="196" type="curve" smooth="yes"/>
      <point x="354" y="193"/>
      <point x="355" y="191"/>
      <point x="349" y="188" type="curve" smooth="yes"/>
      <point x="244" y="125" type="line"/>
    </contour>
    <contour>
      <point x="513" y="960" type="move" name="top"/>
    </contour>
    <contour>
      <point x="564" y="-180" type="move" name="bottom"/>
    </contour>
  </outline>
</glyph>
<glyph name="alef-ar" format="1">
  <advance width="553"/>
  <unicode hex="0627"/>
  <outline>
    <contour>
      <point x="413" y="0" type="line"/>
      <point x="405" y="1447" type="line"/>
      <point x="180" y="1381" type="line"/>
      <point x="236" y="-27" type="line"/>
    </contour>
    <contour>
      <point x="302" y="1656" type="move" name="top"/>
    </contour>
    <contour>
      <point x="325" y="-229" type="move" name="bottom"/>
    </contour>
  </outline>
</glyph>
<glyph name="theh-ar" format="1">
  <advance width="1832"/>
  <unicode hex="062B"/>
  <outline>
    <component base="behDotless-ar"/>
    <component base="threedotsupabove-ar" xOffset="523" yOffset="266"/>
    <contour>
      <point x="755" y="-240" type="move" name="bottom"/>
    </contour>
  </outline>
</glyph>
<glyph name="hah-ar" format="1">
  <advance width="1408"/>
  <unicode hex="062D"/>
  <outline>
    <contour>
      <point x="1238" y="-437" type="line"/>
      <point x="1159" y="-452"/>
      <point x="1016" y="-481"/>
      <point x="845" y="-481" type="curve" smooth="yes"/>
      <point x="529" y="-481"/>
      <point x="349" y="-365"/>
      <point x="349" y="-162" type="curve" smooth="yes"/>
      <point x="349" y="198"/>
      <point x="702" y="455"/>
      <point x="1208" y="467" type="curve"/>
      <point x="1268" y="710" type="line"/>
      <point x="1149" y="713" type="line"/>
      <point x="817" y="723"/>
      <point x="669" y="865"/>
      <point x="478" y="865" type="curve" smooth="yes"/>
      <point x="410" y="865"/>
      <point x="308" y="801"/>
      <point x="222" y="710" type="curve"/>
      <point x="314" y="551" type="line"/>
      <point x="377" y="604"/>
      <point x="431" y="644"/>
      <point x="473" y="644" type="curve" smooth="yes"/>
      <point x="504" y="644"/>
      <point x="509" y="642"/>
      <point x="742" y="574" type="curve"/>
      <point x="417" y="475"/>
      <point x="180" y="169"/>
      <point x="180" y="-178" type="curve" smooth="yes"/>
      <point x="180" y="-537"/>
      <point x="369" y="-713"/>
      <point x="755" y="-713" type="curve" smooth="yes"/>
      <point x="870" y="-713"/>
      <point x="1082" y="-690"/>
      <point x="1181" y="-659" type="curve"/>
    </contour>
    <contour>
      <point x="839" y="-60" type="move" name="center"/>
    </contour>
    <contour>
      <point x="756" y="-913" type="move" name="bottom"/>
    </contour>
    <contour>
      <point x="479" y="1068" type="move" name="top"/>
    </contour>
  </outline>
</glyph>
<glyph name="dal-ar" format="1">
  <advance width="1187"/>
  <unicode hex="062F"/>
  <outline>
    <contour>
      <point x="608" y="-38"/>
      <point x="876" y="8"/>
      <point x="964" y="71" type="curve" smooth="yes"/>
      <point x="1020" y="111"/>
      <point x="1047" y="176"/>
      <point x="1047" y="271" type="curve" smooth="yes"/>
      <point x="1047" y="465"/>
      <point x="957" y="577"/>
      <point x="705" y="978" type="curve"/>
      <point x="561" y="795" type="line"/>
      <point x="805" y="429"/>
      <point x="863" y="319"/>
      <point x="882" y="246" type="curve"/>
      <point x="766" y="206"/>
      <point x="624" y="183"/>
      <point x="500" y="183" type="curve" smooth="yes"/>
      <point x="347" y="183"/>
      <point x="347" y="183"/>
      <point x="337" y="338" type="curve"/>
      <point x="185" y="340" type="line"/>
      <point x="183" y="307"/>
      <point x="180" y="274"/>
      <point x="180" y="242" type="curve" smooth="yes"/>
      <point x="180" y="49"/>
      <point x="270" y="-38"/>
      <point x="472" y="-38" type="curve" smooth="yes"/>
    </contour>
    <contour>
      <point x="690" y="1176" type="move" name="top"/>
    </contour>
    <contour>
      <point x="516" y="-235" type="move" name="bottom"/>
    </contour>
    <contour>
      <point x="985" y="-109" type="move" name="ring"/>
    </contour>
  </outline>
</glyph>
<glyph name="reh-ar" format="1">
  <advance width="914"/>
  <unicode hex="0631"/>
  <outline>
    <contour>
      <point x="-43" y="-371" type="line"/>
      <point x="92" y="-415"/>
      <point x="191" y="-435"/>
      <point x="276" y="-435" type="curve" smooth="yes"/>
      <point x="350" y="-435"/>
      <point x="416" y="-419"/>
      <point x="477" y="-386" type="curve" smooth="yes"/>
      <point x="634" y="-297"/>
      <point x="774" y="-28"/>
      <point x="774" y="180" type="curve" smooth="yes"/>
      <point x="774" y="315"/>
      <point x="715" y="498"/>
      <point x="666" y="689" type="curve"/>
      <point x="479" y="571" type="line"/>
      <point x="618" y="127" type="line"/>
      <point x="511" y="-130"/>
      <point x="375" y="-239"/>
      <point x="164" y="-239" type="curve" smooth="yes"/>
      <point x="109" y="-239"/>
      <point x="53" y="-232"/>
      <point x="-6" y="-220" type="curve"/>
    </contour>
    <contour>
      <point x="593" y="869" type="move" name="top"/>
    </contour>
    <contour>
      <point x="287" y="-634" type="move" name="bottom"/>
    </contour>
    <contour>
      <point x="639" y="-459" type="move" name="ring"/>
    </contour>
  </outline>
</glyph>
<glyph name="seen-ar" format="1">
  <advance width="2623"/>
  <unicode hex="0633"/>
  <outline>
    <contour>
      <point x="180" y="-350"/>
      <point x="336" y="-506"/>
      <point x="610" y="-506" type="curve" smooth="yes"/>
      <point x="831" y="-506"/>
      <point x="1190" y="-412"/>
      <point x="1310" y="-245" type="curve" smooth="yes"/>
      <point x="1341" y="-202"/>
      <point x="1355" y="-153"/>
      <point x="1355" y="-80" type="curve" smooth="yes"/>
      <point x="1355" y="-51"/>
      <point x="1354" y="-20"/>
      <point x="1351" y="13" type="curve"/>
      <point x="1391" y="4"/>
      <point x="1444" y="-1"/>
      <point x="1498" y="-1" type="curve" smooth="yes"/>
      <point x="1644" y="-1"/>
      <point x="1776" y="33"/>
      <point x="1837" y="86" type="curve"/>
      <point x="1941" y="27"/>
      <point x="2052" y="-3"/>
      <point x="2164" y="-3" type="curve" smooth="yes"/>
      <point x="2403" y="-3"/>
      <point x="2490" y="87"/>
      <point x="2483" y="325" type="curve" smooth="yes"/>
      <point x="2480" y="424"/>
      <point x="2449" y="677"/>
      <point x="2409" y="841" type="curve"/>
      <point x="2223" y="722" type="line"/>
      <point x="2331" y="231" type="line"/>
      <point x="2276" y="221"/>
      <point x="2229" y="216"/>
      <point x="2183" y="216" type="curve" smooth="yes"/>
      <point x="2101" y="216"/>
      <point x="2024" y="232"/>
      <point x="1946" y="265" type="curve"/>
      <point x="1984" y="592" type="line"/>
      <point x="1821" y="609" type="line"/>
      <point x="1787" y="366" type="line" smooth="yes"/>
      <point x="1772" y="262"/>
      <point x="1705" y="222"/>
      <point x="1539" y="222" type="curve" smooth="yes"/>
      <point x="1377" y="222"/>
      <point x="1326" y="245"/>
      <point x="1316" y="322" type="curve" smooth="yes"/>
      <point x="1280" y="599" type="line"/>
      <point x="1280" y="600" type="line"/>
      <point x="1076" y="496" type="line"/>
      <point x="1178" y="-138" type="line"/>
      <point x="1107" y="-170"/>
      <point x="872" y="-262"/>
      <point x="636" y="-262" type="curve" smooth="yes"/>
      <point x="449" y="-262"/>
      <point x="354" y="-178"/>
      <point x="354" y="-15" type="curve" smooth="yes"/>
      <point x="354" y="40"/>
      <point x="361" y="66"/>
      <point x="397" y="266" type="curve"/>
      <point x="234" y="291" type="line"/>
      <point x="234" y="292" type="line"/>
      <point x="187" y="37"/>
      <point x="180" y="9"/>
      <point x="180" y="-76" type="curve" smooth="yes"/>
    </contour>
    <contour>
      <point x="1187" y="-134" type="line"/>
      <point x="1186" y="-135" type="line"/>
    </contour>
    <contour>
      <point x="697" y="668" type="move" name="top"/>
    </contour>
    <contour>
      <point x="613" y="-705" type="move" name="bottom"/>
    </contour>
  </outline>
</glyph>
<glyph name="sad-ar" format="1">
  <advance width="2674"/>
  <unicode hex="0635"/>
  <outline>
    <contour>
      <point x="180" y="-371"/>
      <point x="331" y="-515"/>
      <point x="611" y="-515" type="curve" smooth="yes"/>
      <point x="833" y="-515"/>
      <point x="1191" y="-412"/>
      <point x="1311" y="-256" type="curve" smooth="yes"/>
      <point x="1345" y="-212"/>
      <point x="1356" y="-170"/>
      <point x="1356" y="-93" type="curve" smooth="yes"/>
      <point x="1356" y="-54"/>
      <point x="1354" y="-5"/>
      <point x="1349" y="53" type="curve"/>
      <point x="1451" y="8"/>
      <point x="1605" y="-17"/>
      <point x="1775" y="-17" type="curve" smooth="yes"/>
      <point x="2075" y="-17"/>
      <point x="2351" y="58"/>
      <point x="2464" y="171" type="curve"/>
      <point x="2510" y="223"/>
      <point x="2534" y="288"/>
      <point x="2534" y="359" type="curve" smooth="yes"/>
      <point x="2534" y="582"/>
      <point x="2316" y="794"/>
      <point x="2082" y="795" type="curve" smooth="yes"/>
      <point x="1910" y="796"/>
      <point x="1691" y="727"/>
      <point x="1343" y="307" type="curve"/>
      <point x="1310" y="358"/>
      <point x="1308" y="447"/>
      <point x="1294" y="577" type="curve"/>
      <point x="1294" y="578" type="line"/>
      <point x="1091" y="494" type="line"/>
      <point x="1180" y="-148" type="line"/>
      <point x="1097" y="-187"/>
      <point x="917" y="-271"/>
      <point x="638" y="-271" type="curve" smooth="yes"/>
      <point x="446" y="-271"/>
      <point x="355" y="-192"/>
      <point x="355" y="-28" type="curve" smooth="yes"/>
      <point x="355" y="22"/>
      <point x="361" y="48"/>
      <point x="398" y="256" type="curve"/>
      <point x="235" y="281" type="line"/>
      <point x="235" y="282" type="line"/>
      <point x="188" y="27"/>
      <point x="180" y="-17"/>
      <point x="180" y="-103" type="curve" smooth="yes"/>
    </contour>
    <contour>
      <point x="1694" y="486"/>
      <point x="1835" y="576"/>
      <point x="2006" y="576" type="curve" smooth="yes"/>
      <point x="2186" y="576"/>
      <point x="2327" y="407"/>
      <point x="2372" y="322" type="curve"/>
      <point x="2236" y="243"/>
      <point x="2047" y="200"/>
      <point x="1837" y="200" type="curve" smooth="yes"/>
      <point x="1714" y="200"/>
      <point x="1593" y="214"/>
      <point x="1485" y="241" type="curve"/>
    </contour>
    <contour>
      <point x="726" y="594" type="move" name="top"/>
    </contour>
    <contour>
      <point x="622" y="-714" type="move" name="bottom"/>
    </contour>
  </outline>
</glyph>
<glyph name="tah-ar" format="1">
  <advance width="1720"/>
  <unicode hex="0637"/>
  <outline>
    <contour>
      <point x="826" y="550"/>
      <point x="925" y="618"/>
      <point x="1069" y="618" type="curve" smooth="yes"/>
      <point x="1184" y="618"/>
      <point x="1343" y="473"/>
      <point x="1411" y="382" type="curve"/>
      <point x="1185" y="269"/>
      <point x="883" y="213"/>
      <point x="592" y="220" type="curve" smooth="yes"/>
      <point x="506" y="222" type="line"/>
    </contour>
    <contour>
      <point x="217" y="-4" type="line"/>
      <point x="310" y="-12"/>
      <point x="479" y="-21"/>
      <point x="552" y="-21" type="curve" smooth="yes"/>
      <point x="955" y="-21"/>
      <point x="1580" y="78"/>
      <point x="1580" y="431" type="curve" smooth="yes"/>
      <point x="1580" y="643"/>
      <point x="1366" y="853"/>
      <point x="1147" y="854" type="curve" smooth="yes"/>
      <point x="992" y="855"/>
      <point x="818" y="762"/>
      <point x="636" y="581" type="curve"/>
      <point x="642" y="626"/>
      <point x="645" y="679"/>
      <point x="645" y="749" type="curve"/>
      <point x="625" y="1473" type="line"/>
      <point x="400" y="1384" type="line"/>
      <point x="449" y="568" type="line"/>
      <point x="455" y="400"/>
      <point x="427" y="343"/>
      <point x="319" y="232" type="curve"/>
      <point x="248" y="236"/>
      <point x="248" y="236"/>
      <point x="180" y="245" type="curve"/>
    </contour>
    <contour>
      <point x="1149" y="1039" type="move" name="top"/>
    </contour>
    <contour>
      <point x="746" y="-213" type="move" name="bottom"/>
    </contour>
  </outline>
</glyph>
<glyph name="ain-ar" format="1">
  <advance width="1224"/>
  <unicode hex="0639"/>
  <outline>
    <contour>
      <point x="1213" y="-431" type="line"/>
      <point x="869" y="-485"/>
      <point x="403" y="-524"/>
      <point x="403" y="-143" type="curve" smooth="yes"/>
      <point x="403" y="177"/>
      <point x="740" y="385"/>
      <point x="1081" y="473" type="curve"/>
      <point x="1084" y="710" type="line"/>
      <point x="977" y="679"/>
      <point x="706" y="557"/>
      <point x="608" y="510" type="curve"/>
      <point x="544" y="519"/>
      <point x="364" y="787"/>
      <point x="364" y="845" type="curve"/>
      <point x="444" y="922"/>
      <point x="533" y="958"/>
      <point x="643" y="958" type="curve" smooth="yes"/>
      <point x="706" y="958"/>
      <point x="773" y="947"/>
      <point x="849" y="924" type="curve"/>
      <point x="844" y="1131" type="line"/>
      <point x="771" y="1163"/>
      <point x="693" y="1179"/>
      <point x="616" y="1179" type="curve" smooth="yes"/>
      <point x="361" y="1179"/>
      <point x="170" y="1007"/>
      <point x="180" y="782" type="curve" smooth="yes"/>
      <point x="187" y="631"/>
      <point x="262" y="500"/>
      <point x="427" y="347" type="curve"/>
      <point x="302" y="196"/>
      <point x="226" y="-4"/>
      <point x="226" y="-187" type="curve" smooth="yes"/>
      <point x="226" y="-515"/>
      <point x="398" y="-716"/>
      <point x="758" y="-716" type="curve" smooth="yes"/>
      <point x="854" y="-716"/>
      <point x="1066" y="-687"/>
      <point x="1138" y="-662" type="curve"/>
    </contour>
    <contour>
      <point x="613" y="1380" type="move" name="top"/>
    </contour>
    <contour>
      <point x="760" y="-916" type="move" name="bottom"/>
    </contour>
  </outline>
</glyph>
<glyph name="kashida-ar" format="1">
  <advance width="449"/>
  <unicode hex="0640"/>
  <outline>
    <contour>
      <point x="-15" y="223" type="line" smooth="yes"/>
      <point x="-75" y="223"/>
      <point x="-120" y="172"/>
      <point x="-120" y="112" type="curve" smooth="yes"/>
      <point x="-120" y="52"/>
      <point x="-75" y="0"/>
      <point x="-15" y="0" type="curve" smooth="yes"/>
      <point x="464" y="0" type="line"/>
      <point x="499" y="35"/>
      <point x="514" y="72"/>
      <point x="514" y="112" type="curve" smooth="yes"/>
      <point x="514" y="152"/>
      <point x="499" y="188"/>
      <point x="464" y="223" type="curve"/>
    </contour>
  </outline>
</glyph>
<glyph name="qaf-ar" format="1">
  <advance width="1646"/>
  <unicode hex="0642"/>
  <outline>
    <component base="qafDotless-ar"/>
    <component base="twodotshorizontalabove-ar" xOffset="761" yOffset="185"/>
    <contour>
      <point x="730" y="-720" type="move" name="bottom"/>
    </contour>
  </outline>
</glyph>
<glyph name="lam-ar" format="1">
  <advance width="1465"/>
  <unicode hex="0644"/>
  <outline>
    <contour>
      <point x="1065" y="1325" type="line"/>
      <point x="1145" y="-183" type="line"/>
      <point x="1079" y="-207"/>
      <point x="860" y="-282"/>
      <point x="623" y="-282" type="curve" smooth="yes"/>
      <point x="451" y="-282"/>
      <point x="353" y="-203"/>
      <point x="353" y="-66" type="curve" smooth="yes"/>
      <point x="353" y="-26"/>
      <point x="361" y="6"/>
      <point x="428" y="290" type="curve"/>
      <point x="269" y="323" type="line"/>
      <point x="192" y="12"/>
      <point x="180" y="-41"/>
      <point x="180" y="-128" type="curve" smooth="yes"/>
      <point x="180" y="-376"/>
      <point x="328" y="-519"/>
      <point x="585" y="-519" type="curve" smooth="yes"/>
      <point x="852" y="-519"/>
      <point x="1318" y="-426"/>
      <point x="1325" y="-135" type="curve"/>
      <point x="1287" y="1435" type="line"/>
    </contour>
    <contour>
      <point x="698" y="530" type="move" name="top"/>
    </contour>
    <contour>
      <point x="587" y="-718" type="move" name="bottom"/>
    </contour>
  </outline>
</glyph>
<glyph name="meem-ar" format="1">
  <advance width="1263"/>
  <unicode hex="0645"/>
  <outline>
    <contour>
      <point x="209" y="-613" type="line"/>
      <point x="420" y="-532" type="line"/>
      <point x="352" y="59" type="line"/>
      <point x="495" y="107"/>
      <point x="665" y="126"/>
      <point x="831" y="126" type="curve" smooth="yes"/>
      <point x="894" y="126"/>
      <point x="957" y="123"/>
      <point x="1024" y="117" type="curve"/>
      <point x="1123" y="423" type="line"/>
      <point x="1058" y="688"/>
      <point x="822" y="882"/>
      <point x="653" y="882" type="curve" smooth="yes"/>
      <point x="408" y="882"/>
      <point x="339" y="618"/>
      <point x="338" y="445" type="curve" smooth="yes"/>
      <point x="337" y="263" type="line"/>
      <point x="232" y="198"/>
      <point x="180" y="86"/>
      <point x="180" y="-77" type="curve" smooth="yes"/>
      <point x="180" y="-78" type="line"/>
    </contour>
    <contour>
      <point x="488" y="511"/>
      <point x="565" y="642"/>
      <point x="633" y="642" type="curve" smooth="yes"/>
      <point x="738" y="642"/>
      <point x="895" y="509"/>
      <point x="959" y="342" type="curve"/>
      <point x="767" y="353"/>
      <point x="703" y="350"/>
      <point x="521" y="320" type="curve"/>
      <point x="478" y="445" type="line"/>
    </contour>
    <contour>
      <point x="655" y="1082" type="move" name="top"/>
    </contour>
    <contour>
      <point x="328" y="-783" type="move" name="bottom"/>
    </contour>
  </outline>
</glyph>
<glyph name="heh-ar" format="1">
  <advance width="1078"/>
  <unicode hex="0647"/>
  <outline>
    <contour>
      <point x="180" y="100"/>
      <point x="296" y="-54"/>
      <point x="472" y="-54" type="curve" smooth="yes"/>
      <point x="700" y="-54"/>
      <point x="938" y="209"/>
      <point x="938" y="440" type="curve" smooth="yes"/>
      <point x="938" y="580"/>
      <point x="778" y="724"/>
      <point x="435" y="953" type="curve"/>
      <point x="237" y="637"/>
      <point x="180" y="453"/>
      <point x="180" y="302" type="curve" smooth="yes"/>
    </contour>
    <contour>
      <point x="334" y="467"/>
      <point x="368" y="561"/>
      <point x="438" y="666" type="curve"/>
      <point x="781" y="413" type="line"/>
      <point x="710" y="266"/>
      <point x="618" y="189"/>
      <point x="498" y="189" type="curve" smooth="yes"/>
      <point x="403" y="189"/>
      <point x="334" y="269"/>
      <point x="334" y="380" type="curve" smooth="yes"/>
    </contour>
    <contour>
      <point x="444" y="1151" type="move" name="top"/>
    </contour>
    <contour>
      <point x="480" y="-254" type="move" name="bottom"/>
    </contour>
  </outline>
</glyph>
<glyph name="waw-ar" format="1">
  <advance width="1079"/>
  <unicode hex="0648"/>
  <outline>
    <contour>
      <point x="706" y="-478"/>
      <point x="939" y="-169"/>
      <point x="939" y="252" type="curve" smooth="yes"/>
      <point x="939" y="603"/>
      <point x="782" y="874"/>
      <point x="573" y="874" type="curve" smooth="yes"/>
      <point x="331" y="874"/>
      <point x="180" y="547"/>
      <point x="180" y="314" type="curve" smooth="yes"/>
      <point x="180" y="97"/>
      <point x="289" y="-16"/>
      <point x="500" y="-16" type="curve" smooth="yes"/>
      <point x="565" y="-16"/>
      <point x="642" y="-5"/>
      <point x="727" y="17" type="curve"/>
      <point x="619" y="-179"/>
      <point x="471" y="-259"/>
      <point x="258" y="-259" type="curve" smooth="yes"/>
      <point x="194" y="-259"/>
      <point x="123" y="-250"/>
      <point x="43" y="-233" type="curve"/>
      <point x="-3" y="-401" type="line"/>
      <point x="154" y="-453"/>
      <point x="281" y="-478"/>
      <point x="385" y="-478" type="curve" smooth="yes"/>
    </contour>
    <contour>
      <point x="676" y="237"/>
      <point x="606" y="229"/>
      <point x="542" y="229" type="curve" smooth="yes"/>
      <point x="452" y="229"/>
      <point x="383" y="245"/>
      <point x="333" y="278" type="curve"/>
      <point x="328" y="433"/>
      <point x="435" y="629"/>
      <point x="535" y="629" type="curve" smooth="yes"/>
      <point x="630" y="629"/>
      <point x="744" y="434"/>
      <point x="753" y="253" type="curve"/>
    </contour>
    <contour>
      <point x="573" y="1082" type="move" name="top"/>
    </contour>
    <contour>
      <point x="395" y="-680" type="move" name="bottom"/>
    </contour>
  </outline>
</glyph>
<glyph name="alefMaksura-ar" format="1">
  <advance width="1645"/>
  <unicode hex="0649"/>
  <outline>
    <contour>
      <point x="1430" y="672" type="line"/>
      <point x="1389" y="689"/>
      <point x="1327" y="709"/>
      <point x="1267" y="709" type="curve" smooth="yes"/>
      <point x="1035" y="709"/>
      <point x="751" y="290"/>
      <point x="751" y="56" type="curve" smooth="yes"/>
      <point x="751" y="-65"/>
      <point x="834" y="-125"/>
      <point x="1025" y="-145" type="curve" smooth="yes"/>
      <point x="1299" y="-171" type="line"/>
      <point x="1113" y="-279"/>
      <point x="892" y="-342"/>
      <point x="696" y="-342" type="curve" smooth="yes"/>
      <point x="468" y="-342"/>
      <point x="360" y="-248"/>
      <point x="360" y="-54" type="curve" smooth="yes"/>
      <point x="360" y="36"/>
      <point x="371" y="78"/>
      <point x="427" y="295" type="curve"/>
      <point x="267" y="331" type="line"/>
      <point x="197" y="65"/>
      <point x="180" y="-5"/>
      <point x="180" y="-133" type="curve" smooth="yes"/>
      <point x="180" y="-429"/>
      <point x="348" y="-583"/>
      <point x="668" y="-583" type="curve" smooth="yes"/>
      <point x="977" y="-583"/>
      <point x="1505" y="-368"/>
      <point x="1505" y="-81" type="curve" smooth="yes"/>
      <point x="1505" y="14"/>
      <point x="1452" y="51"/>
      <point x="1305" y="63" type="curve" smooth="yes"/>
      <point x="1012" y="91"/>
      <point x="923" y="95"/>
      <point x="923" y="156" type="curve" smooth="yes"/>
      <point x="923" y="248"/>
      <point x="1159" y="481"/>
      <point x="1252" y="481" type="curve" smooth="yes"/>
      <point x="1307" y="481"/>
      <point x="1365" y="455"/>
      <point x="1396" y="439" type="curve"/>
    </contour>
    <contour>
      <point x="561" y="610" type="move" name="top"/>
    </contour>
    <contour>
      <point x="670" y="-789" type="move" name="bottom"/>
    </contour>
  </outline>
</glyph>
<glyph name="yeh-ar" format="1">
  <advance width="1645"/>
  <unicode hex="064A"/>
  <outline>
    <component base="alefMaksura-ar"/>
    <component base="twodotshorizontalbelow-ar" xOffset="331" yOffset="-619"/>
    <contour>
      <point x="591" y="640" type="move" name="top"/>
    </contour>
  </outline>
</glyph>
<glyph name="damma-ar" format="1">
  <advance width="0"/>
  <unicode hex="064F"/>
  <outline>
    <contour>
      <point x="102" y="1071"/>
      <point x="132" y="1125"/>
      <point x="161" y="1125" type="curve" smooth="yes"/>
      <point x="189" y="1125"/>
      <point x="221" y="1059"/>
      <point x="221" y="996" type="curve"/>
      <point x="220" y="982" type="line"/>
      <point x="148" y="983"/>
      <point x="102" y="997"/>
      <point x="102" y="1013" type="curve" smooth="yes"/>
    </contour>
    <contour>
      <point x="413" y="1001" type="line"/>
      <point x="326" y="999" type="line"/>
      <point x="328" y="1031" type="line"/>
      <point x="328" y="1032" type="line" smooth="yes"/>
      <point x="328" y="1167"/>
      <point x="269" y="1261"/>
      <point x="179" y="1261" type="curve" smooth="yes"/>
      <point x="89" y="1261"/>
      <point x="0" y="1133"/>
      <point x="0" y="1010" type="curve" smooth="yes"/>
      <point x="0" y="917"/>
      <point x="60" y="860"/>
      <point x="158" y="856" type="curve"/>
      <point x="107" y="788"/>
      <point x="57" y="725"/>
      <point x="25" y="686" type="curve"/>
      <point x="133" y="621" type="line"/>
      <point x="186" y="680"/>
      <point x="267" y="807"/>
      <point x="304" y="869" type="curve"/>
      <point x="379" y="869" type="line"/>
    </contour>
    <contour>
      <point x="206" y="1460" type="move" name="top"/>
    </contour>
    <contour>
      <point x="206" y="623" type="move" name="_top"/>
    </contour>
  </outline>
</glyph>
<glyph name="shadda-ar" format="1">
  <advance width="0"/>
  <unicode hex="0651"/>
  <outline>
    <contour>
      <point x="13" y="1232" type="line"/>
      <point x="0" y="1068" type="line"/>
      <point x="0" y="963"/>
      <point x="58" y="908"/>
      <point x="169" y="908" type="curve" smooth="yes"/>
      <point x="223" y="908"/>
      <point x="279" y="923"/>
      <point x="319" y="947" type="curve"/>
      <point x="350" y="931"/>
      <point x="393" y="923"/>
      <point x="439" y="922" type="curve" smooth="yes"/>
      <point x="562" y="919"/>
      <point x="631" y="987"/>
      <point x="631" y="1103" type="curve" smooth="yes"/>
      <point x="631" y="1154"/>
      <point x="625" y="1160"/>
      <point x="587" y="1329" type="curve"/>
      <point x="455" y="1286" type="line"/>
      <point x="513" y="1100" type="line"/>
      <point x="389" y="1089" type="line"/>
      <point x="381" y="1239" type="line"/>
      <point x="252" y="1235" type="line"/>
      <point x="253" y="1084" type="line"/>
      <point x="121" y="1075" type="line"/>
      <point x="130" y="1235" type="line"/>
    </contour>
    <contour>
      <point x="315" y="1494" type="move" name="top"/>
    </contour>
    <contour>
      <point x="315" y="919" type="move" name="_top"/>
    </contour>
  </outline>
</glyph>
<glyph name="madda-ar" format="1">
  <advance width="0"/>
  <unicode hex="0653"/>
  <outline>
    <contour>
      <point x="135" y="972" type="line"/>
      <point x="173" y="1046" type="line"/>
      <point x="246" y="1025"/>
      <point x="333" y="1014"/>
      <point x="421" y="1014" type="curve" smooth="yes"/>
      <point x="524" y="1014"/>
      <point x="622" y="1030"/>
      <point x="687" y="1058" type="curve"/>
      <point x="718" y="1252" type="line"/>
      <point x="479" y="1232"/>
      <point x="353" y="1220"/>
      <point x="125" y="1295" type="curve"/>
      <point x="0" y="1054" type="line"/>
    </contour>
    <contour>
      <point x="359" y="1464" type="move" name="top"/>
    </contour>
    <contour>
      <point x="359" y="983" type="move" name="_top"/>
    </contour>
  </outline>
</glyph>
<glyph name="noonghunnaabove-ar" format="1">
  <advance width="0"/>
  <unicode hex="0658"/>
  <outline>
    <contour>
      <point x="271" y="867"/>
      <point x="457" y="927"/>
      <point x="459" y="1044" type="curve" smooth="yes"/>
      <point x="460" y="1094"/>
      <point x="444" y="1225"/>
      <point x="437" y="1275" type="curve"/>
      <point x="308" y="1217" type="line"/>
      <point x="341" y="1034" type="line"/>
      <point x="341" y="1036" type="line"/>
      <point x="185" y="1010" type="line"/>
      <point x="136" y="1010"/>
      <point x="116" y="1038"/>
      <point x="116" y="1081" type="curve" smooth="yes"/>
      <point x="116" y="1110"/>
      <point x="127" y="1148"/>
      <point x="127" y="1164" type="curve"/>
      <point x="17" y="1171" type="line"/>
      <point x="4" y="1105"/>
      <point x="0" y="1083"/>
      <point x="0" y="1057" type="curve" smooth="yes"/>
      <point x="0" y="953"/>
      <point x="68" y="867"/>
      <point x="176" y="867" type="curve" smooth="yes"/>
    </contour>
    <contour>
      <point x="230" y="1447" type="move" name="top"/>
    </contour>
    <contour>
      <point x="230" y="870" type="move" name="_top"/>
    </contour>
  </outline>
</glyph>
<glyph name="zero-ar" format="1">
  <advance width="916"/>
  <unicode hex="0660"/>
  <outline>
    <contour>
      <point x="329" y="475" type="line"/>
      <point x="456" y="599" type="line"/>
      <point x="580" y="475" type="line"/>
      <point x="456" y="349" type="line"/>
    </contour>
    <contour>
      <point x="453" y="135" type="line"/>
      <point x="796" y="467" type="line"/>
      <point x="465" y="811" type="line"/>
      <point x="120" y="478" type="line"/>
    </contour>
  </outline>
</glyph>
<glyph name="one-ar" format="1">
  <advance width="616"/>
  <unicode hex="0661"/>
  <outline>
    <contour>
      <point x="496" y="0" type="line"/>
      <point x="496" y="549"/>
      <point x="475" y="875"/>
      <point x="309" y="1207" type="curve"/>
      <point x="120" y="1009" type="line"/>
      <point x="336" y="648"/>
      <point x="331" y="241"/>
      <point x="331" y="-22" type="curve"/>
    </contour>
  </outline>
</glyph>
<glyph name="two-ar" format="1">
  <advance width="1019"/>
  <unicode hex="0662"/>
  <outline>
    <contour>
      <point x="336" y="649"/>
      <point x="331" y="242"/>
      <point x="331" y="-21" type="curve"/>
      <point x="496" y="0" type="line"/>
      <point x="498" y="129" type="line" smooth="yes"/>
      <point x="501" y="336"/>
      <point x="501" y="544"/>
      <point x="454" y="745" type="curve"/>
      <point x="481" y="741"/>
      <point x="509" y="740"/>
      <point x="533" y="740" type="curve" smooth="yes"/>
      <point x="758" y="740"/>
      <point x="880" y="895"/>
      <point x="899" y="1198" type="curve"/>
      <point x="731" y="1213" type="line"/>
      <point x="717" y="1071"/>
      <point x="652" y="1000"/>
      <point x="537" y="1000" type="curve" smooth="yes"/>
      <point x="507" y="1000"/>
      <point x="471" y="1005"/>
      <point x="431" y="1016" type="curve"/>
      <point x="308" y="1211" type="line"/>
      <point x="120" y="1010" type="line"/>
    </contour>
  </outline>
</glyph>
<glyph name="three-ar" format="1">
  <advance width="1274"/>
  <unicode hex="0663"/>
  <outline>
    <contour>
      <point x="496" y="0" type="line"/>
      <point x="496" y="310"/>
      <point x="505" y="434"/>
      <point x="452" y="746" type="curve"/>
      <point x="474" y="743"/>
      <point x="494" y="742"/>
      <point x="513" y="742" type="curve" smooth="yes"/>
      <point x="599" y="742"/>
      <point x="674" y="770"/>
      <point x="722" y="820" type="curve"/>
      <point x="775" y="790"/>
      <point x="829" y="774"/>
      <point x="881" y="774" type="curve" smooth="yes"/>
      <point x="1041" y="774"/>
      <point x="1158" y="911"/>
      <point x="1154" y="1095" type="curve" smooth="yes"/>
      <point x="1151" y="1237" type="line"/>
      <point x="999" y="1245" type="line"/>
      <point x="999" y="1069"/>
      <point x="965" y="1008"/>
      <point x="876" y="1008" type="curve" smooth="yes"/>
      <point x="852" y="1008"/>
      <point x="824" y="1012"/>
      <point x="789" y="1021" type="curve"/>
      <point x="793" y="1236" type="line"/>
      <point x="642" y="1237" type="line"/>
      <point x="642" y="1046"/>
      <point x="616" y="994"/>
      <point x="520" y="991" type="curve" smooth="yes"/>
      <point x="395" y="987"/>
      <point x="369" y="1056"/>
      <point x="310" y="1207" type="curve"/>
      <point x="120" y="1009" type="line"/>
      <point x="336" y="648"/>
      <point x="331" y="241"/>
      <point x="331" y="-22" type="curve"/>
    </contour>
  </outline>
</glyph>
<glyph name="four-ar" format="1">
  <advance width="945"/>
  <unicode hex="0664"/>
  <outline>
    <contour>
      <point x="825" y="218" type="line"/>
      <point x="737" y="203"/>
      <point x="647" y="196"/>
      <point x="564" y="196" type="curve" smooth="yes"/>
      <point x="406" y="196"/>
      <point x="280" y="232"/>
      <point x="280" y="271" type="curve" smooth="yes"/>
      <point x="280" y="314"/>
      <point x="457" y="458"/>
      <point x="636" y="557" type="curve"/>
      <point x="625" y="794" type="line"/>
      <point x="547" y="802"/>
      <point x="406" y="825"/>
      <point x="328" y="874" type="curve"/>
      <point x="404" y="950"/>
      <point x="511" y="1020"/>
      <point x="631" y="1091" type="curve"/>
      <point x="594" y="1297" type="line"/>
      <point x="320" y="1179"/>
      <point x="157" y="989"/>
      <point x="157" y="786" type="curve" smooth="yes"/>
      <point x="157" y="705"/>
      <point x="232" y="647"/>
      <point x="382" y="610" type="curve"/>
      <point x="221" y="485"/>
      <point x="120" y="324"/>
      <point x="120" y="189" type="curve" smooth="yes"/>
      <point x="120" y="47"/>
      <point x="250" y="-26"/>
      <point x="493" y="-26" type="curve" smooth="yes"/>
      <point x="604" y="-26"/>
      <point x="716" y="-11"/>
      <point x="795" y="0" type="curve"/>
    </contour>
  </outline>
</glyph>
<glyph name="five-ar" format="1">
  <advance width="972"/>
  <unicode hex="0665"/>
  <outline>
    <contour>
      <point x="672" y="114"/>
      <point x="852" y="326"/>
      <point x="852" y="643" type="curve" smooth="yes"/>
      <point x="852" y="856"/>
      <point x="650" y="1089"/>
      <point x="467" y="1089" type="curve" smooth="yes"/>
      <point x="247" y="1089"/>
      <point x="120" y="689"/>
      <point x="120" y="470" type="curve" smooth="yes"/>
      <point x="120" y="229"/>
      <point x="210" y="114"/>
      <point x="402" y="114" type="curve" smooth="yes"/>
    </contour>
    <contour>
      <point x="332" y="365"/>
      <point x="270" y="419"/>
      <point x="270" y="519" type="curve" smooth="yes"/>
      <point x="270" y="598"/>
      <point x="295" y="822"/>
      <point x="418" y="822" type="curve" smooth="yes"/>
      <point x="523" y="822"/>
      <point x="700" y="681"/>
      <point x="700" y="541" type="curve" smooth="yes"/>
      <point x="700" y="469"/>
      <point x="552" y="365"/>
      <point x="447" y="365" type="curve" smooth="yes"/>
    </contour>
  </outline>
</glyph>
<glyph name="six-ar" format="1">
  <advance width="1047"/>
  <unicode hex="0666"/>
  <outline>
    <contour>
      <point x="927" y="90" type="line"/>
      <point x="836" y="317"/>
      <point x="794" y="515"/>
      <point x="794" y="721" type="curve" smooth="yes"/>
      <point x="794" y="815"/>
      <point x="790" y="913"/>
      <point x="815" y="1011" type="curve"/>
      <point x="725" y="1211" type="line"/>
      <point x="515" y="1195"/>
      <point x="333" y="1188"/>
      <point x="135" y="1241" type="curve"/>
      <point x="120" y="982" type="line"/>
      <point x="228" y="944"/>
      <point x="481" y="946"/>
      <point x="648" y="963" type="curve"/>
      <point x="631" y="817"/>
      <point x="620" y="682"/>
      <point x="620" y="553" type="curve" smooth="yes"/>
      <point x="620" y="348"/>
      <point x="642" y="153"/>
      <point x="727" y="-49" type="curve"/>
    </contour>
  </outline>
</glyph>
<glyph name="seven-ar" format="1">
  <advance width="1225"/>
  <unicode hex="0667"/>
  <outline>
    <contour>
      <point x="774" y="15" type="line"/>
      <point x="858" y="347"/>
      <point x="961" y="748"/>
      <point x="1105" y="1108" type="curve"/>
      <point x="952" y="1262" type="line"/>
      <point x="832" y="997"/>
      <point x="742" y="654"/>
      <point x="677" y="375" type="curve"/>
      <point x="610" y="684"/>
      <point x="430" y="1041"/>
      <point x="301" y="1238" type="curve"/>
      <point x="120" y="1047" type="line"/>
      <point x="420" y="635"/>
      <point x="489" y="401"/>
      <point x="580" y="-29" type="curve"/>
    </contour>
  </outline>
</glyph>
<glyph name="eight-ar" format="1">
  <advance width="1201"/>
  <unicode hex="0668"/>
  <outline>
    <contour>
      <point x="273" y="-33" type="line"/>
      <point x="388" y="220"/>
      <point x="478" y="526"/>
      <point x="531" y="780" type="curve"/>
      <point x="607" y="504"/>
      <point x="775" y="154"/>
      <point x="900" y="-32" type="curve"/>
      <point x="1081" y="158" type="line"/>
      <point x="874" y="470"/>
      <point x="740" y="747"/>
      <point x="623" y="1254" type="curve"/>
      <point x="439" y="1170" type="line"/>
      <point x="410" y="856"/>
      <point x="289" y="456"/>
      <point x="120" y="120" type="curve"/>
    </contour>
  </outline>
</glyph>
<glyph name="nine-ar" format="1">
  <advance width="1036"/>
  <unicode hex="0669"/>
  <outline>
    <contour>
      <point x="120" y="611"/>
      <point x="227" y="500"/>
      <point x="404" y="500" type="curve" smooth="yes"/>
      <point x="473" y="500"/>
      <point x="549" y="519"/>
      <point x="607" y="549" type="curve"/>
      <point x="617" y="354"/>
      <point x="636" y="165"/>
      <point x="711" y="-40" type="curve"/>
      <point x="916" y="133" type="line"/>
      <point x="834" y="337"/>
      <point x="790" y="522"/>
      <point x="775" y="727" type="curve" smooth="yes"/>
      <point x="759" y="949"/>
      <point x="732" y="1280"/>
      <point x="453" y="1280" type="curve" smooth="yes"/>
      <point x="245" y="1280"/>
      <point x="120" y="993"/>
      <point x="120" y="794" type="curve" smooth="yes"/>
    </contour>
    <contour>
      <point x="278" y="934"/>
      <point x="342" y="1049"/>
      <point x="439" y="1049" type="curve" smooth="yes"/>
      <point x="517" y="1049"/>
      <point x="590" y="915"/>
      <point x="592" y="762" type="curve"/>
      <point x="528" y="749"/>
      <point x="475" y="737"/>
      <point x="425" y="737" type="curve" smooth="yes"/>
      <point x="382" y="737"/>
      <point x="339" y="746"/>
      <point x="282" y="769" type="curve"/>
    </contour>
  </outline>
</glyph>
<glyph name="percent-ar" format="1">
  <advance width="1066"/>
  <unicode hex="066A"/>
  <outline>
    <contour>
      <point x="863" y="1107" type="line"/>
      <point x="773" y="1311" type="line"/>
      <point x="120" y="78" type="line"/>
      <point x="239" y="-72" type="line"/>
    </contour>
    <component base="period" xOffset="526" yOffset="103" xScale="0.803" yScale="0.803"/>
    <component base="period" xOffset="42" yOffset="870" xScale="0.803" yScale="0.803"/>
  </outline>
</glyph>
<glyph name="decimalseparator-ar" format="1">
  <advance width="765"/>
  <unicode hex="066B"/>
  <outline>
    <contour>
      <point x="233" y="-380" type="line"/>
      <point x="645" y="696" type="line"/>
      <point x="535" y="714" type="line"/>
      <point x="120" y="-363" type="line"/>
    </contour>
  </outline>
</glyph>
<glyph name="thousandseparator-ar" format="1">
  <advance width="608"/>
  <unicode hex="066C"/>
  <outline>
    <contour>
      <point x="226" y="31" type="line"/>
      <point x="488" y="560" type="line"/>
      <point x="384" y="580" type="line"/>
      <point x="120" y="51" type="line"/>
    </contour>
  </outline>
</glyph>
<glyph name="asterisk-ar" format="1">
  <advance width="890"/>
  <unicode hex="066D"/>
  <outline>
    <contour>
      <point x="449" y="315" type="line"/>
      <point x="616" y="189" type="line"/>
      <point x="668" y="234" type="line"/>
      <point x="594" y="421" type="line"/>
      <point x="770" y="535" type="line"/>
      <point x="750" y="596" type="line"/>
      <point x="541" y="586" type="line"/>
      <point x="480" y="790" type="line"/>
      <point x="409" y="790" type="line"/>
      <point x="359" y="585" type="line"/>
      <point x="142" y="592" type="line"/>
      <point x="120" y="535" type="line"/>
      <point x="307" y="420" type="line"/>
      <point x="236" y="223" type="line"/>
      <point x="287" y="182" type="line"/>
    </contour>
  </outline>
</glyph>
<glyph name="behDotless-ar" format="1">
  <advance width="1832"/>
  <unicode hex="066E"/>
  <outline>
    <contour>
      <point x="180" y="96"/>
      <point x="352" y="-34"/>
      <point x="722" y="-34" type="curve" smooth="yes"/>
      <point x="831" y="-34"/>
      <point x="973" y="-21"/>
      <point x="1145" y="5" type="curve" smooth="yes"/>
      <point x="1438" y="49"/>
      <point x="1692" y="147"/>
      <point x="1692" y="439" type="curve" smooth="yes"/>
      <point x="1692" y="529"/>
      <point x="1627" y="804"/>
      <point x="1584" y="974" type="curve"/>
      <point x="1398" y="857" type="line"/>
      <point x="1522" y="322" type="line"/>
      <point x="1392" y="261"/>
      <point x="1084" y="189"/>
      <point x="796" y="189" type="curve" smooth="yes"/>
      <point x="546" y="189"/>
      <point x="340" y="247"/>
      <point x="340" y="439" type="curve" smooth="yes"/>
      <point x="340" y="457"/>
      <point x="339" y="471"/>
      <point x="355" y="604" type="curve"/>
      <point x="202" y="618" type="line"/>
      <point x="181" y="459"/>
      <point x="180" y="418"/>
      <point x="180" y="376" type="curve" smooth="yes"/>
    </contour>
    <contour>
      <point x="857" y="876" type="move" name="top"/>
    </contour>
    <contour>
      <point x="909" y="-254" type="move" name="bottom"/>
    </contour>
    <contour>
      <point x="355" y="-158" type="move" name="ring"/>
    </contour>
  </outline>
</glyph>
<glyph name="qafDotless-ar" format="1">
  <advance width="1646"/>
  <unicode hex="066F"/>
  <outline>
    <contour>
      <point x="231" y="281" type="line"/>
      <point x="187" y="19"/>
      <point x="180" y="-22"/>
      <point x="180" y="-83" type="curve" smooth="yes"/>
      <point x="180" y="-357"/>
      <point x="350" y="-524"/>
      <point x="632" y="-524" type="curve" smooth="yes"/>
      <point x="828" y="-524"/>
      <point x="1305" y="-461"/>
      <point x="1440" y="-263" type="curve" smooth="yes"/>
      <point x="1497" y="-181"/>
      <point x="1501" y="-70"/>
      <point x="1506" y="63" type="curve" smooth="yes"/>
      <point x="1516" y="384"/>
      <point x="1351" y="805"/>
      <point x="1108" y="805" type="curve" smooth="yes"/>
      <point x="865" y="805"/>
      <point x="726" y="466"/>
      <point x="726" y="235" type="curve" smooth="yes"/>
      <point x="726" y="47"/>
      <point x="838" y="-55"/>
      <point x="1045" y="-55" type="curve" smooth="yes"/>
      <point x="1137" y="-55"/>
      <point x="1240" y="-35"/>
      <point x="1321" y="-1" type="curve"/>
      <point x="1314" y="-168" type="line"/>
      <point x="1243" y="-193"/>
      <point x="1017" y="-280"/>
      <point x="679" y="-280" type="curve" smooth="yes"/>
      <point x="474" y="-280"/>
      <point x="346" y="-180"/>
      <point x="355" y="1" type="curve" smooth="yes"/>
      <point x="356" y="21"/>
      <point x="360" y="40"/>
      <point x="400" y="256" type="curve"/>
    </contour>
    <contour>
      <point x="869" y="394"/>
      <point x="969" y="571"/>
      <point x="1069" y="571" type="curve" smooth="yes"/>
      <point x="1171" y="571"/>
      <point x="1295" y="383"/>
      <point x="1313" y="195" type="curve"/>
      <point x="1240" y="178"/>
      <point x="1169" y="171"/>
      <point x="1087" y="171" type="curve" smooth="yes"/>
      <point x="1015" y="171"/>
      <point x="956" y="177"/>
      <point x="903" y="200" type="curve"/>
    </contour>
    <contour>
      <point x="1108" y="1006" type="move" name="top"/>
    </contour>
    <contour>
      <point x="739" y="-724" type="move" name="bottom"/>
    </contour>
  </outline>
</glyph>
<glyph name="alefabove-ar" format="1">
  <advance width="0"/>
  <unicode hex="0670"/>
  <outline>
    <contour>
      <point x="165" y="838" type="line"/>
      <point x="163" y="1234" type="line"/>
      <point x="0" y="1176" type="line"/>
      <point x="25" y="778" type="line"/>
    </contour>
    <contour>
      <point x="82" y="1424" type="move" name="top"/>
    </contour>
    <contour>
      <point x="82" y="780" type="move" name="_top"/>
    </contour>
  </outline>
</glyph>
<glyph name="highhamza-ar" format="1">
  <advance width="0"/>
  <unicode hex="0674"/>
  <outline>
    <component base="hamzacenter-ar" yOffset="311"/>
    <contour>
      <point x="256" y="1190" type="move" name="top"/>
    </contour>
    <contour>
      <point x="266" y="152" type="move" name="bottom"/>
    </contour>
  </outline>
</glyph>
<glyph name="tehRing-ar" format="1">
  <advance width="1832"/>
  <unicode hex="067C"/>
  <outline>
    <component base="teh-ar"/>
    <component base="ringbelow-ar" xOffset="201" yOffset="375"/>
    <contour>
      <point x="887" y="-350" type="move" name="bottom"/>
    </contour>
  </outline>
</glyph>
<glyph name="hahThreedotsabove-ar" format="1">
  <advance width="1408"/>
  <unicode hex="0685"/>
  <outline>
    <component base="hah-ar"/>
    <component base="threedotsupabove-ar" xOffset="145" yOffset="458"/>
    <contour>
      <point x="786" y="-911" type="move" name="bottom"/>
    </contour>
  </outline>
</glyph>
<glyph name="dul-ar" format="1">
  <advance width="1187"/>
  <unicode hex="068E"/>
  <outline>
    <component base="dal-ar"/>
    <component base="threedotsupabove-ar" xOffset="356" yOffset="566"/>
    <contour>
      <point x="521" y="-240" type="move" name="bottom"/>
    </contour>
  </outline>
</glyph>
<glyph name="jeh-ar" format="1">
  <advance width="914"/>
  <unicode hex="0698"/>
  <outline>
    <component base="reh-ar"/>
    <component base="threedotsupabove-ar" xOffset="259" yOffset="259"/>
    <contour>
      <point x="353" y="-630" type="move" name="bottom"/>
    </contour>
  </outline>
</glyph>
<glyph name="fehDotless-ar" format="1">
  <advance width="1855"/>
  <unicode hex="06A1"/>
  <outline>
    <contour>
      <point x="198" y="591" type="line"/>
      <point x="181" y="454"/>
      <point x="180" y="407"/>
      <point x="180" y="371" type="curve" smooth="yes"/>
      <point x="180" y="90"/>
      <point x="352" y="-39"/>
      <point x="723" y="-39" type="curve" smooth="yes"/>
      <point x="943" y="-39"/>
      <point x="1192" y="-6"/>
      <point x="1378" y="43" type="curve" smooth="yes"/>
      <point x="1606" y="103"/>
      <point x="1715" y="236"/>
      <point x="1715" y="455" type="curve" smooth="yes"/>
      <point x="1715" y="723"/>
      <point x="1569" y="1113"/>
      <point x="1345" y="1113" type="curve" smooth="yes"/>
      <point x="1102" y="1113"/>
      <point x="985" y="818"/>
      <point x="985" y="587" type="curve" smooth="yes"/>
      <point x="985" y="421"/>
      <point x="1097" y="335"/>
      <point x="1287" y="335" type="curve" smooth="yes"/>
      <point x="1373" y="335"/>
      <point x="1472" y="356"/>
      <point x="1546" y="390" type="curve"/>
      <point x="1549" y="315" type="line"/>
      <point x="1420" y="260"/>
      <point x="1086" y="184"/>
      <point x="793" y="184" type="curve" smooth="yes"/>
      <point x="546" y="184"/>
      <point x="341" y="242"/>
      <point x="341" y="434" type="curve" smooth="yes"/>
      <point x="341" y="453"/>
      <point x="341" y="480"/>
      <point x="353" y="583" type="curve"/>
    </contour>
    <contour>
      <point x="1141" y="755"/>
      <point x="1210" y="878"/>
      <point x="1306" y="878" type="curve" smooth="yes"/>
      <point x="1388" y="878"/>
      <point x="1490" y="733"/>
      <point x="1528" y="561" type="curve"/>
      <point x="1498" y="555"/>
      <point x="1423" y="541"/>
      <point x="1336" y="541" type="curve" smooth="yes"/>
      <point x="1265" y="541"/>
      <point x="1153" y="564"/>
      <point x="1141" y="574" type="curve"/>
    </contour>
    <contour>
      <point x="1345" y="1312" type="move" name="top"/>
    </contour>
    <contour>
      <point x="725" y="-239" type="move" name="bottom"/>
    </contour>
  </outline>
</glyph>
<glyph name="keheh-ar" format="1">
  <advance width="1724"/>
  <unicode hex="06A9"/>
  <outline>
    <contour>
      <point x="198" y="603" type="line"/>
      <point x="180" y="449"/>
      <point x="180" y="426"/>
      <point x="180" y="380" type="curve" smooth="yes"/>
      <point x="180" y="92"/>
      <point x="351" y="-34"/>
      <point x="733" y="-34" type="curve" smooth="yes"/>
      <point x="1061" y="-34"/>
      <point x="1356" y="53"/>
      <point x="1489" y="112" type="curve"/>
      <point x="1529" y="127"/>
      <point x="1575" y="309"/>
      <point x="1575" y="369" type="curve" smooth="yes"/>
      <point x="1575" y="587"/>
      <point x="1345" y="870"/>
      <point x="1087" y="1053" type="curve"/>
      <point x="1653" y="1231" type="line"/>
      <point x="1681" y="1460" type="line"/>
      <point x="1034" y="1243" type="line"/>
      <point x="915" y="905" type="line"/>
      <point x="1166" y="743"/>
      <point x="1387" y="523"/>
      <point x="1440" y="297" type="curve"/>
      <point x="1329" y="253"/>
      <point x="1087" y="189"/>
      <point x="793" y="189" type="curve" smooth="yes"/>
      <point x="496" y="189"/>
      <point x="339" y="275"/>
      <point x="339" y="439" type="curve" smooth="yes"/>
      <point x="339" y="448"/>
      <point x="337" y="467"/>
      <point x="352" y="589" type="curve"/>
    </contour>
    <contour>
      <point x="603" y="987" type="move" name="top"/>
    </contour>
    <contour>
      <point x="733" y="-234" type="move" name="bottom"/>
    </contour>
    <contour>
      <point x="1572" y="1011" type="move" name="ring"/>
    </contour>
  </outline>
</glyph>
<glyph name="gaf-ar" format="1">
  <advance width="1715"/>
  <unicode hex="06AF"/>
  <outline>
    <contour>
      <point x="1558" y="1518" type="line"/>
      <point x="1570" y="1675" type="line"/>
      <point x="1143" y="1539" type="line"/>
      <point x="1112" y="1377" type="line"/>
    </contour>
    <contour>
      <point x="198" y="603" type="line"/>
      <point x="180" y="449"/>
      <point x="180" y="426"/>
      <point x="180" y="380" type="curve" smooth="yes"/>
      <point x="180" y="92"/>
      <point x="351" y="-34"/>
      <point x="733" y="-34" type="curve" smooth="yes"/>
      <point x="1061" y="-34"/>
      <point x="1356" y="53"/>
      <point x="1489" y="112" type="curve"/>
      <point x="1529" y="127"/>
      <point x="1575" y="309"/>
      <point x="1575" y="369" type="curve" smooth="yes"/>
      <point x="1575" y="587"/>
      <point x="1345" y="870"/>
      <point x="1087" y="1053" type="curve"/>
      <point x="1653" y="1231" type="line"/>
      <point x="1681" y="1460" type="line"/>
      <point x="1034" y="1243" type="line"/>
      <point x="915" y="905" type="line"/>
      <point x="1166" y="743"/>
      <point x="1387" y="523"/>
      <point x="1440" y="297" type="curve"/>
      <point x="1329" y="253"/>
      <point x="1087" y="189"/>
      <point x="793" y="189" type="curve" smooth="yes"/>
      <point x="496" y="189"/>
      <point x="339" y="275"/>
      <point x="339" y="439" type="curve" smooth="yes"/>
      <point x="339" y="448"/>
      <point x="337" y="467"/>
      <point x="352" y="589" type="curve"/>
    </contour>
    <contour>
      <point x="613" y="1103" type="move" name="top"/>
    </contour>
    <contour>
      <point x="734" y="-234" type="move" name="bottom"/>
    </contour>
  </outline>
</glyph>
<glyph name="noonghunna-ar" format="1">
  <advance width="1519"/>
  <unicode hex="06BA"/>
  <outline>
    <contour>
      <point x="180" y="-356"/>
      <point x="338" y="-512"/>
      <point x="611" y="-512" type="curve" smooth="yes"/>
      <point x="833" y="-512"/>
      <point x="1211" y="-409"/>
      <point x="1330" y="-252" type="curve" smooth="yes"/>
      <point x="1364" y="-207"/>
      <point x="1379" y="-160"/>
      <point x="1379" y="-95" type="curve" smooth="yes"/>
      <point x="1379" y="-39"/>
      <point x="1373" y="-1"/>
      <point x="1300" y="569" type="curve"/>
      <point x="1092" y="467" type="line"/>
      <point x="1211" y="-133" type="line"/>
      <point x="1149" y="-171"/>
      <point x="921" y="-268"/>
      <point x="638" y="-268" type="curve" smooth="yes"/>
      <point x="451" y="-268"/>
      <point x="354" y="-184"/>
      <point x="354" y="-24" type="curve" smooth="yes"/>
      <point x="354" y="25"/>
      <point x="360" y="50"/>
      <point x="393" y="214" type="curve"/>
      <point x="231" y="244" type="line"/>
      <point x="187" y="25"/>
      <point x="180" y="-6"/>
      <point x="180" y="-86" type="curve" smooth="yes"/>
    </contour>
    <contour>
      <point x="712" y="495" type="move" name="top"/>
    </contour>
    <contour>
      <point x="678" y="-715" type="move" name="bottom"/>
    </contour>
    <contour>
      <point x="258" y="-601" type="move" name="ring"/>
    </contour>
  </outline>
</glyph>
<glyph name="noonRing-ar" format="1">
  <advance width="1519"/>
  <unicode hex="06BC"/>
  <outline>
    <component base="noon-ar"/>
    <component base="ringbelow-ar" xOffset="104" yOffset="-68"/>
    <contour>
      <point x="684" y="-950" type="move" name="bottom"/>
    </contour>
  </outline>
</glyph>
<glyph name="hehDoachashmee-ar" format="1">
  <advance width="1357"/>
  <unicode hex="06BE"/>
  <outline>
    <contour>
      <point x="41" y="264"/>
      <point x="375" y="120" type="curve"/>
      <point x="180" y="-112" type="line"/>
      <point x="357" y="-189"/>
      <point x="403" y="-177"/>
      <point x="484" y="-60" type="curve" smooth="yes"/>
      <point x="596" y="102" type="line"/>
      <point x="1138" y="-23" type="line"/>
      <point x="1309" y="451"/>
      <point x="1232" y="731"/>
      <point x="603" y="1121" type="curve"/>
      <point x="544" y="930" type="line"/>
      <point x="180" y="783"/>
    </contour>
    <contour>
      <point x="325" y="596"/>
      <point x="440" y="725"/>
      <point x="566" y="709" type="curve" smooth="yes"/>
      <point x="622" y="702"/>
      <point x="666" y="677"/>
      <point x="695" y="635" type="curve"/>
      <point x="510" y="308" type="line"/>
      <point x="395" y="338"/>
      <point x="325" y="395"/>
      <point x="325" y="469" type="curve" smooth="yes"/>
    </contour>
    <contour>
      <point x="837" y="634" type="line"/>
      <point x="941" y="558"/>
      <point x="1100" y="407"/>
      <point x="1083" y="220" type="curve"/>
      <point x="729" y="314" type="line"/>
    </contour>
    <contour>
      <point x="639" y="1310" type="move" name="top"/>
    </contour>
    <contour>
      <point x="673" y="-320" type="move" name="bottom"/>
    </contour>
  </outline>
</glyph>
<glyph name="ve-ar" format="1">
  <advance width="1079"/>
  <unicode hex="06CB"/>
  <outline>
    <component base="waw-ar"/>
    <component base="threedotsupabove-ar" xOffset="239" yOffset="472"/>
    <contour>
      <point x="425" y="-680" type="move" name="bottom"/>
    </contour>
  </outline>
</glyph>
<glyph name="yehTail-ar" format="1">
  <advance width="1954"/>
  <unicode hex="06CD"/>
  <outline>
    <contour>
      <point x="323" y="-35" type="line"/>
      <point x="512" y="39" type="line"/>
      <point x="504" y="-27"/>
      <point x="500" y="-84"/>
      <point x="500" y="-133" type="curve" smooth="yes"/>
      <point x="500" y="-446"/>
      <point x="653" y="-593"/>
      <point x="977" y="-593" type="curve" smooth="yes"/>
      <point x="1286" y="-593"/>
      <point x="1814" y="-377"/>
      <point x="1814" y="-90" type="curve" smooth="yes"/>
      <point x="1814" y="5"/>
      <point x="1761" y="42"/>
      <point x="1614" y="54" type="curve" smooth="yes"/>
      <point x="1306" y="79"/>
      <point x="1231" y="89"/>
      <point x="1231" y="147" type="curve" smooth="yes"/>
      <point x="1231" y="237"/>
      <point x="1469" y="472"/>
      <point x="1561" y="472" type="curve" smooth="yes"/>
      <point x="1581" y="472"/>
      <point x="1601" y="467"/>
      <point x="1626" y="454" type="curve"/>
      <point x="1706" y="663" type="line"/>
      <point x="1672" y="687"/>
      <point x="1626" y="700"/>
      <point x="1577" y="700" type="curve" smooth="yes"/>
      <point x="1343" y="700"/>
      <point x="1061" y="283"/>
      <point x="1061" y="47" type="curve" smooth="yes"/>
      <point x="1061" y="-75"/>
      <point x="1145" y="-135"/>
      <point x="1334" y="-154" type="curve" smooth="yes"/>
      <point x="1608" y="-181" type="line"/>
      <point x="1423" y="-288"/>
      <point x="1202" y="-351"/>
      <point x="1005" y="-351" type="curve" smooth="yes"/>
      <point x="776" y="-351"/>
      <point x="669" y="-259"/>
      <point x="669" y="-61" type="curve" smooth="yes"/>
      <point x="669" y="27"/>
      <point x="684" y="116"/>
      <point x="684" y="182" type="curve" smooth="yes"/>
      <point x="684" y="371"/>
      <point x="556" y="317"/>
      <point x="180" y="166" type="curve"/>
    </contour>
    <contour>
      <point x="858" y="593" type="move" name="top"/>
    </contour>
    <contour>
      <point x="979" y="-788" type="move" name="bottom"/>
    </contour>
  </outline>
</glyph>
<glyph name="yehbarree-ar" format="1">
  <advance width="1856"/>
  <unicode hex="06D2"/>
  <outline>
    <contour>
      <point x="1716" y="-65" type="line"/>
      <point x="1716" y="95"/>
      <point x="1718" y="162"/>
      <point x="1581" y="162" type="curve" smooth="yes"/>
      <point x="472" y="163" type="line" smooth="yes"/>
      <point x="383" y="163"/>
      <point x="346" y="182"/>
      <point x="341" y="216" type="curve" smooth="yes"/>
      <point x="324" y="333"/>
      <point x="673" y="336"/>
      <point x="792" y="631" type="curve"/>
      <point x="957" y="548" type="line"/>
      <point x="1042" y="750" type="line"/>
      <point x="988" y="795"/>
      <point x="916" y="852"/>
      <point x="849" y="856" type="curve" smooth="yes"/>
      <point x="728" y="863"/>
      <point x="648" y="661"/>
      <point x="519" y="587" type="curve" smooth="yes"/>
      <point x="369" y="501"/>
      <point x="289" y="448"/>
      <point x="228" y="304" type="curve" smooth="yes"/>
      <point x="198" y="233"/>
      <point x="180" y="172"/>
      <point x="180" y="120" type="curve" smooth="yes"/>
      <point x="180" y="0"/>
      <point x="267" y="-65"/>
      <point x="424" y="-65" type="curve" smooth="yes"/>
    </contour>
    <contour>
      <point x="849" y="1054" type="move" name="top"/>
    </contour>
    <contour>
      <point x="909" y="-270" type="move" name="bottom"/>
    </contour>
  </outline>
</glyph>
<glyph name="sadLamAlefMaksuraabove-ar" format="1">
  <advance width="0"/>
  <unicode hex="06D6"/>
  <outline>
    <contour>
      <point x="93" y="309"/>
      <point x="223" y="312" type="curve" smooth="yes"/>
      <point x="1212" y="336" type="line"/>
      <point x="1242" y="449" type="line"/>
      <point x="264" y="426" type="line" smooth="yes"/>
      <point x="205" y="425"/>
      <point x="156" y="429"/>
      <point x="101" y="441" type="curve"/>
      <point x="136" y="522"/>
      <point x="219" y="549"/>
      <point x="320" y="570" type="curve"/>
      <point x="321" y="570" type="line"/>
      <point x="346" y="577"/>
      <point x="346" y="582"/>
      <point x="364" y="611" type="curve"/>
      <point x="396" y="570"/>
      <point x="446" y="544"/>
      <point x="498" y="544" type="curve" smooth="yes"/>
      <point x="542" y="544"/>
      <point x="586" y="563"/>
      <point x="615" y="594" type="curve"/>
      <point x="664" y="575"/>
      <point x="731" y="563"/>
      <point x="796" y="563" type="curve" smooth="yes"/>
      <point x="969" y="563"/>
      <point x="1111" y="641"/>
      <point x="1111" y="741" type="curve" smooth="yes"/>
      <point x="1111" y="810"/>
      <point x="1001" y="901"/>
      <point x="918" y="902" type="curve" smooth="yes"/>
      <point x="849" y="903"/>
      <point x="787" y="853"/>
      <point x="658" y="699" type="curve"/>
      <point x="623" y="710" type="line"/>
      <point x="608" y="713"/>
      <point x="591" y="706"/>
      <point x="582" y="693" type="curve"/>
      <point x="562" y="667"/>
      <point x="541" y="655"/>
      <point x="515" y="655" type="curve" smooth="yes"/>
      <point x="434" y="655"/>
      <point x="400" y="732"/>
      <point x="394" y="936" type="curve"/>
      <point x="382" y="1119" type="line"/>
      <point x="274" y="1042" type="line"/>
      <point x="296" y="675" type="line"/>
      <point x="167" y="647"/>
      <point x="48" y="608"/>
      <point x="3" y="426" type="curve" smooth="yes"/>
      <point x="-20" y="332"/>
    </contour>
    <contour>
      <point x="815" y="759"/>
      <point x="858" y="792"/>
      <point x="892" y="792" type="curve" smooth="yes"/>
      <point x="928" y="792"/>
      <point x="969" y="765"/>
      <point x="1010" y="719" type="curve"/>
      <point x="941" y="685"/>
      <point x="878" y="670"/>
      <point x="800" y="670" type="curve"/>
      <point x="741" y="673" type="line"/>
    </contour>
    <contour>
      <point x="611" y="1319" type="move" name="top"/>
    </contour>
    <contour>
      <point x="611" y="316" type="move" name="_top"/>
    </contour>
  </outline>
</glyph>
<glyph name="qafLamAlefMaksuraabove-ar" format="1">
  <advance width="0"/>
  <unicode hex="06D7"/>
  <outline>
    <contour>
      <point x="700" y="804"/>
      <point x="675" y="801"/>
      <point x="652" y="801" type="curve" smooth="yes"/>
      <point x="619" y="801"/>
      <point x="596" y="804"/>
      <point x="579" y="811" type="curve"/>
      <point x="582" y="871"/>
      <point x="607" y="929"/>
      <point x="626" y="929" type="curve" smooth="yes"/>
      <point x="663" y="929"/>
      <point x="698" y="884"/>
      <point x="719" y="805" type="curve"/>
    </contour>
    <contour>
      <point x="857" y="433" type="line"/>
      <point x="742" y="426"/>
      <point x="485" y="410"/>
      <point x="284" y="410" type="curve" smooth="yes"/>
      <point x="207" y="410"/>
      <point x="150" y="415"/>
      <point x="102" y="425" type="curve"/>
      <point x="142" y="506"/>
      <point x="261" y="533"/>
      <point x="366" y="555" type="curve"/>
      <point x="383" y="559"/>
      <point x="395" y="569"/>
      <point x="401" y="582" type="curve"/>
      <point x="401" y="581" type="line"/>
      <point x="410" y="599" type="line"/>
      <point x="449" y="555"/>
      <point x="517" y="529"/>
      <point x="595" y="529" type="curve" smooth="yes"/>
      <point x="722" y="529"/>
      <point x="821" y="594"/>
      <point x="827" y="683" type="curve" smooth="yes"/>
      <point x="841" y="888"/>
      <point x="756" y="1051"/>
      <point x="640" y="1051" type="curve" smooth="yes"/>
      <point x="555" y="1051"/>
      <point x="488" y="938"/>
      <point x="488" y="805" type="curve" smooth="yes"/>
      <point x="488" y="733"/>
      <point x="542" y="691"/>
      <point x="633" y="691" type="curve" smooth="yes"/>
      <point x="666" y="691"/>
      <point x="702" y="696"/>
      <point x="732" y="706" type="curve"/>
      <point x="731" y="666" type="line"/>
      <point x="699" y="650"/>
      <point x="659" y="642"/>
      <point x="617" y="642" type="curve" smooth="yes"/>
      <point x="541" y="642"/>
      <point x="486" y="669"/>
      <point x="466" y="718" type="curve" smooth="yes"/>
      <point x="452" y="752"/>
      <point x="445" y="830"/>
      <point x="432" y="1130" type="curve"/>
      <point x="316" y="1080" type="line"/>
      <point x="341" y="661" type="line"/>
      <point x="208" y="632"/>
      <point x="49" y="593"/>
      <point x="5" y="412" type="curve"/>
      <point x="-29" y="309"/>
      <point x="122" y="297"/>
      <point x="240" y="297" type="curve" smooth="yes"/>
      <point x="307" y="297"/>
      <point x="662" y="311"/>
      <point x="843" y="322" type="curve"/>
    </contour>
    <contour>
      <point x="414" y="1338" type="move" name="top"/>
    </contour>
    <contour>
      <point x="414" y="297" type="move" name="_top"/>
    </contour>
  </outline>
</glyph>
<glyph name="endofayah-ar" format="1">
  <advance width="2901"/>
  <unicode hex="06DD"/>
  <outline>
    <contour>
      <point x="1526" y="-1049" type="line" smooth="yes"/>
      <point x="1550" y="-1049"/>
      <point x="1570" y="-1031"/>
      <point x="1570" y="-1009" type="curve" smooth="yes"/>
      <point x="1570" y="-826" type="line"/>
      <point x="2242" y="-779"/>
      <point x="2781" y="-203"/>
      <point x="2781" y="489" type="curve" smooth="yes"/>
      <point x="2781" y="1645"/>
      <point x="1570" y="1841"/>
      <point x="1570" y="1803" type="curve"/>
      <point x="1570" y="1986" type="line" smooth="yes"/>
      <point x="1570" y="2008"/>
      <point x="1550" y="2026"/>
      <point x="1526" y="2026" type="curve" smooth="yes"/>
      <point x="1373" y="2026" type="line" smooth="yes"/>
      <point x="1349" y="2026"/>
      <point x="1329" y="2008"/>
      <point x="1329" y="1986" type="curve" smooth="yes"/>
      <point x="1329" y="1804" type="line"/>
      <point x="1329" y="1838"/>
      <point x="120" y="1648"/>
      <point x="120" y="489" type="curve" smooth="yes"/>
      <point x="120" y="-666"/>
      <point x="1115" y="-827"/>
      <point x="1329" y="-827" type="curve"/>
      <point x="1329" y="-1009" type="line" smooth="yes"/>
      <point x="1329" y="-1031"/>
      <point x="1349" y="-1049"/>
      <point x="1373" y="-1049" type="curve" smooth="yes"/>
    </contour>
    <contour>
      <point x="1392" y="-687"/>
      <point x="1347" y="-641"/>
      <point x="1347" y="-582" type="curve" smooth="yes"/>
      <point x="1347" y="-522"/>
      <point x="1394" y="-471"/>
      <point x="1449" y="-471" type="curve" smooth="yes"/>
      <point x="1505" y="-471"/>
      <point x="1555" y="-523"/>
      <point x="1555" y="-582" type="curve" smooth="yes"/>
      <point x="1555" y="-640"/>
      <point x="1507" y="-687"/>
      <point x="1449" y="-687" type="curve" smooth="yes"/>
    </contour>
    <contour>
      <point x="450" y="-144"/>
      <point x="312" y="157"/>
      <point x="312" y="489" type="curve" smooth="yes"/>
      <point x="312" y="824"/>
      <point x="452" y="1134"/>
      <point x="696" y="1342" type="curve"/>
      <point x="677" y="1327"/>
      <point x="739" y="1290"/>
      <point x="773" y="1290" type="curve" smooth="yes"/>
      <point x="795" y="1290"/>
      <point x="816" y="1298"/>
      <point x="834" y="1313" type="curve" smooth="yes"/>
      <point x="919" y="1380"/>
      <point x="1005" y="1413"/>
      <point x="1095" y="1413" type="curve" smooth="yes"/>
      <point x="1199" y="1413"/>
      <point x="1307" y="1370"/>
      <point x="1419" y="1283" type="curve" smooth="yes"/>
      <point x="1428" y="1275"/>
      <point x="1440" y="1271"/>
      <point x="1450" y="1271" type="curve" smooth="yes"/>
      <point x="1461" y="1271"/>
      <point x="1475" y="1276"/>
      <point x="1481" y="1283" type="curve"/>
      <point x="1594" y="1370"/>
      <point x="1701" y="1413"/>
      <point x="1805" y="1413" type="curve" smooth="yes"/>
      <point x="1896" y="1413"/>
      <point x="1984" y="1380"/>
      <point x="2067" y="1313" type="curve"/>
      <point x="2083" y="1299"/>
      <point x="2106" y="1290"/>
      <point x="2127" y="1290" type="curve" smooth="yes"/>
      <point x="2151" y="1290"/>
      <point x="2175" y="1301"/>
      <point x="2195" y="1321" type="curve" smooth="yes"/>
      <point x="2213" y="1339" type="line"/>
      <point x="2210" y="1340"/>
      <point x="2208" y="1341"/>
      <point x="2206" y="1342" type="curve"/>
      <point x="2449" y="1133"/>
      <point x="2588" y="823"/>
      <point x="2588" y="489" type="curve" smooth="yes"/>
      <point x="2588" y="157"/>
      <point x="2451" y="-144"/>
      <point x="2203" y="-353" type="curve"/>
      <point x="2204" y="-354"/>
      <point x="2217" y="-354"/>
      <point x="2218" y="-354" type="curve"/>
      <point x="2195" y="-331" type="line" smooth="yes"/>
      <point x="2173" y="-310"/>
      <point x="2150" y="-300"/>
      <point x="2127" y="-300" type="curve" smooth="yes"/>
      <point x="2107" y="-300"/>
      <point x="2083" y="-310"/>
      <point x="2066" y="-324" type="curve"/>
      <point x="1978" y="-395"/>
      <point x="1888" y="-430"/>
      <point x="1794" y="-430" type="curve" smooth="yes"/>
      <point x="1692" y="-430"/>
      <point x="1588" y="-389"/>
      <point x="1479" y="-305" type="curve"/>
      <point x="1473" y="-298"/>
      <point x="1460" y="-293"/>
      <point x="1449" y="-293" type="curve" smooth="yes"/>
      <point x="1417" y="-293"/>
      <point x="1230" y="-430"/>
      <point x="1105" y="-430" type="curve" smooth="yes"/>
      <point x="1013" y="-430"/>
      <point x="924" y="-395"/>
      <point x="834" y="-324" type="curve" smooth="yes"/>
      <point x="816" y="-309"/>
      <point x="793" y="-300"/>
      <point x="772" y="-300" type="curve" smooth="yes"/>
      <point x="749" y="-300"/>
      <point x="726" y="-311"/>
      <point x="706" y="-331" type="curve" smooth="yes"/>
      <point x="683" y="-354" type="line"/>
      <point x="686" y="-352"/>
      <point x="699" y="-352"/>
      <point x="698" y="-354" type="curve"/>
    </contour>
    <contour>
      <point x="1390" y="1448"/>
      <point x="1346" y="1494"/>
      <point x="1346" y="1553" type="curve" smooth="yes"/>
      <point x="1346" y="1614"/>
      <point x="1393" y="1664"/>
      <point x="1448" y="1664" type="curve" smooth="yes"/>
      <point x="1504" y="1664"/>
      <point x="1554" y="1612"/>
      <point x="1554" y="1553" type="curve" smooth="yes"/>
      <point x="1554" y="1495"/>
      <point x="1506" y="1448"/>
      <point x="1448" y="1448" type="curve" smooth="yes"/>
    </contour>
  </outline>
</glyph>
<glyph name="asteriskArt-ar" format="1">
  <advance width="1391"/>
  <unicode hex="06DE"/>
  <outline>
    <contour>
      <point x="763" y="-158" type="line"/>
      <point x="763" y="-81" type="line"/>
      <point x="1054" y="-50"/>
      <point x="1271" y="192"/>
      <point x="1271" y="489" type="curve" smooth="yes"/>
      <point x="1271" y="787"/>
      <point x="1054" y="1028"/>
      <point x="763" y="1057" type="curve"/>
      <point x="763" y="1134" type="line"/>
      <point x="628" y="1134" type="line"/>
      <point x="628" y="1057" type="line"/>
      <point x="337" y="1027"/>
      <point x="120" y="785"/>
      <point x="120" y="489" type="curve" smooth="yes"/>
      <point x="120" y="192"/>
      <point x="337" y="-50"/>
      <point x="628" y="-81" type="curve"/>
      <point x="628" y="-158" type="line"/>
    </contour>
    <contour>
      <point x="663" y="-28"/>
      <point x="638" y="-3"/>
      <point x="638" y="28" type="curve" smooth="yes"/>
      <point x="638" y="59"/>
      <point x="663" y="84"/>
      <point x="694" y="84" type="curve" smooth="yes"/>
      <point x="725" y="84"/>
      <point x="750" y="59"/>
      <point x="750" y="28" type="curve" smooth="yes"/>
      <point x="750" y="-3"/>
      <point x="725" y="-28"/>
      <point x="694" y="-28" type="curve" smooth="yes"/>
    </contour>
    <contour>
      <point x="576" y="108"/>
      <point x="516" y="111"/>
      <point x="445" y="160" type="curve" smooth="yes"/>
      <point x="420" y="177"/>
      <point x="392" y="175"/>
      <point x="369" y="153" type="curve"/>
      <point x="280" y="250"/>
      <point x="237" y="386"/>
      <point x="237" y="489" type="curve" smooth="yes"/>
      <point x="237" y="635"/>
      <point x="287" y="754"/>
      <point x="381" y="832" type="curve"/>
      <point x="393" y="805"/>
      <point x="409" y="795"/>
      <point x="445" y="822" type="curve"/>
      <point x="493" y="854"/>
      <point x="576" y="861"/>
      <point x="639" y="834" type="curve"/>
      <point x="639" y="539" type="line"/>
      <point x="329" y="545" type="line"/>
      <point x="329" y="435" type="line"/>
      <point x="648" y="435" type="line"/>
      <point x="644" y="149" type="line"/>
    </contour>
    <contour>
      <point x="753" y="441" type="line"/>
      <point x="1062" y="435" type="line"/>
      <point x="1062" y="545" type="line"/>
      <point x="753" y="539" type="line"/>
      <point x="750" y="830" type="line"/>
      <point x="818" y="869"/>
      <point x="881" y="867"/>
      <point x="946" y="822" type="curve" smooth="yes"/>
      <point x="971" y="806"/>
      <point x="1002" y="808"/>
      <point x="1023" y="827" type="curve"/>
      <point x="1105" y="767"/>
      <point x="1153" y="592"/>
      <point x="1153" y="489" type="curve" smooth="yes"/>
      <point x="1153" y="360"/>
      <point x="1101" y="238"/>
      <point x="1008" y="151" type="curve"/>
      <point x="1000" y="178"/>
      <point x="974" y="177"/>
      <point x="945" y="159" type="curve"/>
      <point x="878" y="112"/>
      <point x="817" y="108"/>
      <point x="751" y="147" type="curve"/>
    </contour>
    <contour>
      <point x="663" y="894"/>
      <point x="638" y="919"/>
      <point x="638" y="950" type="curve" smooth="yes"/>
      <point x="638" y="981"/>
      <point x="663" y="1006"/>
      <point x="694" y="1006" type="curve" smooth="yes"/>
      <point x="725" y="1006"/>
      <point x="750" y="981"/>
      <point x="750" y="950" type="curve" smooth="yes"/>
      <point x="750" y="919"/>
      <point x="725" y="894"/>
      <point x="694" y="894" type="curve" smooth="yes"/>
    </contour>
  </outline>
</glyph>
<glyph name="four-persian" format="1">
  <advance width="1150"/>
  <unicode hex="06F4"/>
  <outline>
    <contour>
      <point x="120" y="1012" type="line"/>
      <point x="237" y="722"/>
      <point x="332" y="442"/>
      <point x="332" y="-22" type="curve"/>
      <point x="498" y="0" type="line"/>
      <point x="498" y="257"/>
      <point x="491" y="446"/>
      <point x="469" y="626" type="curve"/>
      <point x="519" y="612"/>
      <point x="580" y="605"/>
      <point x="647" y="605" type="curve" smooth="yes"/>
      <point x="790" y="605"/>
      <point x="946" y="636"/>
      <point x="1019" y="660" type="curve"/>
      <point x="1020" y="660" type="line"/>
      <point x="1030" y="878" type="line"/>
      <point x="930" y="858"/>
      <point x="779" y="834"/>
      <point x="680" y="835" type="curve" smooth="yes"/>
      <point x="611" y="836" type="line"/>
      <point x="564" y="1094" type="line"/>
      <point x="683" y="1118"/>
      <point x="780" y="1119"/>
      <point x="909" y="1098" type="curve"/>
      <point x="909" y="1295" type="line"/>
      <point x="858" y="1313"/>
      <point x="792" y="1323"/>
      <point x="728" y="1323" type="curve" smooth="yes"/>
      <point x="451" y="1323"/>
      <point x="375" y="1114"/>
      <point x="417" y="879" type="curve"/>
      <point x="308" y="1182" type="line"/>
    </contour>
  </outline>
</glyph>
<glyph name="five-persian" format="1">
  <advance width="1075"/>
  <unicode hex="06F5"/>
  <outline>
    <contour>
      <point x="821" y="-29"/>
      <point x="955" y="148"/>
      <point x="955" y="344" type="curve" smooth="yes"/>
      <point x="955" y="614"/>
      <point x="750" y="868"/>
      <point x="467" y="1196" type="curve"/>
      <point x="321" y="985" type="line"/>
      <point x="389" y="908" type="line"/>
      <point x="280" y="758"/>
      <point x="120" y="515"/>
      <point x="120" y="247" type="curve" smooth="yes"/>
      <point x="120" y="81"/>
      <point x="196" y="-22"/>
      <point x="320" y="-22" type="curve" smooth="yes"/>
      <point x="385" y="-22"/>
      <point x="445" y="12"/>
      <point x="491" y="74" type="curve"/>
      <point x="527" y="7"/>
      <point x="589" y="-29"/>
      <point x="668" y="-29" type="curve" smooth="yes"/>
    </contour>
    <contour>
      <point x="639" y="200"/>
      <point x="605" y="241"/>
      <point x="596" y="314" type="curve"/>
      <point x="431" y="308" type="line"/>
      <point x="426" y="251"/>
      <point x="392" y="207"/>
      <point x="355" y="207" type="curve" smooth="yes"/>
      <point x="301" y="207"/>
      <point x="263" y="249"/>
      <point x="263" y="309" type="curve" smooth="yes"/>
      <point x="263" y="456"/>
      <point x="412" y="689"/>
      <point x="497" y="788" type="curve"/>
      <point x="627" y="639"/>
      <point x="781" y="423"/>
      <point x="814" y="302" type="curve"/>
      <point x="791" y="248"/>
      <point x="732" y="200"/>
      <point x="689" y="200" type="curve" smooth="yes"/>
    </contour>
  </outline>
</glyph>
<glyph name="six-persian" format="1">
  <advance width="1166"/>
  <unicode hex="06F6"/>
  <outline>
    <contour>
      <point x="667" y="1281" type="line"/>
      <point x="624" y="1292"/>
      <point x="580" y="1297"/>
      <point x="536" y="1297" type="curve" smooth="yes"/>
      <point x="303" y="1297"/>
      <point x="120" y="1111"/>
      <point x="120" y="876" type="curve" smooth="yes"/>
      <point x="120" y="706"/>
      <point x="301" y="570"/>
      <point x="453" y="508" type="curve"/>
      <point x="349" y="352"/>
      <point x="261" y="189"/>
      <point x="186" y="61" type="curve"/>
      <point x="328" y="-58" type="line"/>
      <point x="493" y="191"/>
      <point x="681" y="516"/>
      <point x="1046" y="833" type="curve"/>
      <point x="985" y="1068" type="line"/>
      <point x="813" y="925"/>
      <point x="664" y="731"/>
      <point x="597" y="666" type="curve"/>
      <point x="291" y="901" type="line"/>
      <point x="342" y="1004"/>
      <point x="455" y="1094"/>
      <point x="598" y="1094" type="curve" smooth="yes"/>
      <point x="622" y="1094"/>
      <point x="644" y="1093"/>
      <point x="664" y="1090" type="curve"/>
    </contour>
  </outline>
</glyph>
<glyph name="hyphentwo" format="1">
  <advance width="831"/>
  <unicode hex="2010"/>
  <outline>
    <contour>
      <point x="711" y="393" type="line"/>
      <point x="711" y="584" type="line"/>
      <point x="120" y="584" type="line"/>
      <point x="120" y="393" type="line"/>
    </contour>
  </outline>
</glyph>
<glyph name="minus" format="1">
  <advance width="1282"/>
  <unicode hex="2212"/>
  <outline>
    <contour>
      <point x="1162" y="387" type="line"/>
      <point x="1162" y="590" type="line"/>
      <point x="120" y="590" type="line"/>
      <point x="120" y="387" type="line"/>
    </contour>
  </outline>
</glyph>
<glyph name="whiteStar.circled" format="1">
  <advance width="1016"/>
  <unicode hex="272A"/>
  <outline>
    <contour>
      <point x="120" y="281"/>
      <point x="294" y="113"/>
      <point x="508" y="113" type="curve" smooth="yes"/>
      <point x="722" y="113"/>
      <point x="896" y="281"/>
      <point x="896" y="488" type="curve" smooth="yes"/>
      <point x="896" y="695"/>
      <point x="721" y="865"/>
      <point x="508" y="865" type="curve" smooth="yes"/>
      <point x="295" y="865"/>
      <point x="120" y="695"/>
      <point x="120" y="488" type="curve" smooth="yes"/>
    </contour>
    <contour>
      <point x="467" y="554" type="line"/>
      <point x="513" y="737" type="line"/>
      <point x="570" y="553" type="line"/>
      <point x="777" y="563" type="line"/>
      <point x="599" y="449" type="line"/>
      <point x="671" y="268" type="line"/>
      <point x="514" y="387" type="line"/>
      <point x="365" y="262" type="line"/>
      <point x="433" y="449" type="line"/>
      <point x="251" y="560" type="line"/>
    </contour>
  </outline>
</glyph>
<glyph name="peh-ar.fina" format="1">
  <advance width="1984"/>
  <unicode hex="FB57"/>
  <outline>
    <component base="behDotless-ar.fina"/>
    <component base="threedotsdownbelow-ar" xOffset="577" yOffset="-111"/>
    <contour>
      <point x="897" y="800" type="move" name="top"/>
    </contour>
  </outline>
</glyph>
<glyph name="veh-ar.init" format="1">
  <advance width="991"/>
  <unicode hex="FB6C"/>
  <outline>
    <component base="fehDotless-ar.init"/>
    <component base="threedotsupabove-ar" xOffset="145" yOffset="727"/>
    <contour>
      <point x="373" y="-200" type="move" name="bottom"/>
    </contour>
  </outline>
</glyph>
<glyph name="veh-ar.medi" format="1">
  <advance width="1018"/>
  <unicode hex="FB6D"/>
  <outline>
    <component base="fehDotless-ar.medi"/>
    <component base="threedotsupabove-ar" xOffset="236" yOffset="602"/>
    <contour>
      <point x="372" y="-190" type="move" name="bottom"/>
    </contour>
  </outline>
</glyph>
<glyph name="tcheh-ar.init" format="1">
  <advance width="1598"/>
  <unicode hex="FB7C"/>
  <outline>
    <component base="hah-ar.init"/>
    <component base="threedotsdownbelow-ar" xOffset="339" yOffset="-42"/>
    <contour>
      <point x="497" y="1010" type="move" name="top"/>
    </contour>
  </outline>
</glyph>
<glyph name="tcheh-ar.medi" format="1">
  <advance width="1559"/>
  <unicode hex="FB7D"/>
  <outline>
    <component base="hah-ar.medi"/>
    <component base="threedotsdownbelow-ar" xOffset="468" yOffset="126"/>
    <contour>
      <point x="496" y="1014" type="move" name="top"/>
    </contour>
  </outline>
</glyph>
<glyph name="dul-ar.fina" format="1">
  <advance width="1348"/>
  <unicode hex="FB87"/>
  <outline>
    <component base="dal-ar.fina"/>
    <component base="threedotsupabove-ar" xOffset="544" yOffset="544"/>
    <contour>
      <point x="555" y="-240" type="move" name="bottom"/>
    </contour>
  </outline>
</glyph>
<glyph name="keheh-ar.fina" format="1">
  <advance width="1864"/>
  <unicode hex="FB8F"/>
  <outline>
    <contour>
      <point x="1812" y="223" type="line" smooth="yes"/>
      <point x="1701" y="223"/>
      <point x="1656" y="254"/>
      <point x="1598" y="367" type="curve" smooth="yes"/>
      <point x="1479" y="599"/>
      <point x="1393" y="843"/>
      <point x="1083" y="1047" type="curve"/>
      <point x="1763" y="1259" type="line"/>
      <point x="1773" y="1482" type="line"/>
      <point x="1023" y="1235" type="line"/>
      <point x="893" y="912" type="line"/>
      <point x="1238" y="726"/>
      <point x="1370" y="431"/>
      <point x="1426" y="292" type="curve"/>
      <point x="1297" y="249"/>
      <point x="1075" y="185"/>
      <point x="799" y="185" type="curve" smooth="yes"/>
      <point x="495" y="185"/>
      <point x="339" y="269"/>
      <point x="339" y="434" type="curve" smooth="yes"/>
      <point x="339" y="440"/>
      <point x="339" y="446"/>
      <point x="354" y="600" type="curve"/>
      <point x="200" y="613" type="line"/>
      <point x="180" y="447"/>
      <point x="180" y="422"/>
      <point x="180" y="375" type="curve" smooth="yes"/>
      <point x="180" y="86"/>
      <point x="350" y="-39"/>
      <point x="738" y="-39" type="curve" smooth="yes"/>
      <point x="1026" y="-39"/>
      <point x="1315" y="26"/>
      <point x="1462" y="85" type="curve" smooth="yes"/>
      <point x="1487" y="95"/>
      <point x="1502" y="114"/>
      <point x="1533" y="172" type="curve"/>
      <point x="1617" y="58"/>
      <point x="1710" y="0"/>
      <point x="1812" y="0" type="curve" smooth="yes"/>
      <point x="1879" y="0" type="line"/>
      <point x="1914" y="35"/>
      <point x="1929" y="72"/>
      <point x="1929" y="112" type="curve" smooth="yes"/>
      <point x="1929" y="152"/>
      <point x="1914" y="188"/>
      <point x="1879" y="223" type="curve"/>
    </contour>
    <contour>
      <point x="592" y="1082" type="move" name="top"/>
    </contour>
    <contour>
      <point x="737" y="-244" type="move" name="bottom"/>
    </contour>
    <contour>
      <point x="1682" y="1045" type="move" name="ring"/>
    </contour>
  </outline>
</glyph>
<glyph name="gaf-ar.fina" format="1">
  <advance width="1865"/>
  <unicode hex="FB93"/>
  <outline>
    <contour>
      <point x="1143" y="1535" type="line"/>
      <point x="1112" y="1372" type="line"/>
      <point x="1635" y="1536" type="line"/>
      <point x="1647" y="1692" type="line"/>
    </contour>
    <contour>
      <point x="1812" y="223" type="line" smooth="yes"/>
      <point x="1701" y="223"/>
      <point x="1656" y="254"/>
      <point x="1598" y="367" type="curve" smooth="yes"/>
      <point x="1479" y="599"/>
      <point x="1392" y="844"/>
      <point x="1081" y="1047" type="curve"/>
      <point x="1763" y="1259" type="line"/>
      <point x="1774" y="1482" type="line"/>
      <point x="1023" y="1235" type="line"/>
      <point x="893" y="912" type="line"/>
      <point x="1238" y="727"/>
      <point x="1371" y="431"/>
      <point x="1427" y="292" type="curve"/>
      <point x="1298" y="249"/>
      <point x="1075" y="185"/>
      <point x="800" y="185" type="curve" smooth="yes"/>
      <point x="496" y="185"/>
      <point x="339" y="269"/>
      <point x="339" y="435" type="curve" smooth="yes"/>
      <point x="339" y="443"/>
      <point x="339" y="451"/>
      <point x="354" y="600" type="curve"/>
      <point x="200" y="613" type="line"/>
      <point x="182" y="446"/>
      <point x="180" y="423"/>
      <point x="180" y="376" type="curve" smooth="yes"/>
      <point x="180" y="85"/>
      <point x="350" y="-38"/>
      <point x="742" y="-38" type="curve" smooth="yes"/>
      <point x="967" y="-38"/>
      <point x="1194" y="6"/>
      <point x="1349" y="48" type="curve" smooth="yes"/>
      <point x="1477" y="83"/>
      <point x="1497" y="122"/>
      <point x="1532" y="174" type="curve"/>
      <point x="1614" y="59"/>
      <point x="1708" y="0"/>
      <point x="1812" y="0" type="curve" smooth="yes"/>
      <point x="1880" y="0" type="line"/>
      <point x="1915" y="35"/>
      <point x="1930" y="72"/>
      <point x="1930" y="112" type="curve" smooth="yes"/>
      <point x="1930" y="152"/>
      <point x="1915" y="188"/>
      <point x="1880" y="223" type="curve"/>
    </contour>
    <contour>
      <point x="598" y="1103" type="move" name="top"/>
    </contour>
    <contour>
      <point x="742" y="-235" type="move" name="bottom"/>
    </contour>
  </outline>
</glyph>
<glyph name="gaf-ar.init" format="1">
  <advance width="847"/>
  <unicode hex="FB94"/>
  <outline>
    <contour>
      <point x="261" y="1535" type="line"/>
      <point x="230" y="1373" type="line"/>
      <point x="674" y="1514" type="line"/>
      <point x="686" y="1671" type="line"/>
    </contour>
    <contour>
      <point x="136" y="1234" type="line"/>
      <point x="13" y="913" type="line"/>
      <point x="365" y="723"/>
      <point x="519" y="457"/>
      <point x="564" y="309" type="curve"/>
      <point x="406" y="235"/>
      <point x="233" y="223"/>
      <point x="44" y="223" type="curve" smooth="yes"/>
      <point x="-15" y="223" type="line" smooth="yes"/>
      <point x="-75" y="223"/>
      <point x="-120" y="172"/>
      <point x="-120" y="112" type="curve" smooth="yes"/>
      <point x="-120" y="52"/>
      <point x="-75" y="0"/>
      <point x="-15" y="0" type="curve" smooth="yes"/>
      <point x="44" y="0" type="line" smooth="yes"/>
      <point x="241" y="0"/>
      <point x="482" y="37"/>
      <point x="621" y="129" type="curve" smooth="yes"/>
      <point x="633" y="137"/>
      <point x="639" y="143"/>
      <point x="645" y="155" type="curve" smooth="yes"/>
      <point x="684" y="233"/>
      <point x="707" y="319"/>
      <point x="707" y="372" type="curve" smooth="yes"/>
      <point x="707" y="636"/>
      <point x="446" y="916"/>
      <point x="204" y="1049" type="curve"/>
      <point x="803" y="1237" type="line"/>
      <point x="811" y="1460" type="line"/>
    </contour>
    <contour>
      <point x="466" y="1824" type="move" name="top"/>
    </contour>
    <contour>
      <point x="312" y="-197" type="move" name="bottom"/>
    </contour>
  </outline>
</glyph>
<glyph name="gaf-ar.medi" format="1">
  <advance width="1013"/>
  <unicode hex="FB95"/>
  <outline>
    <contour>
      <point x="294" y="1535" type="line"/>
      <point x="261" y="1372" type="line"/>
      <point x="786" y="1536" type="line"/>
      <point x="797" y="1693" type="line"/>
    </contour>
    <contour>
      <point x="962" y="223" type="line" smooth="yes"/>
      <point x="854" y="223"/>
      <point x="807" y="255"/>
      <point x="748" y="371" type="curve" smooth="yes"/>
      <point x="630" y="603"/>
      <point x="541" y="843"/>
      <point x="235" y="1047" type="curve"/>
      <point x="913" y="1259" type="line"/>
      <point x="922" y="1483" type="line"/>
      <point x="175" y="1236" type="line"/>
      <point x="43" y="912" type="line"/>
      <point x="390" y="726"/>
      <point x="522" y="433"/>
      <point x="576" y="295" type="curve"/>
      <point x="456" y="248"/>
      <point x="274" y="223"/>
      <point x="44" y="223" type="curve" smooth="yes"/>
      <point x="-15" y="223" type="line" smooth="yes"/>
      <point x="-75" y="223"/>
      <point x="-120" y="172"/>
      <point x="-120" y="112" type="curve" smooth="yes"/>
      <point x="-120" y="52"/>
      <point x="-75" y="0"/>
      <point x="-15" y="0" type="curve" smooth="yes"/>
      <point x="44" y="0" type="line" smooth="yes"/>
      <point x="225" y="0"/>
      <point x="426" y="37"/>
      <point x="560" y="83" type="curve" smooth="yes"/>
      <point x="630" y="107"/>
      <point x="649" y="119"/>
      <point x="682" y="177" type="curve"/>
      <point x="767" y="60"/>
      <point x="861" y="0"/>
      <point x="962" y="0" type="curve" smooth="yes"/>
      <point x="1028" y="0" type="line"/>
      <point x="1063" y="35"/>
      <point x="1078" y="72"/>
      <point x="1078" y="112" type="curve" smooth="yes"/>
      <point x="1078" y="152"/>
      <point x="1063" y="188"/>
      <point x="1028" y="223" type="curve"/>
    </contour>
    <contour>
      <point x="529" y="1843" type="move" name="top"/>
    </contour>
    <contour>
      <point x="363" y="-188" type="move" name="bottom"/>
    </contour>
  </outline>
</glyph>
<glyph name="noonghunna-ar.fina" format="1">
  <advance width="1657"/>
  <unicode hex="FB9F"/>
  <outline>
    <contour>
      <point x="231" y="238" type="line"/>
      <point x="189" y="22"/>
      <point x="180" y="-15"/>
      <point x="180" y="-102" type="curve" smooth="yes"/>
      <point x="180" y="-366"/>
      <point x="333" y="-510"/>
      <point x="613" y="-510" type="curve" smooth="yes"/>
      <point x="834" y="-510"/>
      <point x="1213" y="-406"/>
      <point x="1332" y="-250" type="curve" smooth="yes"/>
      <point x="1390" y="-174"/>
      <point x="1383" y="-91"/>
      <point x="1370" y="52" type="curve"/>
      <point x="1421" y="9"/>
      <point x="1491" y="0"/>
      <point x="1599" y="0" type="curve" smooth="yes"/>
      <point x="1673" y="0" type="line"/>
      <point x="1706" y="37"/>
      <point x="1722" y="73"/>
      <point x="1722" y="112" type="curve" smooth="yes"/>
      <point x="1722" y="150"/>
      <point x="1706" y="186"/>
      <point x="1673" y="223" type="curve"/>
      <point x="1599" y="223" type="line" smooth="yes"/>
      <point x="1383" y="223"/>
      <point x="1343" y="288"/>
      <point x="1333" y="378" type="curve" smooth="yes"/>
      <point x="1316" y="529" type="line"/>
      <point x="1114" y="416" type="line"/>
      <point x="1202" y="-148" type="line"/>
      <point x="971" y="-238"/>
      <point x="826" y="-266"/>
      <point x="639" y="-266" type="curve" smooth="yes"/>
      <point x="450" y="-266"/>
      <point x="355" y="-186"/>
      <point x="355" y="-29" type="curve" smooth="yes"/>
      <point x="355" y="23"/>
      <point x="361" y="52"/>
      <point x="394" y="210" type="curve"/>
    </contour>
    <contour>
      <point x="714" y="495" type="move" name="top"/>
    </contour>
    <contour>
      <point x="710" y="-705" type="move" name="bottom"/>
    </contour>
    <contour>
      <point x="295" y="-620" type="move" name="ring"/>
    </contour>
  </outline>
</glyph>
<glyph name="hehgoal-ar.fina" format="1">
  <advance width="1207"/>
  <unicode hex="FBA7"/>
  <outline>
    <contour>
      <point x="1147" y="223" type="line" smooth="yes"/>
      <point x="1037" y="223"/>
      <point x="959" y="268"/>
      <point x="880" y="318" type="curve" smooth="yes"/>
      <point x="792" y="373"/>
      <point x="708" y="444"/>
      <point x="632" y="444" type="curve" smooth="yes"/>
      <point x="526" y="444"/>
      <point x="406" y="317"/>
      <point x="180" y="51" type="curve"/>
      <point x="277" y="-48" type="line"/>
      <point x="436" y="128"/>
      <point x="558" y="245"/>
      <point x="575" y="245" type="curve" smooth="yes"/>
      <point x="639" y="245"/>
      <point x="856" y="0"/>
      <point x="1093" y="0" type="curve" smooth="yes"/>
      <point x="1222" y="0" type="line"/>
      <point x="1257" y="35"/>
      <point x="1272" y="72"/>
      <point x="1272" y="112" type="curve" smooth="yes"/>
      <point x="1272" y="152"/>
      <point x="1257" y="188"/>
      <point x="1222" y="223" type="curve"/>
    </contour>
    <contour>
      <point x="631" y="643" type="move" name="top"/>
    </contour>
    <contour>
      <point x="585" y="-223" type="move" name="bottom"/>
    </contour>
  </outline>
</glyph>
<glyph name="hehgoal-ar.medi" format="1">
  <advance width="1209"/>
  <unicode hex="FBA9"/>
  <outline>
    <contour>
      <point x="1192" y="223" type="line" smooth="yes"/>
      <point x="799" y="223"/>
      <point x="640" y="127"/>
      <point x="616" y="-150" type="curve"/>
      <point x="580" y="-29"/>
      <point x="562" y="96"/>
      <point x="562" y="230" type="curve" smooth="yes"/>
      <point x="562" y="269"/>
      <point x="565" y="303"/>
      <point x="581" y="515" type="curve"/>
      <point x="422" y="511" type="line"/>
      <point x="406" y="368" type="line" smooth="yes"/>
      <point x="389" y="219"/>
      <point x="175" y="223"/>
      <point x="49" y="223" type="curve" smooth="yes"/>
      <point x="-15" y="223" type="line" smooth="yes"/>
      <point x="-75" y="223"/>
      <point x="-120" y="172"/>
      <point x="-120" y="112" type="curve" smooth="yes"/>
      <point x="-120" y="52"/>
      <point x="-75" y="0"/>
      <point x="-15" y="0" type="curve" smooth="yes"/>
      <point x="42" y="0" type="line" smooth="yes"/>
      <point x="146" y="0"/>
      <point x="281" y="14"/>
      <point x="391" y="100" type="curve"/>
      <point x="394" y="-198"/>
      <point x="570" y="-471"/>
      <point x="655" y="-601" type="curve"/>
      <point x="853" y="-369" type="line"/>
      <point x="801" y="-269"/>
      <point x="760" y="-180"/>
      <point x="749" y="-71" type="curve"/>
      <point x="860" y="-23"/>
      <point x="971" y="0"/>
      <point x="1192" y="0" type="curve" smooth="yes"/>
      <point x="1224" y="0" type="line"/>
      <point x="1259" y="35"/>
      <point x="1274" y="72"/>
      <point x="1274" y="112" type="curve" smooth="yes"/>
      <point x="1274" y="152"/>
      <point x="1259" y="188"/>
      <point x="1224" y="223" type="curve"/>
    </contour>
    <contour>
      <point x="502" y="713" type="move" name="top"/>
    </contour>
    <contour>
      <point x="701" y="-778" type="move" name="bottom"/>
    </contour>
  </outline>
</glyph>
<glyph name="hehDoachashmee-ar.fina" format="1">
  <advance width="1525"/>
  <unicode hex="FBAB"/>
  <outline>
    <contour>
      <point x="1397" y="223" type="line" smooth="yes"/>
      <point x="1337" y="223"/>
      <point x="1272" y="223"/>
      <point x="1219" y="225" type="curve"/>
      <point x="1294" y="580"/>
      <point x="1142" y="803"/>
      <point x="603" y="1137" type="curve"/>
      <point x="544" y="946" type="line"/>
      <point x="180" y="799"/>
      <point x="41" y="280"/>
      <point x="375" y="136" type="curve"/>
      <point x="180" y="-96" type="line"/>
      <point x="357" y="-173"/>
      <point x="403" y="-161"/>
      <point x="484" y="-44" type="curve" smooth="yes"/>
      <point x="596" y="118" type="line"/>
      <point x="1083" y="16"/>
      <point x="1368" y="0"/>
      <point x="1508" y="0" type="curve" smooth="yes"/>
      <point x="1540" y="0" type="line"/>
      <point x="1575" y="35"/>
      <point x="1590" y="72"/>
      <point x="1590" y="112" type="curve" smooth="yes"/>
      <point x="1590" y="152"/>
      <point x="1575" y="188"/>
      <point x="1540" y="223" type="curve"/>
    </contour>
    <contour>
      <point x="395" y="354"/>
      <point x="325" y="411"/>
      <point x="325" y="485" type="curve" smooth="yes"/>
      <point x="325" y="612"/>
      <point x="440" y="741"/>
      <point x="566" y="725" type="curve" smooth="yes"/>
      <point x="622" y="718"/>
      <point x="666" y="693"/>
      <point x="695" y="651" type="curve"/>
      <point x="510" y="324" type="line"/>
    </contour>
    <contour>
      <point x="729" y="330" type="line"/>
      <point x="837" y="650" type="line"/>
      <point x="941" y="574"/>
      <point x="1100" y="467"/>
      <point x="1083" y="280" type="curve"/>
    </contour>
    <contour>
      <point x="630" y="1337" type="move" name="top"/>
    </contour>
    <contour>
      <point x="666" y="-301" type="move" name="bottom"/>
    </contour>
  </outline>
</glyph>
<glyph name="hehDoachashmee-ar.medi" format="1">
  <advance width="1514"/>
  <unicode hex="FBAD"/>
  <outline>
    <contour>
      <point x="1390" y="223" type="line" smooth="yes"/>
      <point x="1330" y="223"/>
      <point x="1235" y="231"/>
      <point x="1182" y="233" type="curve"/>
      <point x="1257" y="588"/>
      <point x="1105" y="833"/>
      <point x="566" y="1167" type="curve"/>
      <point x="507" y="976" type="line"/>
      <point x="189" y="848"/>
      <point x="32" y="440"/>
      <point x="223" y="242" type="curve"/>
      <point x="169" y="229"/>
      <point x="92" y="223"/>
      <point x="44" y="223" type="curve" smooth="yes"/>
      <point x="-15" y="223" type="line" smooth="yes"/>
      <point x="-75" y="223"/>
      <point x="-120" y="172"/>
      <point x="-120" y="112" type="curve" smooth="yes"/>
      <point x="-120" y="52"/>
      <point x="-75" y="0"/>
      <point x="-15" y="0" type="curve" smooth="yes"/>
      <point x="44" y="0" type="line" smooth="yes"/>
      <point x="156" y="0"/>
      <point x="346" y="57"/>
      <point x="534" y="150" type="curve"/>
      <point x="1062" y="-7"/>
      <point x="1341" y="0"/>
      <point x="1481" y="0" type="curve" smooth="yes"/>
      <point x="1529" y="0" type="line"/>
      <point x="1564" y="35"/>
      <point x="1579" y="72"/>
      <point x="1579" y="112" type="curve" smooth="yes"/>
      <point x="1579" y="152"/>
      <point x="1564" y="188"/>
      <point x="1529" y="223" type="curve"/>
    </contour>
    <contour>
      <point x="358" y="384"/>
      <point x="288" y="441"/>
      <point x="288" y="515" type="curve" smooth="yes"/>
      <point x="288" y="642"/>
      <point x="403" y="771"/>
      <point x="529" y="755" type="curve" smooth="yes"/>
      <point x="585" y="748"/>
      <point x="629" y="723"/>
      <point x="658" y="681" type="curve"/>
      <point x="473" y="354" type="line"/>
    </contour>
    <contour>
      <point x="692" y="360" type="line"/>
      <point x="800" y="680" type="line"/>
      <point x="904" y="604"/>
      <point x="1063" y="450"/>
      <point x="1046" y="263" type="curve"/>
    </contour>
    <contour>
      <point x="609" y="1368" type="move" name="top"/>
    </contour>
    <contour>
      <point x="498" y="-175" type="move" name="bottom"/>
    </contour>
  </outline>
</glyph>
<glyph name="yehbarree-ar.fina" format="1">
  <advance width="1012"/>
  <unicode hex="FBAF"/>
  <outline>
    <contour>
      <point x="473" y="-270" type="line" smooth="yes"/>
      <point x="383" y="-270"/>
      <point x="341" y="-251"/>
      <point x="341" y="-217" type="curve" smooth="yes"/>
      <point x="341" y="-99"/>
      <point x="565" y="0"/>
      <point x="737" y="0" type="curve" smooth="yes"/>
      <point x="1032" y="0" type="line"/>
      <point x="1067" y="35"/>
      <point x="1082" y="72"/>
      <point x="1082" y="112" type="curve" smooth="yes"/>
      <point x="1082" y="152"/>
      <point x="1067" y="188"/>
      <point x="1032" y="223" type="curve"/>
      <point x="756" y="223" type="line" smooth="yes"/>
      <point x="469" y="223"/>
      <point x="180" y="-33"/>
      <point x="180" y="-310" type="curve" smooth="yes"/>
      <point x="180" y="-426"/>
      <point x="265" y="-487"/>
      <point x="425" y="-487" type="curve" smooth="yes"/>
      <point x="1717" y="-487" type="line"/>
      <point x="1717" y="-330"/>
      <point x="1720" y="-271"/>
      <point x="1582" y="-271" type="curve" smooth="yes"/>
    </contour>
    <contour>
      <point x="780" y="422" type="move" name="top"/>
    </contour>
    <contour>
      <point x="724" y="-684" type="move" name="bottom"/>
    </contour>
  </outline>
</glyph>
<glyph name="dotbelow-ar" format="1">
  <advance width="0"/>
  <unicode hex="FBB3"/>
  <outline>
    <component base="dotcenter-ar" yOffset="-944"/>
    <contour>
      <point x="180" y="-143" type="move" name="_bottom"/>
    </contour>
    <contour>
      <point x="206" y="-722" type="move" name="bottom"/>
    </contour>
  </outline>
</glyph>
<glyph name="threedotsupabove-ar" format="1">
  <advance width="0"/>
  <unicode hex="FBB6"/>
  <outline>
    <component base="dotcenter-ar" xOffset="138" yOffset="507" xScale="0.844" yScale="0.844"/>
    <component base="dotcenter-ar" xOffset="-7" yOffset="245" xScale="0.844" yScale="0.844"/>
    <component base="dotcenter-ar" xOffset="319" yOffset="266" xScale="0.844" yScale="0.844"/>
    <contour>
      <point x="300" y="1373" type="move" name="top"/>
    </contour>
    <contour>
      <point x="334" y="610" type="move" name="_top"/>
    </contour>
  </outline>
</glyph>
<glyph name="threedotsupbelow-ar" format="1">
  <advance width="0"/>
  <unicode hex="FBB7"/>
  <outline>
    <component base="threedotsupabove-ar" xOffset="-7" yOffset="-1274"/>
    <contour>
      <point x="334" y="-867" type="move" name="_bottom"/>
    </contour>
    <contour>
      <point x="302" y="-99" type="move" name="bottom"/>
    </contour>
  </outline>
</glyph>
<glyph name="threedotsdownabove-ar" format="1">
  <advance width="0"/>
  <unicode hex="FBB8"/>
  <outline>
    <component base="threedotsdowncenter-ar" xOffset="-1" yOffset="328"/>
    <contour>
      <point x="330" y="1318" type="move" name="top"/>
    </contour>
    <contour>
      <point x="350" y="548" type="move" name="_top"/>
    </contour>
  </outline>
</glyph>
<glyph name="threedotsdownbelow-ar" format="1">
  <advance width="0"/>
  <unicode hex="FBB9"/>
  <outline>
    <component base="threedotsdowncenter-ar" xOffset="-1" yOffset="-920"/>
    <contour>
      <point x="331" y="-136" type="move" name="_bottom"/>
    </contour>
    <contour>
      <point x="350" y="-903" type="move" name="bottom"/>
    </contour>
  </outline>
</glyph>
<glyph name="fourdotsabove-ar" format="1">
  <advance width="0"/>
  <unicode hex="FBBA"/>
  <outline>
    <component base="dotcenter-ar" xOffset="13" yOffset="275" xScale="0.772" yScale="0.772"/>
    <component base="dotcenter-ar" xOffset="-7" yOffset="589" xScale="0.772" yScale="0.772"/>
    <component base="dotcenter-ar" xOffset="306" yOffset="299" xScale="0.772" yScale="0.772"/>
    <component base="dotcenter-ar" xOffset="286" yOffset="603" xScale="0.772" yScale="0.772"/>
    <contour>
      <point x="288" y="1425" type="move" name="top"/>
    </contour>
    <contour>
      <point x="318" y="614" type="move" name="_top"/>
    </contour>
  </outline>
</glyph>
<glyph name="fourdotsbelow-ar" format="1">
  <advance width="0"/>
  <unicode hex="FBBB"/>
  <outline>
    <component base="fourdotsabove-ar" xOffset="-7" yOffset="-1265"/>
    <contour>
      <point x="282" y="-52" type="move" name="_bottom"/>
    </contour>
    <contour>
      <point x="328" y="-862" type="move" name="bottom"/>
    </contour>
  </outline>
</glyph>
<glyph name="twodotsverticalbelow-ar" format="1">
  <advance width="0"/>
  <unicode hex="FBBE"/>
  <outline>
    <component base="twodotsverticalabove-ar" xOffset="-7" yOffset="-1306"/>
    <contour>
      <point x="144" y="-18" type="move" name="_bottom"/>
    </contour>
    <contour>
      <point x="170" y="-875" type="move" name="bottom"/>
    </contour>
  </outline>
</glyph>
<glyph name="ng-ar.fina" format="1">
  <advance width="1449"/>
  <unicode hex="FBD4"/>
  <outline>
    <component base="kaf-ar.fina"/>
    <component base="threedotsupabove-ar" xOffset="300" yOffset="409"/>
    <contour>
      <point x="639" y="-240" type="move" name="bottom"/>
    </contour>
  </outline>
</glyph>
<glyph name="ng-ar.init" format="1">
  <advance width="849"/>
  <unicode hex="FBD5"/>
  <outline>
    <component base="kaf-ar.init"/>
    <component base="threedotsupabove-ar" xOffset="131" yOffset="985"/>
    <contour>
      <point x="290" y="-200" type="move" name="bottom"/>
    </contour>
  </outline>
</glyph>
<glyph name="ve-ar.fina" format="1">
  <advance width="1112"/>
  <unicode hex="FBDF"/>
  <outline>
    <component base="waw-ar.fina"/>
    <component base="threedotsupabove-ar" xOffset="236" yOffset="434"/>
    <contour>
      <point x="419" y="-675" type="move" name="bottom"/>
    </contour>
  </outline>
</glyph>
<glyph name="e-ar.fina" format="1">
  <advance width="1619"/>
  <unicode hex="FBE5"/>
  <outline>
    <component base="alefMaksura-ar.fina"/>
    <component base="twodotsverticalbelow-ar" xOffset="533" yOffset="-794"/>
    <contour>
      <point x="871" y="580" type="move" name="top"/>
    </contour>
  </outline>
</glyph>
<glyph name="e-ar.medi" format="1">
  <advance width="893"/>
  <unicode hex="FBE7"/>
  <outline>
    <component base="behDotless-ar.medi"/>
    <component base="twodotsverticalbelow-ar" xOffset="151" yOffset="-192"/>
    <contour>
      <point x="516" y="810" type="move" name="top"/>
    </contour>
  </outline>
</glyph>
<glyph name="yeh-farsi.init" format="1">
  <advance width="842"/>
  <unicode hex="FBFE"/>
  <outline>
    <component base="yeh-ar.init"/>
    <contour>
      <point x="535" y="1090" type="move" name="top"/>
    </contour>
  </outline>
</glyph>
<glyph name="allah-ar" format="1">
  <advance width="2528"/>
  <unicode hex="FDF2"/>
  <outline>
    <contour>
      <point x="180" y="-24"/>
      <point x="474" y="-45"/>
      <point x="725" y="-23" type="curve"/>
      <point x="796" y="95" type="line"/>
      <point x="854" y="1"/>
      <point x="952" y="-44"/>
      <point x="1078" y="-44" type="curve" smooth="yes"/>
      <point x="1206" y="-44"/>
      <point x="1345" y="1"/>
      <point x="1427" y="68" type="curve"/>
      <point x="1484" y="-4"/>
      <point x="1580" y="-45"/>
      <point x="1691" y="-45" type="curve" smooth="yes"/>
      <point x="1920" y="-45"/>
      <point x="2068" y="106"/>
      <point x="2068" y="336" type="curve" smooth="yes"/>
      <point x="2068" y="392"/>
      <point x="2061" y="463"/>
      <point x="2047" y="568" type="curve" smooth="yes"/>
      <point x="1987" y="1014" type="line"/>
      <point x="1800" y="890" type="line"/>
      <point x="1915" y="214" type="line"/>
      <point x="1904" y="202"/>
      <point x="1782" y="162"/>
      <point x="1710" y="162" type="curve" smooth="yes"/>
      <point x="1524" y="162"/>
      <point x="1509" y="255"/>
      <point x="1496" y="504" type="curve" smooth="yes"/>
      <point x="1475" y="899" type="line"/>
      <point x="1288" y="844" type="line"/>
      <point x="1339" y="215" type="line"/>
      <point x="1278" y="186"/>
      <point x="1166" y="171"/>
      <point x="1098" y="171" type="curve" smooth="yes"/>
      <point x="900" y="171"/>
      <point x="901" y="230"/>
      <point x="889" y="716" type="curve" smooth="yes"/>
      <point x="882" y="1002" type="line"/>
      <point x="691" y="925" type="line"/>
      <point x="703" y="732" type="line"/>
      <point x="361" y="562"/>
      <point x="180" y="363"/>
      <point x="180" y="147" type="curve" smooth="yes"/>
    </contour>
    <contour>
      <point x="390" y="358"/>
      <point x="549" y="474"/>
      <point x="716" y="546" type="curve"/>
      <point x="748" y="191" type="line"/>
      <point x="670" y="154"/>
      <point x="363" y="189"/>
      <point x="322" y="256" type="curve"/>
    </contour>
    <contour>
      <point x="1114" y="1316" type="line"/>
      <point x="1102" y="1167" type="line"/>
      <point x="1102" y="1071"/>
      <point x="1155" y="1021"/>
      <point x="1256" y="1021" type="curve" smooth="yes"/>
      <point x="1305" y="1021"/>
      <point x="1356" y="1035"/>
      <point x="1392" y="1057" type="curve"/>
      <point x="1420" y="1042"/>
      <point x="1459" y="1034"/>
      <point x="1501" y="1034" type="curve" smooth="yes"/>
      <point x="1613" y="1034"/>
      <point x="1676" y="1093"/>
      <point x="1676" y="1198" type="curve" smooth="yes"/>
      <point x="1676" y="1244"/>
      <point x="1670" y="1250"/>
      <point x="1636" y="1404" type="curve"/>
      <point x="1516" y="1365" type="line"/>
      <point x="1568" y="1196" type="line"/>
      <point x="1456" y="1186" type="line"/>
      <point x="1448" y="1322" type="line"/>
      <point x="1331" y="1318" type="line"/>
      <point x="1332" y="1181" type="line"/>
      <point x="1212" y="1173" type="line"/>
      <point x="1220" y="1318" type="line"/>
    </contour>
    <contour>
      <point x="1324" y="1399" type="line"/>
      <point x="1445" y="1424" type="line"/>
      <point x="1447" y="1702" type="line"/>
      <point x="1307" y="1674" type="line"/>
    </contour>
    <contour>
      <point x="2212" y="-35" type="line"/>
      <point x="2388" y="10" type="line"/>
      <point x="2381" y="1438" type="line"/>
      <point x="2155" y="1307" type="line"/>
    </contour>
  </outline>
</glyph>
<glyph name="rial" format="1">
  <advance width="2744"/>
  <unicode hex="FDFC"/>
  <outline>
    <contour>
      <point x="245" y="395" type="line"/>
      <point x="201" y="212" type="line"/>
      <point x="180" y="70" type="line"/>
      <point x="180" y="-112"/>
      <point x="290" y="-217"/>
      <point x="481" y="-217" type="curve" smooth="yes"/>
      <point x="681" y="-217"/>
      <point x="1027" y="-147"/>
      <point x="1033" y="66" type="curve"/>
      <point x="970" y="1171" type="line"/>
      <point x="1106" y="1108"/>
      <point x="1203" y="1071"/>
      <point x="1212" y="820" type="curve" smooth="yes"/>
      <point x="1222" y="283" type="line" smooth="yes"/>
      <point x="1227" y="29"/>
      <point x="1351" y="-14"/>
      <point x="1572" y="-14" type="curve" smooth="yes"/>
      <point x="1980" y="-14"/>
      <point x="2125" y="81"/>
      <point x="2125" y="280" type="curve" smooth="yes"/>
      <point x="2125" y="343"/>
      <point x="2082" y="522"/>
      <point x="2052" y="650" type="curve"/>
      <point x="1923" y="547" type="line"/>
      <point x="2006" y="197" type="line"/>
      <point x="1970" y="167"/>
      <point x="1764" y="140"/>
      <point x="1575" y="140" type="curve" smooth="yes"/>
      <point x="1519" y="140"/>
      <point x="1351" y="160"/>
      <point x="1351" y="189" type="curve" smooth="yes"/>
      <point x="1356" y="824" type="line" smooth="yes"/>
      <point x="1356" y="1096"/>
      <point x="1301" y="1178"/>
      <point x="1045" y="1313" type="curve"/>
      <point x="814" y="1118" type="line"/>
      <point x="906" y="25" type="line"/>
      <point x="860" y="8"/>
      <point x="692" y="-49"/>
      <point x="510" y="-49" type="curve" smooth="yes"/>
      <point x="378" y="-49"/>
      <point x="302" y="12"/>
      <point x="302" y="117" type="curve" smooth="yes"/>
      <point x="302" y="150"/>
      <point x="309" y="178"/>
      <point x="356" y="373" type="curve"/>
    </contour>
    <contour>
      <point x="2406" y="566" type="line"/>
      <point x="2496" y="254" type="line"/>
      <point x="2410" y="53"/>
      <point x="2311" y="-33"/>
      <point x="2141" y="-33" type="curve" smooth="yes"/>
      <point x="2108" y="-33"/>
      <point x="2072" y="-29"/>
      <point x="2031" y="-22" type="curve"/>
      <point x="2004" y="-127" type="line"/>
      <point x="2088" y="-153"/>
      <point x="2161" y="-170"/>
      <point x="2225" y="-170" type="curve" smooth="yes"/>
      <point x="2280" y="-170"/>
      <point x="2329" y="-158"/>
      <point x="2376" y="-132" type="curve" smooth="yes"/>
      <point x="2497" y="-65"/>
      <point x="2604" y="134"/>
      <point x="2604" y="288" type="curve" smooth="yes"/>
      <point x="2604" y="392"/>
      <point x="2562" y="552"/>
      <point x="2526" y="694" type="curve"/>
    </contour>
    <contour>
      <point x="1525" y="-383" type="line"/>
      <point x="1625" y="-264" type="line"/>
      <point x="1767" y="-383" type="line"/>
      <point x="1886" y="-242" type="line"/>
      <point x="1743" y="-122" type="line"/>
      <point x="1643" y="-241" type="line"/>
      <point x="1501" y="-122" type="line"/>
      <point x="1382" y="-263" type="line"/>
    </contour>
  </outline>
</glyph>
<glyph name="alef-ar.fina" format="1">
  <advance width="683"/>
  <unicode hex="FE8E"/>
  <outline>
    <contour>
      <point x="230" y="401" type="line" smooth="yes"/>
      <point x="243" y="148"/>
      <point x="336" y="0"/>
      <point x="572" y="0" type="curve" smooth="yes"/>
      <point x="703" y="0" type="line"/>
      <point x="738" y="35"/>
      <point x="753" y="72"/>
      <point x="753" y="112" type="curve" smooth="yes"/>
      <point x="753" y="152"/>
      <point x="738" y="188"/>
      <point x="703" y="223" type="curve"/>
      <point x="618" y="223" type="line" smooth="yes"/>
      <point x="570" y="223"/>
      <point x="478" y="240"/>
      <point x="413" y="279" type="curve"/>
      <point x="395" y="1489" type="line"/>
      <point x="180" y="1413" type="line"/>
    </contour>
    <contour>
      <point x="296" y="1698" type="move" name="top"/>
    </contour>
    <contour>
      <point x="572" y="-210" type="move" name="bottom"/>
    </contour>
  </outline>
</glyph>
<glyph name="teh-ar.fina" format="1">
  <advance width="1984"/>
  <unicode hex="FE96"/>
  <outline>
    <component base="behDotless-ar.fina"/>
    <component base="twodotshorizontalabove-ar" xOffset="560" yOffset="-25"/>
    <contour>
      <point x="817" y="-260" type="move" name="bottom"/>
    </contour>
  </outline>
</glyph>
<glyph name="theh-ar.fina" format="1">
  <advance width="1984"/>
  <unicode hex="FE9A"/>
  <outline>
    <component base="behDotless-ar.fina"/>
    <component base="threedotsupabove-ar" xOffset="573" yOffset="186"/>
    <contour>
      <point x="777" y="-240" type="move" name="bottom"/>
    </contour>
  </outline>
</glyph>
<glyph name="theh-ar.init" format="1">
  <advance width="753"/>
  <unicode hex="FE9B"/>
  <outline>
    <component base="behDotless-ar.init"/>
    <component base="threedotsupabove-ar" xOffset="94" yOffset="522"/>
    <contour>
      <point x="269" y="-190" type="move" name="bottom"/>
    </contour>
  </outline>
</glyph>
<glyph name="theh-ar.medi" format="1">
  <advance width="893"/>
  <unicode hex="FE9C"/>
  <outline>
    <component base="behDotless-ar.medi"/>
    <component base="threedotsupabove-ar" xOffset="184" yOffset="214"/>
    <contour>
      <point x="267" y="-190" type="move" name="bottom"/>
    </contour>
  </outline>
</glyph>
<glyph name="hah-ar.fina" format="1">
  <advance width="1290"/>
  <unicode hex="FEA2"/>
  <outline>
    <contour>
      <point x="1229" y="223" type="line" smooth="yes"/>
      <point x="1066" y="223"/>
      <point x="940" y="300"/>
      <point x="882" y="437" type="curve"/>
      <point x="981" y="464"/>
      <point x="1090" y="480"/>
      <point x="1208" y="483" type="curve"/>
      <point x="1268" y="726" type="line"/>
      <point x="1149" y="729" type="line" smooth="yes"/>
      <point x="817" y="737"/>
      <point x="669" y="881"/>
      <point x="478" y="881" type="curve" smooth="yes"/>
      <point x="410" y="881"/>
      <point x="308" y="817"/>
      <point x="222" y="726" type="curve"/>
      <point x="314" y="567" type="line"/>
      <point x="377" y="620"/>
      <point x="431" y="660"/>
      <point x="473" y="660" type="curve" smooth="yes"/>
      <point x="504" y="660"/>
      <point x="500" y="659"/>
      <point x="742" y="590" type="curve"/>
      <point x="417" y="491"/>
      <point x="180" y="185"/>
      <point x="180" y="-162" type="curve" smooth="yes"/>
      <point x="180" y="-521"/>
      <point x="369" y="-697"/>
      <point x="755" y="-697" type="curve" smooth="yes"/>
      <point x="870" y="-697"/>
      <point x="1082" y="-674"/>
      <point x="1181" y="-643" type="curve"/>
      <point x="1238" y="-421" type="line"/>
      <point x="1159" y="-436"/>
      <point x="1016" y="-465"/>
      <point x="845" y="-465" type="curve" smooth="yes"/>
      <point x="529" y="-465"/>
      <point x="349" y="-349"/>
      <point x="349" y="-146" type="curve" smooth="yes"/>
      <point x="349" y="82"/>
      <point x="491" y="269"/>
      <point x="724" y="379" type="curve"/>
      <point x="815" y="135"/>
      <point x="988" y="0"/>
      <point x="1214" y="0" type="curve" smooth="yes"/>
      <point x="1305" y="0" type="line"/>
      <point x="1340" y="35"/>
      <point x="1355" y="72"/>
      <point x="1355" y="112" type="curve" smooth="yes"/>
      <point x="1355" y="152"/>
      <point x="1340" y="188"/>
      <point x="1305" y="223" type="curve"/>
    </contour>
    <contour>
      <point x="735" y="-90" type="move" name="center"/>
    </contour>
    <contour>
      <point x="755" y="-892" type="move" name="bottom"/>
    </contour>
    <contour>
      <point x="476" y="1083" type="move" name="top"/>
    </contour>
  </outline>
</glyph>
<glyph name="hah-ar.init" format="1">
  <advance width="1598"/>
  <unicode hex="FEA3"/>
  <outline>
    <contour>
      <point x="1038" y="567"/>
      <point x="747" y="812"/>
      <point x="503" y="812" type="curve" smooth="yes"/>
      <point x="428" y="812"/>
      <point x="324" y="757"/>
      <point x="239" y="683" type="curve"/>
      <point x="303" y="476" type="line"/>
      <point x="373" y="543"/>
      <point x="441" y="593"/>
      <point x="483" y="593" type="curve" smooth="yes"/>
      <point x="573" y="593"/>
      <point x="792" y="496"/>
      <point x="965" y="441" type="curve"/>
      <point x="727" y="364"/>
      <point x="382" y="223"/>
      <point x="15" y="223" type="curve" smooth="yes"/>
      <point x="-15" y="223" type="line" smooth="yes"/>
      <point x="-75" y="223"/>
      <point x="-120" y="172"/>
      <point x="-120" y="112" type="curve" smooth="yes"/>
      <point x="-120" y="52"/>
      <point x="-75" y="0"/>
      <point x="-15" y="0" type="curve" smooth="yes"/>
      <point x="15" y="0" type="line" smooth="yes"/>
      <point x="408" y="0"/>
      <point x="827" y="211"/>
      <point x="1037" y="280" type="curve" smooth="yes"/>
      <point x="1149" y="317"/>
      <point x="1350" y="325"/>
      <point x="1383" y="322" type="curve"/>
      <point x="1458" y="567" type="line"/>
      <point x="1403" y="567" type="line" smooth="yes"/>
    </contour>
    <contour>
      <point x="506" y="1013" type="move" name="top"/>
    </contour>
    <contour>
      <point x="650" y="-58" type="move" name="bottom"/>
    </contour>
  </outline>
</glyph>
<glyph name="hah-ar.medi" format="1">
  <advance width="1559"/>
  <unicode hex="FEA4"/>
  <outline>
    <contour>
      <point x="1499" y="223" type="line" smooth="yes"/>
      <point x="1388" y="223"/>
      <point x="1308" y="255"/>
      <point x="1247" y="325" type="curve"/>
      <point x="1278" y="327"/>
      <point x="1350" y="325"/>
      <point x="1383" y="322" type="curve"/>
      <point x="1458" y="567" type="line"/>
      <point x="1403" y="567" type="line" smooth="yes"/>
      <point x="1038" y="567"/>
      <point x="747" y="812"/>
      <point x="503" y="812" type="curve" smooth="yes"/>
      <point x="428" y="812"/>
      <point x="324" y="757"/>
      <point x="239" y="683" type="curve"/>
      <point x="303" y="476" type="line"/>
      <point x="373" y="543"/>
      <point x="441" y="593"/>
      <point x="483" y="593" type="curve" smooth="yes"/>
      <point x="573" y="593"/>
      <point x="792" y="496"/>
      <point x="965" y="441" type="curve"/>
      <point x="727" y="364"/>
      <point x="382" y="223"/>
      <point x="15" y="223" type="curve" smooth="yes"/>
      <point x="-15" y="223" type="line" smooth="yes"/>
      <point x="-75" y="223"/>
      <point x="-120" y="172"/>
      <point x="-120" y="112" type="curve" smooth="yes"/>
      <point x="-120" y="52"/>
      <point x="-75" y="0"/>
      <point x="-15" y="0" type="curve" smooth="yes"/>
      <point x="15" y="0" type="line" smooth="yes"/>
      <point x="408" y="0"/>
      <point x="827" y="210"/>
      <point x="1037" y="280" type="curve"/>
      <point x="1129" y="136"/>
      <point x="1246" y="0"/>
      <point x="1499" y="0" type="curve" smooth="yes"/>
      <point x="1574" y="0" type="line"/>
      <point x="1609" y="35"/>
      <point x="1624" y="72"/>
      <point x="1624" y="112" type="curve" smooth="yes"/>
      <point x="1624" y="152"/>
      <point x="1609" y="188"/>
      <point x="1574" y="223" type="curve"/>
    </contour>
    <contour>
      <point x="502" y="1013" type="move" name="top"/>
    </contour>
    <contour>
      <point x="799" y="-10" type="move" name="bottom"/>
    </contour>
  </outline>
</glyph>
<glyph name="dal-ar.fina" format="1">
  <advance width="1348"/>
  <unicode hex="FEAA"/>
  <outline>
    <contour>
      <point x="1272" y="223" type="line" smooth="yes"/>
      <point x="1101" y="223"/>
      <point x="1060" y="272"/>
      <point x="1017" y="535" type="curve" smooth="yes"/>
      <point x="946" y="967" type="line"/>
      <point x="741" y="866" type="line"/>
      <point x="864" y="224" type="line"/>
      <point x="758" y="193"/>
      <point x="617" y="183"/>
      <point x="496" y="183" type="curve" smooth="yes"/>
      <point x="351" y="183"/>
      <point x="346" y="206"/>
      <point x="340" y="342" type="curve"/>
      <point x="183" y="340" type="line"/>
      <point x="181" y="306"/>
      <point x="180" y="275"/>
      <point x="180" y="243" type="curve" smooth="yes"/>
      <point x="180" y="50"/>
      <point x="270" y="-38"/>
      <point x="472" y="-38" type="curve" smooth="yes"/>
      <point x="608" y="-38"/>
      <point x="852" y="-7"/>
      <point x="939" y="56" type="curve" smooth="yes"/>
      <point x="964" y="74"/>
      <point x="982" y="97"/>
      <point x="995" y="126" type="curve"/>
      <point x="1050" y="44"/>
      <point x="1141" y="0"/>
      <point x="1259" y="0" type="curve" smooth="yes"/>
      <point x="1363" y="0" type="line"/>
      <point x="1398" y="35"/>
      <point x="1413" y="72"/>
      <point x="1413" y="112" type="curve" smooth="yes"/>
      <point x="1413" y="152"/>
      <point x="1398" y="188"/>
      <point x="1363" y="223" type="curve"/>
    </contour>
    <contour>
      <point x="878" y="1154" type="move" name="top"/>
    </contour>
    <contour>
      <point x="499" y="-237" type="move" name="bottom"/>
    </contour>
    <contour>
      <point x="892" y="-154" type="move" name="ring"/>
    </contour>
  </outline>
</glyph>
<glyph name="reh-ar.fina" format="1">
  <advance width="1159"/>
  <unicode hex="FEAE"/>
  <outline>
    <contour>
      <point x="1011" y="223" type="line" smooth="yes"/>
      <point x="861" y="223"/>
      <point x="819" y="264"/>
      <point x="764" y="533" type="curve" smooth="yes"/>
      <point x="730" y="699" type="line"/>
      <point x="538" y="584" type="line"/>
      <point x="651" y="122" type="line"/>
      <point x="548" y="-147"/>
      <point x="413" y="-265"/>
      <point x="188" y="-265" type="curve" smooth="yes"/>
      <point x="135" y="-265"/>
      <point x="81" y="-259"/>
      <point x="22" y="-246" type="curve"/>
      <point x="-23" y="-394" type="line"/>
      <point x="132" y="-445"/>
      <point x="221" y="-465"/>
      <point x="296" y="-465" type="curve" smooth="yes"/>
      <point x="357" y="-465"/>
      <point x="413" y="-451"/>
      <point x="476" y="-418" type="curve" smooth="yes"/>
      <point x="619" y="-343"/>
      <point x="759" y="-132"/>
      <point x="803" y="65" type="curve"/>
      <point x="857" y="21"/>
      <point x="926" y="0"/>
      <point x="1011" y="0" type="curve" smooth="yes"/>
      <point x="1174" y="0" type="line"/>
      <point x="1209" y="35"/>
      <point x="1224" y="72"/>
      <point x="1224" y="112" type="curve" smooth="yes"/>
      <point x="1224" y="152"/>
      <point x="1209" y="188"/>
      <point x="1174" y="223" type="curve"/>
    </contour>
    <contour>
      <point x="668" y="894" type="move" name="top"/>
    </contour>
    <contour>
      <point x="320" y="-665" type="move" name="bottom"/>
    </contour>
    <contour>
      <point x="643" y="-495" type="move" name="ring"/>
    </contour>
  </outline>
</glyph>
<glyph name="seen-ar.fina" format="1">
  <advance width="2816"/>
  <unicode hex="FEB2"/>
  <outline>
    <contour>
      <point x="2723" y="223" type="line" smooth="yes"/>
      <point x="2583" y="223"/>
      <point x="2550" y="269"/>
      <point x="2509" y="532" type="curve" smooth="yes"/>
      <point x="2486" y="678" type="line"/>
      <point x="2486" y="679" type="line"/>
      <point x="2294" y="597" type="line"/>
      <point x="2354" y="228" type="line"/>
      <point x="2300" y="217"/>
      <point x="2249" y="212"/>
      <point x="2199" y="212" type="curve" smooth="yes"/>
      <point x="2109" y="212"/>
      <point x="2025" y="230"/>
      <point x="1948" y="264" type="curve"/>
      <point x="1948" y="268"/>
      <point x="1949" y="275"/>
      <point x="1951" y="286" type="curve"/>
      <point x="1987" y="587" type="line"/>
      <point x="1823" y="603" type="line"/>
      <point x="1790" y="358" type="line" smooth="yes"/>
      <point x="1776" y="254"/>
      <point x="1714" y="217"/>
      <point x="1551" y="217" type="curve" smooth="yes"/>
      <point x="1413" y="217"/>
      <point x="1329" y="223"/>
      <point x="1317" y="318" type="curve" smooth="yes"/>
      <point x="1281" y="595" type="line"/>
      <point x="1281" y="596" type="line"/>
      <point x="1077" y="492" type="line"/>
      <point x="1179" y="-142" type="line"/>
      <point x="1108" y="-174"/>
      <point x="873" y="-266"/>
      <point x="638" y="-266" type="curve" smooth="yes"/>
      <point x="451" y="-266"/>
      <point x="355" y="-182"/>
      <point x="355" y="-20" type="curve" smooth="yes"/>
      <point x="355" y="31"/>
      <point x="361" y="52"/>
      <point x="398" y="250" type="curve"/>
      <point x="235" y="275" type="line"/>
      <point x="235" y="276" type="line"/>
      <point x="188" y="37"/>
      <point x="180" y="1"/>
      <point x="180" y="-82" type="curve" smooth="yes"/>
      <point x="180" y="-353"/>
      <point x="337" y="-510"/>
      <point x="611" y="-510" type="curve" smooth="yes"/>
      <point x="832" y="-510"/>
      <point x="1191" y="-416"/>
      <point x="1311" y="-249" type="curve" smooth="yes"/>
      <point x="1342" y="-206"/>
      <point x="1356" y="-157"/>
      <point x="1356" y="-84" type="curve" smooth="yes"/>
      <point x="1356" y="-54"/>
      <point x="1355" y="-23"/>
      <point x="1352" y="11" type="curve"/>
      <point x="1414" y="-2"/>
      <point x="1481" y="-9"/>
      <point x="1543" y="-9" type="curve" smooth="yes"/>
      <point x="1667" y="-9"/>
      <point x="1784" y="25"/>
      <point x="1840" y="75" type="curve"/>
      <point x="1932" y="25"/>
      <point x="2052" y="-4"/>
      <point x="2172" y="-4" type="curve" smooth="yes"/>
      <point x="2326" y="-4"/>
      <point x="2422" y="32"/>
      <point x="2469" y="110" type="curve"/>
      <point x="2533" y="39"/>
      <point x="2623" y="0"/>
      <point x="2723" y="0" type="curve" smooth="yes"/>
      <point x="2831" y="0" type="line"/>
      <point x="2866" y="35"/>
      <point x="2881" y="72"/>
      <point x="2881" y="112" type="curve" smooth="yes"/>
      <point x="2881" y="152"/>
      <point x="2866" y="188"/>
      <point x="2831" y="223" type="curve"/>
    </contour>
    <contour>
      <point x="687" y="654" type="move" name="top"/>
    </contour>
    <contour>
      <point x="613" y="-709" type="move" name="bottom"/>
    </contour>
  </outline>
</glyph>
<glyph name="seen-ar.init" format="1">
  <advance width="1803"/>
  <unicode hex="FEB3"/>
  <outline>
    <contour>
      <point x="1660" y="424"/>
      <point x="1616" y="673"/>
      <point x="1576" y="837" type="curve"/>
      <point x="1390" y="717" type="line"/>
      <point x="1510" y="229" type="line"/>
      <point x="1396" y="200"/>
      <point x="1304" y="199"/>
      <point x="1124" y="267" type="curve"/>
      <point x="1163" y="587" type="line"/>
      <point x="1000" y="607" type="line"/>
      <point x="965" y="366" type="line" smooth="yes"/>
      <point x="950" y="261"/>
      <point x="889" y="224"/>
      <point x="728" y="224" type="curve" smooth="yes"/>
      <point x="655" y="224"/>
      <point x="560" y="234"/>
      <point x="489" y="254" type="curve"/>
      <point x="526" y="587" type="line"/>
      <point x="361" y="601" type="line"/>
      <point x="341" y="452" type="line" smooth="yes"/>
      <point x="315" y="260"/>
      <point x="288" y="233"/>
      <point x="114" y="223" type="curve"/>
      <point x="-15" y="223" type="line" smooth="yes"/>
      <point x="-75" y="223"/>
      <point x="-120" y="172"/>
      <point x="-120" y="112" type="curve" smooth="yes"/>
      <point x="-120" y="52"/>
      <point x="-75" y="0"/>
      <point x="-15" y="0" type="curve" smooth="yes"/>
      <point x="119" y="0" type="line" smooth="yes"/>
      <point x="202" y="0"/>
      <point x="298" y="35"/>
      <point x="352" y="83" type="curve"/>
      <point x="441" y="18"/>
      <point x="605" y="0"/>
      <point x="719" y="0" type="curve" smooth="yes"/>
      <point x="845" y="0"/>
      <point x="960" y="34"/>
      <point x="1016" y="83" type="curve"/>
      <point x="1113" y="28"/>
      <point x="1232" y="-1"/>
      <point x="1346" y="-1" type="curve" smooth="yes"/>
      <point x="1583" y="-1"/>
      <point x="1670" y="88"/>
      <point x="1663" y="324" type="curve" smooth="yes"/>
    </contour>
    <contour>
      <point x="936" y="803" type="move" name="top"/>
    </contour>
    <contour>
      <point x="1042" y="-201" type="move" name="bottom"/>
    </contour>
  </outline>
</glyph>
<glyph name="seen-ar.medi" format="1">
  <advance width="1978"/>
  <unicode hex="FEB4"/>
  <outline>
    <contour>
      <point x="1994" y="223" type="curve"/>
      <point x="1887" y="223" type="line" smooth="yes"/>
      <point x="1734" y="223"/>
      <point x="1693" y="279"/>
      <point x="1674" y="529" type="curve" smooth="yes"/>
      <point x="1663" y="676" type="line"/>
      <point x="1471" y="595" type="line"/>
      <point x="1520" y="238" type="line"/>
      <point x="1466" y="227"/>
      <point x="1411" y="222"/>
      <point x="1356" y="222" type="curve" smooth="yes"/>
      <point x="1268" y="222"/>
      <point x="1187" y="236"/>
      <point x="1112" y="264" type="curve"/>
      <point x="1153" y="587" type="line"/>
      <point x="988" y="603" type="line"/>
      <point x="952" y="346" type="line" smooth="yes"/>
      <point x="939" y="253"/>
      <point x="882" y="223"/>
      <point x="716" y="223" type="curve" smooth="yes"/>
      <point x="645" y="223"/>
      <point x="557" y="234"/>
      <point x="487" y="252" type="curve"/>
      <point x="516" y="588" type="line"/>
      <point x="350" y="601" type="line"/>
      <point x="327" y="434" type="line" smooth="yes"/>
      <point x="301" y="244"/>
      <point x="282" y="223"/>
      <point x="124" y="223" type="curve" smooth="yes"/>
      <point x="-15" y="223" type="line" smooth="yes"/>
      <point x="-75" y="223"/>
      <point x="-120" y="172"/>
      <point x="-120" y="112" type="curve" smooth="yes"/>
      <point x="-120" y="52"/>
      <point x="-75" y="0"/>
      <point x="-15" y="0" type="curve" smooth="yes"/>
      <point x="108" y="0" type="line" smooth="yes"/>
      <point x="191" y="0"/>
      <point x="287" y="34"/>
      <point x="340" y="82" type="curve"/>
      <point x="430" y="11"/>
      <point x="595" y="0"/>
      <point x="708" y="0" type="curve" smooth="yes"/>
      <point x="831" y="0"/>
      <point x="947" y="33"/>
      <point x="1004" y="84" type="curve"/>
      <point x="1098" y="30"/>
      <point x="1217" y="-1"/>
      <point x="1330" y="-1" type="curve" smooth="yes"/>
      <point x="1481" y="-1"/>
      <point x="1583" y="41"/>
      <point x="1632" y="121" type="curve"/>
      <point x="1685" y="46"/>
      <point x="1780" y="0"/>
      <point x="1887" y="0" type="curve" smooth="yes"/>
      <point x="1994" y="0" type="line"/>
      <point x="2028" y="36"/>
      <point x="2043" y="72"/>
      <point x="2043" y="112" type="curve" smooth="yes"/>
      <point x="2043" y="152"/>
      <point x="2028" y="187"/>
    </contour>
    <contour>
      <point x="1013" y="803" type="move" name="top"/>
    </contour>
    <contour>
      <point x="1093" y="-191" type="move" name="bottom"/>
    </contour>
  </outline>
</glyph>
<glyph name="sheen-ar.fina" format="1">
  <advance width="2816"/>
  <unicode hex="FEB6"/>
  <outline>
    <component base="seen-ar.fina"/>
    <component base="threedotsupabove-ar" xOffset="1550" yOffset="164"/>
    <contour>
      <point x="645" y="-710" type="move" name="bottom"/>
    </contour>
  </outline>
</glyph>
<glyph name="sad-ar.fina" format="1">
  <advance width="2805"/>
  <unicode hex="FEBA"/>
  <outline>
    <contour>
      <point x="2716" y="223" type="line" smooth="yes"/>
      <point x="2660" y="223"/>
      <point x="2558" y="227"/>
      <point x="2482" y="240" type="curve"/>
      <point x="2492" y="274"/>
      <point x="2497" y="310"/>
      <point x="2497" y="347" type="curve" smooth="yes"/>
      <point x="2497" y="585"/>
      <point x="2290" y="810"/>
      <point x="2066" y="812" type="curve" smooth="yes"/>
      <point x="1871" y="814"/>
      <point x="1635" y="641"/>
      <point x="1334" y="285" type="curve"/>
      <point x="1318" y="301"/>
      <point x="1310" y="348"/>
      <point x="1279" y="583" type="curve"/>
      <point x="1077" y="484" type="line"/>
      <point x="1179" y="-142" type="line"/>
      <point x="1108" y="-173"/>
      <point x="872" y="-266"/>
      <point x="636" y="-266" type="curve" smooth="yes"/>
      <point x="448" y="-266"/>
      <point x="354" y="-182"/>
      <point x="354" y="-17" type="curve" smooth="yes"/>
      <point x="354" y="36"/>
      <point x="361" y="67"/>
      <point x="397" y="263" type="curve"/>
      <point x="234" y="287" type="line"/>
      <point x="234" y="288" type="line"/>
      <point x="187" y="34"/>
      <point x="180" y="3"/>
      <point x="180" y="-79" type="curve" smooth="yes"/>
      <point x="180" y="-353"/>
      <point x="336" y="-510"/>
      <point x="610" y="-510" type="curve" smooth="yes"/>
      <point x="831" y="-510"/>
      <point x="1180" y="-416"/>
      <point x="1300" y="-249" type="curve" smooth="yes"/>
      <point x="1339" y="-195"/>
      <point x="1351" y="-150"/>
      <point x="1351" y="-68" type="curve" smooth="yes"/>
      <point x="1351" y="-33"/>
      <point x="1349" y="5"/>
      <point x="1345" y="45" type="curve"/>
      <point x="1455" y="12"/>
      <point x="1592" y="-6"/>
      <point x="1737" y="-6" type="curve" smooth="yes"/>
      <point x="1960" y="-6"/>
      <point x="2217" y="32"/>
      <point x="2357" y="87" type="curve"/>
      <point x="2431" y="12"/>
      <point x="2552" y="0"/>
      <point x="2716" y="0" type="curve" smooth="yes"/>
      <point x="2820" y="0" type="line"/>
      <point x="2855" y="35"/>
      <point x="2870" y="72"/>
      <point x="2870" y="112" type="curve" smooth="yes"/>
      <point x="2870" y="152"/>
      <point x="2855" y="188"/>
      <point x="2820" y="223" type="curve"/>
    </contour>
    <contour>
      <point x="1709" y="211"/>
      <point x="1603" y="219"/>
      <point x="1492" y="236" type="curve"/>
      <point x="1701" y="480"/>
      <point x="1868" y="590"/>
      <point x="2029" y="590" type="curve" smooth="yes"/>
      <point x="2199" y="590"/>
      <point x="2311" y="377"/>
      <point x="2336" y="300" type="curve"/>
      <point x="2178" y="241"/>
      <point x="2003" y="211"/>
      <point x="1813" y="211" type="curve" smooth="yes"/>
    </contour>
    <contour>
      <point x="717" y="620" type="move" name="top"/>
    </contour>
    <contour>
      <point x="615" y="-709" type="move" name="bottom"/>
    </contour>
  </outline>
</glyph>
<glyph name="sad-ar.init" format="1">
  <advance width="1756"/>
  <unicode hex="FEBB"/>
  <outline>
    <contour>
      <point x="966" y="813"/>
      <point x="727" y="639"/>
      <point x="422" y="273" type="curve"/>
      <point x="395" y="283"/>
      <point x="400" y="307"/>
      <point x="410" y="434" type="curve" smooth="yes"/>
      <point x="426" y="591" type="line"/>
      <point x="266" y="604" type="line"/>
      <point x="235" y="384" type="line" smooth="yes"/>
      <point x="219" y="269"/>
      <point x="200" y="223"/>
      <point x="44" y="223" type="curve" smooth="yes"/>
      <point x="-15" y="223" type="line" smooth="yes"/>
      <point x="-75" y="223"/>
      <point x="-120" y="172"/>
      <point x="-120" y="112" type="curve" smooth="yes"/>
      <point x="-120" y="52"/>
      <point x="-75" y="0"/>
      <point x="-15" y="0" type="curve" smooth="yes"/>
      <point x="44" y="0" type="line" smooth="yes"/>
      <point x="139" y="0"/>
      <point x="230" y="35"/>
      <point x="297" y="96" type="curve"/>
      <point x="417" y="29"/>
      <point x="594" y="-8"/>
      <point x="792" y="-6" type="curve" smooth="yes"/>
      <point x="1017" y="-4"/>
      <point x="1306" y="39"/>
      <point x="1476" y="153" type="curve" smooth="yes"/>
      <point x="1558" y="208"/>
      <point x="1616" y="287"/>
      <point x="1616" y="387" type="curve" smooth="yes"/>
      <point x="1616" y="603"/>
      <point x="1395" y="811"/>
      <point x="1163" y="812" type="curve" smooth="yes"/>
    </contour>
    <contour>
      <point x="748" y="217"/>
      <point x="666" y="223"/>
      <point x="589" y="235" type="curve"/>
      <point x="800" y="484"/>
      <point x="942" y="579"/>
      <point x="1096" y="579" type="curve" smooth="yes"/>
      <point x="1286" y="579"/>
      <point x="1410" y="424"/>
      <point x="1452" y="351" type="curve"/>
      <point x="1270" y="254"/>
      <point x="1039" y="217"/>
      <point x="830" y="217" type="curve" smooth="yes"/>
    </contour>
    <contour>
      <point x="1164" y="1013" type="move" name="top"/>
    </contour>
    <contour>
      <point x="819" y="-206" type="move" name="bottom"/>
    </contour>
  </outline>
</glyph>
<glyph name="sad-ar.medi" format="1">
  <advance width="1880"/>
  <unicode hex="FEBC"/>
  <outline>
    <contour>
      <point x="1790" y="223" type="line" smooth="yes"/>
      <point x="1735" y="223"/>
      <point x="1633" y="227"/>
      <point x="1556" y="240" type="curve"/>
      <point x="1566" y="273"/>
      <point x="1571" y="308"/>
      <point x="1571" y="346" type="curve" smooth="yes"/>
      <point x="1571" y="585"/>
      <point x="1364" y="810"/>
      <point x="1140" y="812" type="curve" smooth="yes"/>
      <point x="943" y="814"/>
      <point x="706" y="642"/>
      <point x="407" y="283" type="curve"/>
      <point x="396" y="292"/>
      <point x="400" y="279"/>
      <point x="426" y="589" type="curve"/>
      <point x="266" y="601" type="line"/>
      <point x="235" y="374" type="line" smooth="yes"/>
      <point x="218" y="249"/>
      <point x="187" y="223"/>
      <point x="44" y="223" type="curve" smooth="yes"/>
      <point x="-15" y="223" type="line" smooth="yes"/>
      <point x="-75" y="223"/>
      <point x="-120" y="172"/>
      <point x="-120" y="112" type="curve" smooth="yes"/>
      <point x="-120" y="52"/>
      <point x="-75" y="0"/>
      <point x="-15" y="0" type="curve" smooth="yes"/>
      <point x="44" y="0" type="line" smooth="yes"/>
      <point x="151" y="0"/>
      <point x="242" y="31"/>
      <point x="303" y="90" type="curve"/>
      <point x="423" y="32"/>
      <point x="610" y="-2"/>
      <point x="808" y="-2" type="curve" smooth="yes"/>
      <point x="1020" y="-2"/>
      <point x="1287" y="32"/>
      <point x="1434" y="103" type="curve"/>
      <point x="1503" y="32"/>
      <point x="1615" y="0"/>
      <point x="1790" y="0" type="curve" smooth="yes"/>
      <point x="1895" y="0" type="line"/>
      <point x="1930" y="35"/>
      <point x="1945" y="72"/>
      <point x="1945" y="112" type="curve" smooth="yes"/>
      <point x="1945" y="152"/>
      <point x="1930" y="188"/>
      <point x="1895" y="223" type="curve"/>
    </contour>
    <contour>
      <point x="789" y="209"/>
      <point x="681" y="221"/>
      <point x="567" y="240" type="curve"/>
      <point x="773" y="481"/>
      <point x="941" y="590"/>
      <point x="1103" y="590" type="curve" smooth="yes"/>
      <point x="1274" y="590"/>
      <point x="1385" y="384"/>
      <point x="1411" y="307" type="curve"/>
      <point x="1238" y="240"/>
      <point x="1075" y="209"/>
      <point x="900" y="209" type="curve" smooth="yes"/>
    </contour>
    <contour>
      <point x="1135" y="1018" type="move" name="top"/>
    </contour>
    <contour>
      <point x="861" y="-198" type="move" name="bottom"/>
    </contour>
  </outline>
</glyph>
<glyph name="tah-ar.fina" format="1">
  <advance width="1746"/>
  <unicode hex="FEC2"/>
  <outline>
    <contour>
      <point x="769" y="-18"/>
      <point x="1051" y="11"/>
      <point x="1265" y="93" type="curve"/>
      <point x="1366" y="57"/>
      <point x="1510" y="0"/>
      <point x="1677" y="0" type="curve" smooth="yes"/>
      <point x="1762" y="0" type="line"/>
      <point x="1795" y="37"/>
      <point x="1811" y="73"/>
      <point x="1811" y="112" type="curve" smooth="yes"/>
      <point x="1811" y="150"/>
      <point x="1795" y="186"/>
      <point x="1762" y="223" type="curve"/>
      <point x="1677" y="223" type="line" smooth="yes"/>
      <point x="1637" y="223"/>
      <point x="1559" y="226"/>
      <point x="1494" y="232" type="curve"/>
      <point x="1548" y="288"/>
      <point x="1580" y="354"/>
      <point x="1580" y="434" type="curve" smooth="yes"/>
      <point x="1580" y="646"/>
      <point x="1366" y="856"/>
      <point x="1147" y="857" type="curve" smooth="yes"/>
      <point x="992" y="858"/>
      <point x="818" y="765"/>
      <point x="636" y="584" type="curve"/>
      <point x="642" y="629"/>
      <point x="645" y="682"/>
      <point x="645" y="752" type="curve"/>
      <point x="625" y="1476" type="line"/>
      <point x="400" y="1387" type="line"/>
      <point x="449" y="571" type="line" smooth="yes"/>
      <point x="456" y="403"/>
      <point x="427" y="346"/>
      <point x="319" y="235" type="curve"/>
      <point x="248" y="239"/>
      <point x="248" y="239"/>
      <point x="180" y="248" type="curve"/>
      <point x="217" y="-1" type="line"/>
      <point x="310" y="-9"/>
      <point x="479" y="-18"/>
      <point x="552" y="-18" type="curve" smooth="yes"/>
    </contour>
    <contour>
      <point x="506" y="225" type="line"/>
      <point x="826" y="553"/>
      <point x="925" y="621"/>
      <point x="1069" y="621" type="curve" smooth="yes"/>
      <point x="1184" y="621"/>
      <point x="1343" y="476"/>
      <point x="1411" y="385" type="curve"/>
      <point x="1185" y="272"/>
      <point x="883" y="216"/>
      <point x="592" y="223" type="curve" smooth="yes"/>
    </contour>
    <contour>
      <point x="1147" y="1057" type="move" name="top"/>
    </contour>
    <contour>
      <point x="687" y="-221" type="move" name="bottom"/>
    </contour>
  </outline>
</glyph>
<glyph name="tah-ar.init" format="1">
  <advance width="1643"/>
  <unicode hex="FEC3"/>
  <outline>
    <contour>
      <point x="915" y="858"/>
      <point x="742" y="765"/>
      <point x="559" y="584" type="curve"/>
      <point x="566" y="631"/>
      <point x="569" y="685"/>
      <point x="569" y="748" type="curve"/>
      <point x="549" y="1480" type="line"/>
      <point x="331" y="1395" type="line"/>
      <point x="365" y="627" type="line"/>
      <point x="365" y="423"/>
      <point x="340" y="357"/>
      <point x="214" y="223" type="curve"/>
      <point x="-15" y="223" type="line" smooth="yes"/>
      <point x="-75" y="223"/>
      <point x="-120" y="172"/>
      <point x="-120" y="112" type="curve" smooth="yes"/>
      <point x="-120" y="52"/>
      <point x="-75" y="0"/>
      <point x="-15" y="0" type="curve" smooth="yes"/>
      <point x="353" y="0" type="line" smooth="yes"/>
      <point x="838" y="0"/>
      <point x="1503" y="39"/>
      <point x="1503" y="434" type="curve" smooth="yes"/>
      <point x="1503" y="646"/>
      <point x="1288" y="856"/>
      <point x="1069" y="857" type="curve" smooth="yes"/>
    </contour>
    <contour>
      <point x="750" y="570"/>
      <point x="848" y="637"/>
      <point x="992" y="637" type="curve" smooth="yes"/>
      <point x="1277" y="637"/>
      <point x="1334" y="402"/>
      <point x="1334" y="400" type="curve"/>
      <point x="1049" y="260"/>
      <point x="748" y="251"/>
      <point x="433" y="244" type="curve"/>
    </contour>
    <contour>
      <point x="1069" y="1057" type="move" name="top"/>
    </contour>
    <contour>
      <point x="802" y="-195" type="move" name="bottom"/>
    </contour>
  </outline>
</glyph>
<glyph name="tah-ar.medi" format="1">
  <advance width="1646"/>
  <unicode hex="FEC4"/>
  <outline>
    <contour>
      <point x="1585" y="223" type="line" smooth="yes"/>
      <point x="1546" y="223"/>
      <point x="1459" y="226"/>
      <point x="1395" y="233" type="curve"/>
      <point x="1456" y="292"/>
      <point x="1503" y="354"/>
      <point x="1503" y="434" type="curve" smooth="yes"/>
      <point x="1503" y="646"/>
      <point x="1288" y="856"/>
      <point x="1069" y="857" type="curve" smooth="yes"/>
      <point x="915" y="858"/>
      <point x="742" y="765"/>
      <point x="559" y="584" type="curve"/>
      <point x="566" y="631"/>
      <point x="569" y="685"/>
      <point x="569" y="748" type="curve"/>
      <point x="549" y="1480" type="line"/>
      <point x="331" y="1395" type="line"/>
      <point x="365" y="627" type="line"/>
      <point x="365" y="423"/>
      <point x="340" y="357"/>
      <point x="214" y="223" type="curve"/>
      <point x="-15" y="223" type="line" smooth="yes"/>
      <point x="-75" y="223"/>
      <point x="-120" y="172"/>
      <point x="-120" y="112" type="curve" smooth="yes"/>
      <point x="-120" y="52"/>
      <point x="-75" y="0"/>
      <point x="-15" y="0" type="curve" smooth="yes"/>
      <point x="353" y="0" type="line" smooth="yes"/>
      <point x="610" y="0"/>
      <point x="925" y="1"/>
      <point x="1170" y="89" type="curve"/>
      <point x="1236" y="30"/>
      <point x="1371" y="0"/>
      <point x="1585" y="0" type="curve" smooth="yes"/>
      <point x="1661" y="0" type="line"/>
      <point x="1696" y="35"/>
      <point x="1711" y="72"/>
      <point x="1711" y="112" type="curve" smooth="yes"/>
      <point x="1711" y="152"/>
      <point x="1696" y="188"/>
      <point x="1661" y="223" type="curve"/>
    </contour>
    <contour>
      <point x="750" y="554"/>
      <point x="848" y="621"/>
      <point x="992" y="621" type="curve" smooth="yes"/>
      <point x="1277" y="621"/>
      <point x="1334" y="386"/>
      <point x="1334" y="384" type="curve"/>
      <point x="1049" y="244"/>
      <point x="748" y="235"/>
      <point x="433" y="228" type="curve"/>
    </contour>
    <contour>
      <point x="1070" y="1058" type="move" name="top"/>
    </contour>
    <contour>
      <point x="602" y="-199" type="move" name="bottom"/>
    </contour>
  </outline>
</glyph>
<glyph name="ain-ar.fina" format="1">
  <advance width="1284"/>
  <unicode hex="FECA"/>
  <outline>
    <contour>
      <point x="1237" y="223" type="line" smooth="yes"/>
      <point x="1014" y="223"/>
      <point x="907" y="317"/>
      <point x="791" y="438" type="curve"/>
      <point x="930" y="528"/>
      <point x="1179" y="643"/>
      <point x="1179" y="821" type="curve" smooth="yes"/>
      <point x="1179" y="1020"/>
      <point x="916" y="1119"/>
      <point x="708" y="1119" type="curve" smooth="yes"/>
      <point x="566" y="1119"/>
      <point x="385" y="1063"/>
      <point x="280" y="1018" type="curve"/>
      <point x="183" y="729" type="line"/>
      <point x="304" y="644"/>
      <point x="400" y="566"/>
      <point x="494" y="481" type="curve"/>
      <point x="307" y="334"/>
      <point x="180" y="69"/>
      <point x="180" y="-174" type="curve" smooth="yes"/>
      <point x="180" y="-511"/>
      <point x="410" y="-697"/>
      <point x="825" y="-697" type="curve" smooth="yes"/>
      <point x="926" y="-697"/>
      <point x="1091" y="-682"/>
      <point x="1177" y="-655" type="curve"/>
      <point x="1237" y="-419" type="line"/>
      <point x="1123" y="-435"/>
      <point x="1000" y="-453"/>
      <point x="877" y="-453" type="curve" smooth="yes"/>
      <point x="544" y="-453"/>
      <point x="351" y="-338"/>
      <point x="351" y="-138" type="curve" smooth="yes"/>
      <point x="351" y="15"/>
      <point x="465" y="202"/>
      <point x="625" y="316" type="curve"/>
      <point x="891" y="12"/>
      <point x="1077" y="0"/>
      <point x="1241" y="0" type="curve" smooth="yes"/>
      <point x="1299" y="0" type="line"/>
      <point x="1334" y="35"/>
      <point x="1349" y="72"/>
      <point x="1349" y="112" type="curve" smooth="yes"/>
      <point x="1349" y="152"/>
      <point x="1334" y="188"/>
      <point x="1299" y="223" type="curve"/>
    </contour>
    <contour>
      <point x="552" y="711"/>
      <point x="449" y="798"/>
      <point x="396" y="840" type="curve"/>
      <point x="503" y="879"/>
      <point x="606" y="899"/>
      <point x="699" y="899" type="curve" smooth="yes"/>
      <point x="829" y="899"/>
      <point x="934" y="861"/>
      <point x="1002" y="792" type="curve"/>
      <point x="663" y="599" type="line"/>
    </contour>
    <contour>
      <point x="708" y="1318" type="move" name="top"/>
    </contour>
    <contour>
      <point x="825" y="-897" type="move" name="bottom"/>
    </contour>
  </outline>
</glyph>
<glyph name="ain-ar.init" format="1">
  <advance width="1217"/>
  <unicode hex="FECB"/>
  <outline>
    <contour>
      <point x="439" y="414"/>
      <point x="376" y="540"/>
      <point x="341" y="687" type="curve"/>
      <point x="420" y="739"/>
      <point x="504" y="763"/>
      <point x="597" y="763" type="curve" smooth="yes"/>
      <point x="676" y="763"/>
      <point x="758" y="746"/>
      <point x="847" y="711" type="curve"/>
      <point x="831" y="929" type="line"/>
      <point x="752" y="966"/>
      <point x="663" y="986"/>
      <point x="575" y="986" type="curve" smooth="yes"/>
      <point x="340" y="986"/>
      <point x="168" y="846"/>
      <point x="154" y="640" type="curve"/>
      <point x="154" y="495"/>
      <point x="225" y="374"/>
      <point x="321" y="233" type="curve"/>
      <point x="256" y="226"/>
      <point x="162" y="223"/>
      <point x="44" y="223" type="curve" smooth="yes"/>
      <point x="-15" y="223" type="line" smooth="yes"/>
      <point x="-75" y="223"/>
      <point x="-120" y="172"/>
      <point x="-120" y="112" type="curve" smooth="yes"/>
      <point x="-120" y="52"/>
      <point x="-75" y="0"/>
      <point x="-15" y="0" type="curve" smooth="yes"/>
      <point x="44" y="0" type="line" smooth="yes"/>
      <point x="427" y="0"/>
      <point x="689" y="58"/>
      <point x="1060" y="190" type="curve"/>
      <point x="1077" y="425" type="line"/>
      <point x="549" y="276" type="line"/>
    </contour>
    <contour>
      <point x="575" y="1187" type="move" name="top"/>
    </contour>
    <contour>
      <point x="579" y="-198" type="move" name="bottom"/>
    </contour>
  </outline>
</glyph>
<glyph name="ain-ar.medi" format="1">
  <advance width="1187"/>
  <unicode hex="FECC"/>
  <outline>
    <contour>
      <point x="1126" y="223" type="line" smooth="yes"/>
      <point x="1017" y="223"/>
      <point x="849" y="234"/>
      <point x="779" y="251" type="curve"/>
      <point x="825" y="280"/>
      <point x="1079" y="462"/>
      <point x="1079" y="559" type="curve" smooth="yes"/>
      <point x="1079" y="770"/>
      <point x="818" y="874"/>
      <point x="635" y="874" type="curve" smooth="yes"/>
      <point x="494" y="874"/>
      <point x="316" y="815"/>
      <point x="210" y="770" type="curve"/>
      <point x="138" y="463" type="line"/>
      <point x="461" y="263" type="line"/>
      <point x="343" y="236"/>
      <point x="188" y="223"/>
      <point x="44" y="223" type="curve" smooth="yes"/>
      <point x="-15" y="223" type="line" smooth="yes"/>
      <point x="-75" y="223"/>
      <point x="-120" y="172"/>
      <point x="-120" y="112" type="curve" smooth="yes"/>
      <point x="-120" y="52"/>
      <point x="-75" y="0"/>
      <point x="-15" y="0" type="curve" smooth="yes"/>
      <point x="44" y="0" type="line" smooth="yes"/>
      <point x="207" y="0"/>
      <point x="451" y="37"/>
      <point x="608" y="136" type="curve"/>
      <point x="751" y="44"/>
      <point x="941" y="0"/>
      <point x="1126" y="0" type="curve" smooth="yes"/>
      <point x="1202" y="0" type="line"/>
      <point x="1237" y="35"/>
      <point x="1252" y="72"/>
      <point x="1252" y="112" type="curve" smooth="yes"/>
      <point x="1252" y="152"/>
      <point x="1237" y="188"/>
      <point x="1202" y="223" type="curve"/>
    </contour>
    <contour>
      <point x="433" y="628"/>
      <point x="533" y="652"/>
      <point x="606" y="652" type="curve" smooth="yes"/>
      <point x="691" y="652"/>
      <point x="832" y="619"/>
      <point x="902" y="549" type="curve"/>
      <point x="629" y="328" type="line"/>
      <point x="548" y="406"/>
      <point x="423" y="507"/>
      <point x="311" y="582" type="curve"/>
    </contour>
    <contour>
      <point x="635" y="1073" type="move" name="top"/>
    </contour>
    <contour>
      <point x="576" y="-180" type="move" name="bottom"/>
    </contour>
  </outline>
</glyph>
<glyph name="qaf-ar.fina" format="1">
  <advance width="1655"/>
  <unicode hex="FED6"/>
  <outline>
    <component base="qafDotless-ar.fina"/>
    <component base="twodotshorizontalabove-ar" xOffset="760" yOffset="199"/>
    <contour>
      <point x="720" y="-710" type="move" name="bottom"/>
    </contour>
  </outline>
</glyph>
<glyph name="qaf-ar.init" format="1">
  <advance width="991"/>
  <unicode hex="FED7"/>
  <outline>
    <component base="fehDotless-ar.init"/>
    <component base="twodotshorizontalabove-ar" xOffset="132" yOffset="516"/>
    <contour>
      <point x="413" y="-200" type="move" name="bottom"/>
    </contour>
  </outline>
</glyph>
<glyph name="qaf-ar.medi" format="1">
  <advance width="1018"/>
  <unicode hex="FED8"/>
  <outline>
    <component base="fehDotless-ar.medi"/>
    <component base="twodotshorizontalabove-ar" xOffset="223" yOffset="391"/>
    <contour>
      <point x="412" y="-180" type="move" name="bottom"/>
    </contour>
  </outline>
</glyph>
<glyph name="kaf-ar.init" format="1">
  <advance width="849"/>
  <unicode hex="FEDB"/>
  <outline>
    <contour>
      <point x="150" y="1238" type="line"/>
      <point x="28" y="905" type="line"/>
      <point x="369" y="725"/>
      <point x="520" y="475"/>
      <point x="564" y="309" type="curve"/>
      <point x="406" y="235"/>
      <point x="233" y="223"/>
      <point x="44" y="223" type="curve" smooth="yes"/>
      <point x="-15" y="223" type="line" smooth="yes"/>
      <point x="-75" y="223"/>
      <point x="-120" y="172"/>
      <point x="-120" y="112" type="curve" smooth="yes"/>
      <point x="-120" y="52"/>
      <point x="-75" y="0"/>
      <point x="-15" y="0" type="curve" smooth="yes"/>
      <point x="44" y="0" type="line" smooth="yes"/>
      <point x="474" y="0"/>
      <point x="709" y="118"/>
      <point x="709" y="340" type="curve" smooth="yes"/>
      <point x="709" y="629"/>
      <point x="464" y="908"/>
      <point x="205" y="1049" type="curve"/>
      <point x="768" y="1226" type="line"/>
      <point x="799" y="1456" type="line"/>
    </contour>
    <contour>
      <point x="465" y="1595" type="move" name="top"/>
    </contour>
    <contour>
      <point x="314" y="-197" type="move" name="bottom"/>
    </contour>
    <contour>
      <point x="679" y="1012" type="move" name="ring"/>
    </contour>
  </outline>
</glyph>
<glyph name="kaf-ar.medi" format="1">
  <advance width="1023"/>
  <unicode hex="FEDC"/>
  <outline>
    <contour>
      <point x="962" y="223" type="line" smooth="yes"/>
      <point x="874" y="223"/>
      <point x="807" y="255"/>
      <point x="748" y="371" type="curve" smooth="yes"/>
      <point x="629" y="604"/>
      <point x="541" y="825"/>
      <point x="231" y="1047" type="curve"/>
      <point x="885" y="1250" type="line"/>
      <point x="902" y="1477" type="line"/>
      <point x="185" y="1239" type="line"/>
      <point x="56" y="905" type="line"/>
      <point x="286" y="777"/>
      <point x="480" y="570"/>
      <point x="587" y="299" type="curve"/>
      <point x="464" y="249"/>
      <point x="278" y="223"/>
      <point x="44" y="223" type="curve" smooth="yes"/>
      <point x="-15" y="223" type="line" smooth="yes"/>
      <point x="-75" y="223"/>
      <point x="-120" y="172"/>
      <point x="-120" y="112" type="curve" smooth="yes"/>
      <point x="-120" y="52"/>
      <point x="-75" y="0"/>
      <point x="-15" y="0" type="curve" smooth="yes"/>
      <point x="44" y="0" type="line" smooth="yes"/>
      <point x="321" y="0"/>
      <point x="608" y="35"/>
      <point x="668" y="197" type="curve"/>
      <point x="758" y="67"/>
      <point x="856" y="0"/>
      <point x="962" y="0" type="curve" smooth="yes"/>
      <point x="1038" y="0" type="line"/>
      <point x="1073" y="35"/>
      <point x="1088" y="72"/>
      <point x="1088" y="112" type="curve" smooth="yes"/>
      <point x="1088" y="152"/>
      <point x="1073" y="188"/>
      <point x="1038" y="223" type="curve"/>
    </contour>
    <contour>
      <point x="522" y="1496" type="move" name="top"/>
    </contour>
    <contour>
      <point x="333" y="-193" type="move" name="bottom"/>
    </contour>
    <contour>
      <point x="793" y="1035" type="move" name="ring"/>
    </contour>
  </outline>
</glyph>
<glyph name="lam-ar.fina" format="1">
  <advance width="1590"/>
  <unicode hex="FEDE"/>
  <outline>
    <contour>
      <point x="1522" y="223" type="line" smooth="yes"/>
      <point x="1476" y="223"/>
      <point x="1384" y="240"/>
      <point x="1316" y="261" type="curve"/>
      <point x="1286" y="1492" type="line"/>
      <point x="1063" y="1381" type="line"/>
      <point x="1145" y="-169" type="line"/>
      <point x="1076" y="-193"/>
      <point x="859" y="-266"/>
      <point x="623" y="-266" type="curve" smooth="yes"/>
      <point x="451" y="-266"/>
      <point x="353" y="-187"/>
      <point x="353" y="-50" type="curve" smooth="yes"/>
      <point x="353" y="-9"/>
      <point x="362" y="24"/>
      <point x="435" y="338" type="curve"/>
      <point x="277" y="374" type="line"/>
      <point x="193" y="32"/>
      <point x="180" y="-22"/>
      <point x="180" y="-112" type="curve" smooth="yes"/>
      <point x="180" y="-360"/>
      <point x="328" y="-503"/>
      <point x="585" y="-503" type="curve" smooth="yes"/>
      <point x="852" y="-503"/>
      <point x="1318" y="-410"/>
      <point x="1325" y="-119" type="curve"/>
      <point x="1322" y="62" type="line"/>
      <point x="1367" y="19"/>
      <point x="1431" y="0"/>
      <point x="1522" y="0" type="curve" smooth="yes"/>
      <point x="1605" y="0" type="line"/>
      <point x="1640" y="35"/>
      <point x="1655" y="72"/>
      <point x="1655" y="112" type="curve" smooth="yes"/>
      <point x="1655" y="152"/>
      <point x="1640" y="188"/>
      <point x="1605" y="223" type="curve"/>
    </contour>
    <contour>
      <point x="684" y="594" type="move" name="top"/>
    </contour>
    <contour>
      <point x="597" y="-703" type="move" name="bottom"/>
    </contour>
  </outline>
</glyph>
<glyph name="lam-ar.init" format="1">
  <advance width="556"/>
  <unicode hex="FEDF"/>
  <outline>
    <contour>
      <point x="125" y="1391" type="line"/>
      <point x="255" y="258" type="line"/>
      <point x="191" y="239"/>
      <point x="95" y="223"/>
      <point x="44" y="223" type="curve" smooth="yes"/>
      <point x="-15" y="223" type="line" smooth="yes"/>
      <point x="-75" y="223"/>
      <point x="-120" y="172"/>
      <point x="-120" y="112" type="curve" smooth="yes"/>
      <point x="-120" y="52"/>
      <point x="-75" y="0"/>
      <point x="-15" y="0" type="curve" smooth="yes"/>
      <point x="44" y="0" type="line" smooth="yes"/>
      <point x="303" y="0"/>
      <point x="416" y="99"/>
      <point x="416" y="328" type="curve"/>
      <point x="340" y="1495" type="line"/>
    </contour>
    <contour>
      <point x="241" y="1674" type="move" name="top"/>
    </contour>
    <contour>
      <point x="151" y="-199" type="move" name="bottom"/>
    </contour>
  </outline>
</glyph>
<glyph name="lam-ar.medi" format="1">
  <advance width="698"/>
  <unicode hex="FEE0"/>
  <outline>
    <contour>
      <point x="630" y="223" type="line" smooth="yes"/>
      <point x="587" y="223"/>
      <point x="497" y="240"/>
      <point x="424" y="261" type="curve"/>
      <point x="405" y="1465" type="line"/>
      <point x="192" y="1373" type="line"/>
      <point x="245" y="257" type="line"/>
      <point x="175" y="235"/>
      <point x="105" y="223"/>
      <point x="44" y="223" type="curve" smooth="yes"/>
      <point x="-15" y="223" type="line" smooth="yes"/>
      <point x="-75" y="223"/>
      <point x="-120" y="172"/>
      <point x="-120" y="112" type="curve" smooth="yes"/>
      <point x="-120" y="52"/>
      <point x="-75" y="0"/>
      <point x="-15" y="0" type="curve" smooth="yes"/>
      <point x="44" y="0" type="line" smooth="yes"/>
      <point x="159" y="0"/>
      <point x="277" y="63"/>
      <point x="343" y="122" type="curve"/>
      <point x="421" y="47"/>
      <point x="504" y="0"/>
      <point x="630" y="0" type="curve" smooth="yes"/>
      <point x="714" y="0" type="line"/>
      <point x="747" y="37"/>
      <point x="763" y="73"/>
      <point x="763" y="112" type="curve" smooth="yes"/>
      <point x="763" y="150"/>
      <point x="747" y="186"/>
      <point x="714" y="223" type="curve"/>
    </contour>
    <contour>
      <point x="309" y="1649" type="move" name="top"/>
    </contour>
    <contour>
      <point x="284" y="-197" type="move" name="bottom"/>
    </contour>
  </outline>
</glyph>
<glyph name="meem-ar.fina" format="1">
  <advance width="1460"/>
  <unicode hex="FEE2"/>
  <outline>
    <contour>
      <point x="1400" y="223" type="line" smooth="yes"/>
      <point x="1270" y="223"/>
      <point x="1207" y="268"/>
      <point x="957" y="718" type="curve"/>
      <point x="474" y="634"/>
      <point x="180" y="433"/>
      <point x="180" y="149" type="curve"/>
      <point x="238" y="-620" type="line"/>
      <point x="449" y="-555" type="line"/>
      <point x="352" y="258" type="line"/>
      <point x="491" y="346" type="line"/>
      <point x="491" y="16"/>
      <point x="681" y="-211"/>
      <point x="910" y="-236" type="curve"/>
      <point x="1154" y="109" type="line"/>
      <point x="1229" y="29"/>
      <point x="1314" y="0"/>
      <point x="1444" y="0" type="curve" smooth="yes"/>
      <point x="1475" y="0" type="line"/>
      <point x="1510" y="35"/>
      <point x="1525" y="72"/>
      <point x="1525" y="112" type="curve" smooth="yes"/>
      <point x="1525" y="152"/>
      <point x="1510" y="188"/>
      <point x="1475" y="223" type="curve"/>
    </contour>
    <contour>
      <point x="790" y="23"/>
      <point x="646" y="143"/>
      <point x="646" y="382" type="curve" smooth="yes"/>
      <point x="646" y="392" type="line"/>
      <point x="724" y="423"/>
      <point x="798" y="443"/>
      <point x="874" y="454" type="curve"/>
      <point x="927" y="352"/>
      <point x="974" y="276"/>
      <point x="1019" y="224" type="curve"/>
      <point x="899" y="-15" type="line"/>
    </contour>
    <contour>
      <point x="902" y="917" type="move" name="top"/>
    </contour>
    <contour>
      <point x="358" y="-806" type="move" name="bottom"/>
    </contour>
  </outline>
</glyph>
<glyph name="meem-ar.init" format="1">
  <advance width="1240"/>
  <unicode hex="FEE3"/>
  <outline>
    <contour>
      <point x="474" y="856"/>
      <point x="362" y="561"/>
      <point x="241" y="377" type="curve" smooth="yes"/>
      <point x="156" y="248"/>
      <point x="122" y="223"/>
      <point x="15" y="223" type="curve" smooth="yes"/>
      <point x="-15" y="223" type="line" smooth="yes"/>
      <point x="-75" y="223"/>
      <point x="-120" y="172"/>
      <point x="-120" y="112" type="curve" smooth="yes"/>
      <point x="-120" y="52"/>
      <point x="-75" y="0"/>
      <point x="-15" y="0" type="curve" smooth="yes"/>
      <point x="15" y="0" type="line" smooth="yes"/>
      <point x="149" y="0"/>
      <point x="198" y="55"/>
      <point x="320" y="202" type="curve"/>
      <point x="959" y="-50" type="line"/>
      <point x="1100" y="247" type="line"/>
      <point x="1061" y="488"/>
      <point x="925" y="856"/>
      <point x="721" y="856" type="curve" smooth="yes"/>
    </contour>
    <contour>
      <point x="507" y="481"/>
      <point x="563" y="612"/>
      <point x="675" y="612" type="curve" smooth="yes"/>
      <point x="751" y="612"/>
      <point x="847" y="544"/>
      <point x="920" y="228" type="curve"/>
      <point x="458" y="390" type="line"/>
    </contour>
    <contour>
      <point x="721" y="1019" type="move" name="top"/>
    </contour>
    <contour>
      <point x="654" y="-193" type="move" name="bottom"/>
    </contour>
  </outline>
</glyph>
<glyph name="meem-ar.medi" format="1">
  <advance width="1284"/>
  <unicode hex="FEE4"/>
  <outline>
    <contour>
      <point x="1267" y="223" type="line" smooth="yes"/>
      <point x="1093" y="223"/>
      <point x="1027" y="332"/>
      <point x="999" y="395" type="curve" smooth="yes"/>
      <point x="781" y="892" type="line"/>
      <point x="485" y="823"/>
      <point x="252" y="539"/>
      <point x="209" y="252" type="curve"/>
      <point x="148" y="233"/>
      <point x="89" y="223"/>
      <point x="15" y="223" type="curve" smooth="yes"/>
      <point x="-15" y="223" type="line" smooth="yes"/>
      <point x="-75" y="223"/>
      <point x="-120" y="172"/>
      <point x="-120" y="112" type="curve" smooth="yes"/>
      <point x="-120" y="52"/>
      <point x="-75" y="0"/>
      <point x="-15" y="0" type="curve" smooth="yes"/>
      <point x="15" y="0" type="line" smooth="yes"/>
      <point x="135" y="2"/>
      <point x="177" y="24"/>
      <point x="257" y="121" type="curve"/>
      <point x="920" y="-71" type="line"/>
      <point x="1001" y="119" type="line"/>
      <point x="1061" y="48"/>
      <point x="1138" y="0"/>
      <point x="1223" y="0" type="curve" smooth="yes"/>
      <point x="1299" y="0" type="line"/>
      <point x="1334" y="35"/>
      <point x="1349" y="72"/>
      <point x="1349" y="112" type="curve" smooth="yes"/>
      <point x="1349" y="152"/>
      <point x="1334" y="188"/>
      <point x="1299" y="223" type="curve"/>
    </contour>
    <contour>
      <point x="426" y="483"/>
      <point x="560" y="595"/>
      <point x="661" y="638" type="curve"/>
      <point x="866" y="194" type="line"/>
      <point x="376" y="322" type="line"/>
    </contour>
    <contour>
      <point x="723" y="1092" type="move" name="top"/>
    </contour>
    <contour>
      <point x="636" y="-246" type="move" name="bottom"/>
    </contour>
  </outline>
</glyph>
<glyph name="heh-ar.fina" format="1">
  <advance width="1145"/>
  <unicode hex="FEEA"/>
  <outline>
    <contour>
      <point x="1084" y="223" type="line" smooth="yes"/>
      <point x="943" y="223"/>
      <point x="882" y="278"/>
      <point x="871" y="425" type="curve" smooth="yes"/>
      <point x="822" y="1075" type="line"/>
      <point x="607" y="988" type="line"/>
      <point x="637" y="794" type="line"/>
      <point x="347" y="648"/>
      <point x="196" y="462"/>
      <point x="180" y="230" type="curve"/>
      <point x="180" y="115"/>
      <point x="353" y="45"/>
      <point x="515" y="45" type="curve" smooth="yes"/>
      <point x="547" y="45"/>
      <point x="666" y="49"/>
      <point x="696" y="57" type="curve"/>
      <point x="771" y="184" type="line"/>
      <point x="833" y="65"/>
      <point x="932" y="0"/>
      <point x="1084" y="0" type="curve" smooth="yes"/>
      <point x="1160" y="0" type="line"/>
      <point x="1195" y="35"/>
      <point x="1210" y="72"/>
      <point x="1210" y="112" type="curve" smooth="yes"/>
      <point x="1210" y="152"/>
      <point x="1195" y="188"/>
      <point x="1160" y="223" type="curve"/>
    </contour>
    <contour>
      <point x="484" y="271"/>
      <point x="382" y="292"/>
      <point x="324" y="325" type="curve"/>
      <point x="374" y="424"/>
      <point x="504" y="531"/>
      <point x="667" y="605" type="curve"/>
      <point x="714" y="282" type="line"/>
      <point x="676" y="275"/>
      <point x="633" y="271"/>
      <point x="591" y="271" type="curve" smooth="yes"/>
    </contour>
    <contour>
      <point x="741" y="1266" type="move" name="top"/>
    </contour>
    <contour>
      <point x="528" y="-151" type="move" name="bottom"/>
    </contour>
  </outline>
</glyph>
<glyph name="heh-ar.init" format="1">
  <advance width="1428"/>
  <unicode hex="FEEB"/>
  <outline>
    <contour>
      <point x="1133" y="821"/>
      <point x="819" y="1048"/>
      <point x="645" y="1148" type="curve"/>
      <point x="607" y="978" type="line"/>
      <point x="358" y="881"/>
      <point x="173" y="536"/>
      <point x="283" y="245" type="curve"/>
      <point x="237" y="233"/>
      <point x="175" y="223"/>
      <point x="44" y="223" type="curve" smooth="yes"/>
      <point x="-15" y="223" type="line" smooth="yes"/>
      <point x="-75" y="223"/>
      <point x="-120" y="172"/>
      <point x="-120" y="112" type="curve" smooth="yes"/>
      <point x="-120" y="52"/>
      <point x="-75" y="0"/>
      <point x="-15" y="0" type="curve" smooth="yes"/>
      <point x="44" y="0" type="line" smooth="yes"/>
      <point x="220" y="0"/>
      <point x="482" y="77"/>
      <point x="608" y="166" type="curve"/>
      <point x="1184" y="-6" type="line"/>
      <point x="1290" y="272"/>
      <point x="1326" y="433"/>
      <point x="1238" y="610" type="curve" smooth="yes"/>
    </contour>
    <contour>
      <point x="289" y="304"/>
      <point x="323" y="769"/>
      <point x="608" y="769" type="curve" smooth="yes"/>
      <point x="667" y="769"/>
      <point x="740" y="728"/>
      <point x="773" y="674" type="curve"/>
      <point x="604" y="350" type="line"/>
    </contour>
    <contour>
      <point x="788" y="359" type="line"/>
      <point x="899" y="657" type="line"/>
      <point x="1041" y="569"/>
      <point x="1129" y="414"/>
      <point x="1127" y="261" type="curve"/>
    </contour>
    <contour>
      <point x="672" y="1347" type="move" name="top"/>
    </contour>
    <contour>
      <point x="581" y="-184" type="move" name="bottom"/>
    </contour>
  </outline>
</glyph>
<glyph name="heh-ar.medi" format="1">
  <advance width="935"/>
  <unicode hex="FEEC"/>
  <outline>
    <contour>
      <point x="1000" y="152"/>
      <point x="985" y="188"/>
      <point x="950" y="223" type="curve"/>
      <point x="875" y="223" type="line" smooth="yes"/>
      <point x="785" y="223"/>
      <point x="727" y="217"/>
      <point x="644" y="202" type="curve"/>
      <point x="764" y="317"/>
      <point x="791" y="393"/>
      <point x="794" y="547" type="curve" smooth="yes"/>
      <point x="800" y="870" type="line"/>
      <point x="554" y="972" type="line"/>
      <point x="342" y="786"/>
      <point x="202" y="541"/>
      <point x="127" y="223" type="curve"/>
      <point x="-15" y="223" type="line" smooth="yes"/>
      <point x="-75" y="223"/>
      <point x="-120" y="172"/>
      <point x="-120" y="112" type="curve" smooth="yes"/>
      <point x="-120" y="52"/>
      <point x="-75" y="0"/>
      <point x="-15" y="0" type="curve" smooth="yes"/>
      <point x="120" y="0" type="line"/>
      <point x="158" y="-373"/>
      <point x="361" y="-540"/>
      <point x="761" y="-540" type="curve"/>
      <point x="868" y="-279"/>
      <point x="863" y="-98"/>
      <point x="711" y="0" type="curve"/>
      <point x="950" y="0" type="line"/>
      <point x="985" y="35"/>
      <point x="1000" y="72"/>
      <point x="1000" y="112" type="curve" smooth="yes"/>
    </contour>
    <contour>
      <point x="603" y="356" type="line"/>
      <point x="320" y="197" type="line"/>
      <point x="356" y="394"/>
      <point x="461" y="606"/>
      <point x="601" y="734" type="curve"/>
    </contour>
    <contour>
      <point x="531" y="13"/>
      <point x="651" y="-95"/>
      <point x="704" y="-316" type="curve"/>
      <point x="482" y="-314"/>
      <point x="342" y="-188"/>
      <point x="325" y="23" type="curve"/>
    </contour>
    <contour>
      <point x="607" y="1173" type="move" name="top"/>
    </contour>
    <contour>
      <point x="623" y="-734" type="move" name="bottom"/>
    </contour>
  </outline>
</glyph>
<glyph name="waw-ar.fina" format="1">
  <advance width="1112"/>
  <unicode hex="FEEE"/>
  <outline>
    <contour>
      <point x="939" y="223" type="line"/>
      <point x="937" y="464"/>
      <point x="830" y="841"/>
      <point x="573" y="841" type="curve" smooth="yes"/>
      <point x="331" y="841"/>
      <point x="180" y="522"/>
      <point x="180" y="290" type="curve" smooth="yes"/>
      <point x="180" y="79"/>
      <point x="283" y="-5"/>
      <point x="536" y="-5" type="curve" smooth="yes"/>
      <point x="594" y="-5"/>
      <point x="660" y="0"/>
      <point x="732" y="6" type="curve"/>
      <point x="643" y="-176"/>
      <point x="491" y="-266"/>
      <point x="270" y="-266" type="curve" smooth="yes"/>
      <point x="202" y="-266"/>
      <point x="129" y="-257"/>
      <point x="46" y="-240" type="curve"/>
      <point x="11" y="-402" type="line"/>
      <point x="155" y="-448"/>
      <point x="281" y="-472"/>
      <point x="385" y="-472" type="curve" smooth="yes"/>
      <point x="636" y="-472"/>
      <point x="838" y="-289"/>
      <point x="909" y="0" type="curve"/>
      <point x="1127" y="0" type="line"/>
      <point x="1162" y="35"/>
      <point x="1177" y="72"/>
      <point x="1177" y="112" type="curve" smooth="yes"/>
      <point x="1177" y="152"/>
      <point x="1162" y="188"/>
      <point x="1127" y="223" type="curve"/>
    </contour>
    <contour>
      <point x="473" y="221"/>
      <point x="396" y="233"/>
      <point x="335" y="256" type="curve"/>
      <point x="328" y="416"/>
      <point x="437" y="596"/>
      <point x="535" y="596" type="curve" smooth="yes"/>
      <point x="636" y="596"/>
      <point x="742" y="416"/>
      <point x="752" y="227" type="curve"/>
      <point x="602" y="224" type="line" smooth="yes"/>
    </contour>
    <contour>
      <point x="570" y="1044" type="move" name="top"/>
    </contour>
    <contour>
      <point x="411" y="-671" type="move" name="bottom"/>
    </contour>
  </outline>
</glyph>
